solid OpenSCAD_Model
  facet normal 0.998027 0.0627904 0
    outer loop
      vertex 50 0 3
      vertex 49.6057 6.26666 0
      vertex 49.6057 6.26666 3
    endloop
  endfacet
  facet normal 0.998027 0.0627904 0
    outer loop
      vertex 49.6057 6.26666 0
      vertex 50 0 3
      vertex 50 0 0
    endloop
  endfacet
  facet normal -0.998027 0.0627904 0
    outer loop
      vertex -50 0 0
      vertex -49.6057 6.26666 3
      vertex -49.6057 6.26666 0
    endloop
  endfacet
  facet normal -0.998027 0.0627904 0
    outer loop
      vertex -49.6057 6.26666 3
      vertex -50 0 0
      vertex -50 0 3
    endloop
  endfacet
  facet normal 0 1 -0
    outer loop
      vertex 3.13953 49.9013 0
      vertex -3.13953 49.9013 3
      vertex 3.13953 49.9013 3
    endloop
  endfacet
  facet normal 0 1 0
    outer loop
      vertex -3.13953 49.9013 3
      vertex 3.13953 49.9013 0
      vertex -3.13953 49.9013 0
    endloop
  endfacet
  facet normal 0 -1 0
    outer loop
      vertex -3.13953 -49.9013 0
      vertex 3.13953 -49.9013 3
      vertex -3.13953 -49.9013 3
    endloop
  endfacet
  facet normal 0 -1 -0
    outer loop
      vertex 3.13953 -49.9013 3
      vertex -3.13953 -49.9013 0
      vertex 3.13953 -49.9013 0
    endloop
  endfacet
  facet normal 0.684547 0.728969 -0
    outer loop
      vertex 36.4484 34.2274 0
      vertex 31.8712 38.5257 3
      vertex 36.4484 34.2274 3
    endloop
  endfacet
  facet normal 0.684547 0.728969 0
    outer loop
      vertex 31.8712 38.5257 3
      vertex 36.4484 34.2274 0
      vertex 31.8712 38.5257 0
    endloop
  endfacet
  facet normal -0.684547 0.728969 0
    outer loop
      vertex -31.8712 38.5257 0
      vertex -36.4484 34.2274 3
      vertex -31.8712 38.5257 3
    endloop
  endfacet
  facet normal -0.684547 0.728969 0
    outer loop
      vertex -36.4484 34.2274 3
      vertex -31.8712 38.5257 0
      vertex -36.4484 34.2274 0
    endloop
  endfacet
  facet normal -0.368125 0.929776 0
    outer loop
      vertex -15.4508 47.5528 0
      vertex -21.289 45.2414 3
      vertex -15.4508 47.5528 3
    endloop
  endfacet
  facet normal -0.368125 0.929776 0
    outer loop
      vertex -21.289 45.2414 3
      vertex -15.4508 47.5528 0
      vertex -21.289 45.2414 0
    endloop
  endfacet
  facet normal 0.904827 0.425779 0
    outer loop
      vertex 46.4888 18.4062 3
      vertex 43.8153 24.0877 0
      vertex 43.8153 24.0877 3
    endloop
  endfacet
  facet normal 0.904827 0.425779 0
    outer loop
      vertex 43.8153 24.0877 0
      vertex 46.4888 18.4062 3
      vertex 46.4888 18.4062 0
    endloop
  endfacet
  facet normal 0.368125 0.929776 -0
    outer loop
      vertex 21.289 45.2414 0
      vertex 15.4508 47.5528 3
      vertex 21.289 45.2414 3
    endloop
  endfacet
  facet normal 0.368125 0.929776 0
    outer loop
      vertex 15.4508 47.5528 3
      vertex 21.289 45.2414 0
      vertex 15.4508 47.5528 0
    endloop
  endfacet
  facet normal 0.24869 0.968583 -0
    outer loop
      vertex 15.4508 47.5528 0
      vertex 9.36907 49.1144 3
      vertex 15.4508 47.5528 3
    endloop
  endfacet
  facet normal 0.24869 0.968583 0
    outer loop
      vertex 9.36907 49.1144 3
      vertex 15.4508 47.5528 0
      vertex 9.36907 49.1144 0
    endloop
  endfacet
  facet normal 0.481754 0.876307 -0
    outer loop
      vertex 26.7913 42.2164 0
      vertex 21.289 45.2414 3
      vertex 26.7913 42.2164 3
    endloop
  endfacet
  facet normal 0.481754 0.876307 0
    outer loop
      vertex 21.289 45.2414 3
      vertex 26.7913 42.2164 0
      vertex 21.289 45.2414 0
    endloop
  endfacet
  facet normal -0.844328 0.535827 0
    outer loop
      vertex -43.8153 24.0877 0
      vertex -40.4509 29.3893 3
      vertex -40.4509 29.3893 0
    endloop
  endfacet
  facet normal -0.844328 0.535827 0
    outer loop
      vertex -40.4509 29.3893 3
      vertex -43.8153 24.0877 0
      vertex -43.8153 24.0877 3
    endloop
  endfacet
  facet normal -0.770513 0.637424 0
    outer loop
      vertex -40.4509 29.3893 0
      vertex -36.4484 34.2274 3
      vertex -36.4484 34.2274 0
    endloop
  endfacet
  facet normal -0.770513 0.637424 0
    outer loop
      vertex -36.4484 34.2274 3
      vertex -40.4509 29.3893 0
      vertex -40.4509 29.3893 3
    endloop
  endfacet
  facet normal -0 0 1
    outer loop
      vertex 2.95115 -46.9073 3
      vertex 5 -47.402 3
      vertex 8.80692 -46.1675 3
    endloop
  endfacet
  facet normal -0 0 1
    outer loop
      vertex -2.95115 -46.9073 3
      vertex 5 -47.402 3
      vertex 2.95115 -46.9073 3
    endloop
  endfacet
  facet normal 0 0 1
    outer loop
      vertex -2.95115 -46.9073 3
      vertex -5 -47.402 3
      vertex 5 -47.402 3
    endloop
  endfacet
  facet normal 0 0 1
    outer loop
      vertex -9.36907 -49.1144 3
      vertex -5 -47.402 3
      vertex -8.80692 -46.1675 3
    endloop
  endfacet
  facet normal 0 0 1
    outer loop
      vertex -8.80692 -46.1675 3
      vertex -5 -47.402 3
      vertex -2.95115 -46.9073 3
    endloop
  endfacet
  facet normal -0 0 1
    outer loop
      vertex 49.4413 5 3
      vertex 50 0 3
      vertex 49.6057 6.26666 3
    endloop
  endfacet
  facet normal 0 0 1
    outer loop
      vertex 49.4413 -5 3
      vertex 50 0 3
      vertex 49.4413 5 3
    endloop
  endfacet
  facet normal 0 0 1
    outer loop
      vertex 46.6294 5.89066 3
      vertex 49.6057 6.26666 3
      vertex 48.4292 12.4345 3
    endloop
  endfacet
  facet normal 0 -0 1
    outer loop
      vertex 47.4216 5 3
      vertex 49.6057 6.26666 3
      vertex 46.6294 5.89066 3
    endloop
  endfacet
  facet normal 0 0 1
    outer loop
      vertex 47.4216 5 3
      vertex 47 0 3
      vertex 47.4216 -5 3
    endloop
  endfacet
  facet normal 0 0 1
    outer loop
      vertex 47.4216 5 3
      vertex 46.6294 5.89066 3
      vertex 47 0 3
    endloop
  endfacet
  facet normal 0 0 1
    outer loop
      vertex 49.6057 6.26666 3
      vertex 47.4216 5 3
      vertex 49.4413 5 3
    endloop
  endfacet
  facet normal 0 0 1
    outer loop
      vertex 45.5234 11.6884 3
      vertex 48.4292 12.4345 3
      vertex 46.4888 18.4062 3
    endloop
  endfacet
  facet normal 0 0 1
    outer loop
      vertex 48.4292 12.4345 3
      vertex 45.5234 11.6884 3
      vertex 46.6294 5.89066 3
    endloop
  endfacet
  facet normal 0 0 1
    outer loop
      vertex 43.6995 17.3019 3
      vertex 46.4888 18.4062 3
      vertex 43.8153 24.0877 3
    endloop
  endfacet
  facet normal 0 0 1
    outer loop
      vertex 46.4888 18.4062 3
      vertex 43.6995 17.3019 3
      vertex 45.5234 11.6884 3
    endloop
  endfacet
  facet normal 0 0 1
    outer loop
      vertex 43.8153 24.0877 3
      vertex 41.1864 22.6424 3
      vertex 43.6995 17.3019 3
    endloop
  endfacet
  facet normal 0 0 1
    outer loop
      vertex 40.4509 29.3893 3
      vertex 41.1864 22.6424 3
      vertex 43.8153 24.0877 3
    endloop
  endfacet
  facet normal 0 0 1
    outer loop
      vertex 40.4509 29.3893 3
      vertex 38.0238 27.6259 3
      vertex 41.1864 22.6424 3
    endloop
  endfacet
  facet normal 0 0 1
    outer loop
      vertex 36.4484 34.2274 3
      vertex 38.0238 27.6259 3
      vertex 40.4509 29.3893 3
    endloop
  endfacet
  facet normal 0 0 1
    outer loop
      vertex 36.4484 34.2274 3
      vertex 34.2615 32.1737 3
      vertex 38.0238 27.6259 3
    endloop
  endfacet
  facet normal 0 0 1
    outer loop
      vertex 31.8712 38.5257 3
      vertex 34.2615 32.1737 3
      vertex 36.4484 34.2274 3
    endloop
  endfacet
  facet normal 0 0 1
    outer loop
      vertex 31.8712 38.5257 3
      vertex 29.9589 36.2141 3
      vertex 34.2615 32.1737 3
    endloop
  endfacet
  facet normal 0 0 1
    outer loop
      vertex 26.7913 42.2164 3
      vertex 29.9589 36.2141 3
      vertex 31.8712 38.5257 3
    endloop
  endfacet
  facet normal 0 0 1
    outer loop
      vertex 26.7913 42.2164 3
      vertex 25.1839 39.6834 3
      vertex 29.9589 36.2141 3
    endloop
  endfacet
  facet normal 0 0 1
    outer loop
      vertex 21.289 45.2414 3
      vertex 25.1839 39.6834 3
      vertex 26.7913 42.2164 3
    endloop
  endfacet
  facet normal 0 0 1
    outer loop
      vertex 21.289 45.2414 3
      vertex 20.0116 42.5269 3
      vertex 25.1839 39.6834 3
    endloop
  endfacet
  facet normal 0 0 1
    outer loop
      vertex 15.4508 47.5528 3
      vertex 20.0116 42.5269 3
      vertex 21.289 45.2414 3
    endloop
  endfacet
  facet normal 0 0 1
    outer loop
      vertex 15.4508 47.5528 3
      vertex 14.5238 44.6997 3
      vertex 20.0116 42.5269 3
    endloop
  endfacet
  facet normal 0 0 1
    outer loop
      vertex 9.36907 49.1144 3
      vertex 14.5238 44.6997 3
      vertex 15.4508 47.5528 3
    endloop
  endfacet
  facet normal 0 0 1
    outer loop
      vertex 9.36907 49.1144 3
      vertex 8.80692 46.1675 3
      vertex 14.5238 44.6997 3
    endloop
  endfacet
  facet normal 0 0 1
    outer loop
      vertex 5 47.4216 3
      vertex 9.36907 49.1144 3
      vertex 5 49.4413 3
    endloop
  endfacet
  facet normal 0 0 1
    outer loop
      vertex 3.13953 49.9013 3
      vertex 5 49.4413 3
      vertex 9.36907 49.1144 3
    endloop
  endfacet
  facet normal -0 0 1
    outer loop
      vertex -3.13953 49.9013 3
      vertex 5 49.4413 3
      vertex 3.13953 49.9013 3
    endloop
  endfacet
  facet normal 0 0 1
    outer loop
      vertex -3.13953 49.9013 3
      vertex -5 49.4413 3
      vertex 5 49.4413 3
    endloop
  endfacet
  facet normal -0 0 1
    outer loop
      vertex -9.36907 49.1144 3
      vertex -5 47.4216 3
      vertex -5 49.4413 3
    endloop
  endfacet
  facet normal 0 0 1
    outer loop
      vertex -9.36907 49.1144 3
      vertex -5 49.4413 3
      vertex -3.13953 49.9013 3
    endloop
  endfacet
  facet normal 0 0 1
    outer loop
      vertex -5 47.4216 3
      vertex -9.36907 49.1144 3
      vertex -8.80692 46.1675 3
    endloop
  endfacet
  facet normal 0 0 1
    outer loop
      vertex -9.36907 49.1144 3
      vertex -14.5238 44.6997 3
      vertex -8.80692 46.1675 3
    endloop
  endfacet
  facet normal -0 0 1
    outer loop
      vertex -15.4508 47.5528 3
      vertex -14.5238 44.6997 3
      vertex -9.36907 49.1144 3
    endloop
  endfacet
  facet normal 0 0 1
    outer loop
      vertex -15.4508 47.5528 3
      vertex -20.0116 42.5269 3
      vertex -14.5238 44.6997 3
    endloop
  endfacet
  facet normal -0 0 1
    outer loop
      vertex -21.289 45.2414 3
      vertex -20.0116 42.5269 3
      vertex -15.4508 47.5528 3
    endloop
  endfacet
  facet normal 0 0 1
    outer loop
      vertex -21.289 45.2414 3
      vertex -25.1839 39.6834 3
      vertex -20.0116 42.5269 3
    endloop
  endfacet
  facet normal -0 0 1
    outer loop
      vertex -26.7913 42.2164 3
      vertex -25.1839 39.6834 3
      vertex -21.289 45.2414 3
    endloop
  endfacet
  facet normal 0 0 1
    outer loop
      vertex -26.7913 42.2164 3
      vertex -29.9589 36.2141 3
      vertex -25.1839 39.6834 3
    endloop
  endfacet
  facet normal -0 0 1
    outer loop
      vertex -31.8712 38.5257 3
      vertex -29.9589 36.2141 3
      vertex -26.7913 42.2164 3
    endloop
  endfacet
  facet normal 0 0 1
    outer loop
      vertex -31.8712 38.5257 3
      vertex -34.2615 32.1737 3
      vertex -29.9589 36.2141 3
    endloop
  endfacet
  facet normal -0 0 1
    outer loop
      vertex -36.4484 34.2274 3
      vertex -34.2615 32.1737 3
      vertex -31.8712 38.5257 3
    endloop
  endfacet
  facet normal 0 0 1
    outer loop
      vertex -36.4484 34.2274 3
      vertex -38.0238 27.6259 3
      vertex -34.2615 32.1737 3
    endloop
  endfacet
  facet normal -0 0 1
    outer loop
      vertex -40.4509 29.3893 3
      vertex -38.0238 27.6259 3
      vertex -36.4484 34.2274 3
    endloop
  endfacet
  facet normal 0 0 1
    outer loop
      vertex -40.4509 29.3893 3
      vertex -41.1864 22.6424 3
      vertex -38.0238 27.6259 3
    endloop
  endfacet
  facet normal -0 0 1
    outer loop
      vertex -43.8153 24.0877 3
      vertex -41.1864 22.6424 3
      vertex -40.4509 29.3893 3
    endloop
  endfacet
  facet normal 0 0 1
    outer loop
      vertex -41.1864 22.6424 3
      vertex -43.8153 24.0877 3
      vertex -43.6995 17.3019 3
    endloop
  endfacet
  facet normal -0 0 1
    outer loop
      vertex -46.4888 18.4062 3
      vertex -43.6995 17.3019 3
      vertex -43.8153 24.0877 3
    endloop
  endfacet
  facet normal 0 0 1
    outer loop
      vertex -43.6995 17.3019 3
      vertex -46.4888 18.4062 3
      vertex -45.5234 11.6884 3
    endloop
  endfacet
  facet normal -0 0 1
    outer loop
      vertex -48.4292 12.4345 3
      vertex -45.5234 11.6884 3
      vertex -46.4888 18.4062 3
    endloop
  endfacet
  facet normal 0 0 1
    outer loop
      vertex -45.5234 11.6884 3
      vertex -48.4292 12.4345 3
      vertex -46.6294 5.89066 3
    endloop
  endfacet
  facet normal 0 0 1
    outer loop
      vertex -46.6294 5.89066 3
      vertex -47.402 5 3
      vertex -47 0 3
    endloop
  endfacet
  facet normal -0 0 1
    outer loop
      vertex -49.6057 6.26666 3
      vertex -46.6294 5.89066 3
      vertex -48.4292 12.4345 3
    endloop
  endfacet
  facet normal 0 0 1
    outer loop
      vertex -46.6294 5.89066 3
      vertex -49.6057 6.26666 3
      vertex -47.402 5 3
    endloop
  endfacet
  facet normal 0 0 1
    outer loop
      vertex -50 0 3
      vertex -49.4216 5 3
      vertex -49.6057 6.26666 3
    endloop
  endfacet
  facet normal 0 0 1
    outer loop
      vertex -47.402 5 3
      vertex -49.6057 6.26666 3
      vertex -49.4216 5 3
    endloop
  endfacet
  facet normal 0 0 1
    outer loop
      vertex 50 0 3
      vertex 49.4413 -5 3
      vertex 49.6057 -6.26666 3
    endloop
  endfacet
  facet normal -0 0 1
    outer loop
      vertex 47.4216 -5 3
      vertex 49.6057 -6.26666 3
      vertex 49.4413 -5 3
    endloop
  endfacet
  facet normal 0 0 1
    outer loop
      vertex 49.6057 -6.26666 3
      vertex 47.4216 -5 3
      vertex 46.6294 -5.89066 3
    endloop
  endfacet
  facet normal 0 0 1
    outer loop
      vertex 46.6294 -5.89066 3
      vertex 47.4216 -5 3
      vertex 47 0 3
    endloop
  endfacet
  facet normal 0 0 1
    outer loop
      vertex 49.6057 -6.26666 3
      vertex 46.6294 -5.89066 3
      vertex 48.4292 -12.4345 3
    endloop
  endfacet
  facet normal -0 0 1
    outer loop
      vertex 45.5234 -11.6884 3
      vertex 48.4292 -12.4345 3
      vertex 46.6294 -5.89066 3
    endloop
  endfacet
  facet normal 0 0 1
    outer loop
      vertex 48.4292 -12.4345 3
      vertex 45.5234 -11.6884 3
      vertex 46.4888 -18.4062 3
    endloop
  endfacet
  facet normal -0 0 1
    outer loop
      vertex 43.6995 -17.3019 3
      vertex 46.4888 -18.4062 3
      vertex 45.5234 -11.6884 3
    endloop
  endfacet
  facet normal 0 0 1
    outer loop
      vertex 46.4888 -18.4062 3
      vertex 43.6995 -17.3019 3
      vertex 43.8153 -24.0877 3
    endloop
  endfacet
  facet normal -0 0 1
    outer loop
      vertex 41.1864 -22.6424 3
      vertex 43.8153 -24.0877 3
      vertex 43.6995 -17.3019 3
    endloop
  endfacet
  facet normal 0 0 1
    outer loop
      vertex 41.1864 -22.6424 3
      vertex 40.4509 -29.3893 3
      vertex 43.8153 -24.0877 3
    endloop
  endfacet
  facet normal -0 0 1
    outer loop
      vertex 38.0238 -27.6259 3
      vertex 40.4509 -29.3893 3
      vertex 41.1864 -22.6424 3
    endloop
  endfacet
  facet normal 0 0 1
    outer loop
      vertex 38.0238 -27.6259 3
      vertex 36.4484 -34.2274 3
      vertex 40.4509 -29.3893 3
    endloop
  endfacet
  facet normal -0 0 1
    outer loop
      vertex 34.2615 -32.1737 3
      vertex 36.4484 -34.2274 3
      vertex 38.0238 -27.6259 3
    endloop
  endfacet
  facet normal 0 0 1
    outer loop
      vertex 34.2615 -32.1737 3
      vertex 31.8712 -38.5257 3
      vertex 36.4484 -34.2274 3
    endloop
  endfacet
  facet normal -0 0 1
    outer loop
      vertex 29.9589 -36.2141 3
      vertex 31.8712 -38.5257 3
      vertex 34.2615 -32.1737 3
    endloop
  endfacet
  facet normal 0 0 1
    outer loop
      vertex 29.9589 -36.2141 3
      vertex 26.7913 -42.2164 3
      vertex 31.8712 -38.5257 3
    endloop
  endfacet
  facet normal -0 0 1
    outer loop
      vertex 25.1839 -39.6834 3
      vertex 26.7913 -42.2164 3
      vertex 29.9589 -36.2141 3
    endloop
  endfacet
  facet normal 0 0 1
    outer loop
      vertex 25.1839 -39.6834 3
      vertex 21.289 -45.2414 3
      vertex 26.7913 -42.2164 3
    endloop
  endfacet
  facet normal -0 0 1
    outer loop
      vertex 20.0116 -42.5269 3
      vertex 21.289 -45.2414 3
      vertex 25.1839 -39.6834 3
    endloop
  endfacet
  facet normal 0 0 1
    outer loop
      vertex 20.0116 -42.5269 3
      vertex 15.4508 -47.5528 3
      vertex 21.289 -45.2414 3
    endloop
  endfacet
  facet normal -0 0 1
    outer loop
      vertex 14.5238 -44.6997 3
      vertex 15.4508 -47.5528 3
      vertex 20.0116 -42.5269 3
    endloop
  endfacet
  facet normal 0 0 1
    outer loop
      vertex 14.5238 -44.6997 3
      vertex 9.36907 -49.1144 3
      vertex 15.4508 -47.5528 3
    endloop
  endfacet
  facet normal -0 0 1
    outer loop
      vertex 8.80692 -46.1675 3
      vertex 9.36907 -49.1144 3
      vertex 14.5238 -44.6997 3
    endloop
  endfacet
  facet normal -0 0 1
    outer loop
      vertex 5 -47.402 3
      vertex 9.36907 -49.1144 3
      vertex 8.80692 -46.1675 3
    endloop
  endfacet
  facet normal 0 0 1
    outer loop
      vertex 5 -49.4216 3
      vertex 9.36907 -49.1144 3
      vertex 5 -47.402 3
    endloop
  endfacet
  facet normal -0 0 1
    outer loop
      vertex 5 -49.4216 3
      vertex 3.13953 -49.9013 3
      vertex 9.36907 -49.1144 3
    endloop
  endfacet
  facet normal 0 0 1
    outer loop
      vertex 5 -49.4216 3
      vertex -3.13953 -49.9013 3
      vertex 3.13953 -49.9013 3
    endloop
  endfacet
  facet normal -0 0 1
    outer loop
      vertex -5 -49.4216 3
      vertex -3.13953 -49.9013 3
      vertex 5 -49.4216 3
    endloop
  endfacet
  facet normal 0 0 1
    outer loop
      vertex -5 -49.4216 3
      vertex -9.36907 -49.1144 3
      vertex -3.13953 -49.9013 3
    endloop
  endfacet
  facet normal 0 0 1
    outer loop
      vertex -5 -47.402 3
      vertex -9.36907 -49.1144 3
      vertex -5 -49.4216 3
    endloop
  endfacet
  facet normal 0 0 1
    outer loop
      vertex -14.5238 -44.6997 3
      vertex -9.36907 -49.1144 3
      vertex -8.80692 -46.1675 3
    endloop
  endfacet
  facet normal 0 0 1
    outer loop
      vertex -14.5238 -44.6997 3
      vertex -15.4508 -47.5528 3
      vertex -9.36907 -49.1144 3
    endloop
  endfacet
  facet normal 0 0 1
    outer loop
      vertex -20.0116 -42.5269 3
      vertex -15.4508 -47.5528 3
      vertex -14.5238 -44.6997 3
    endloop
  endfacet
  facet normal 0 0 1
    outer loop
      vertex -20.0116 -42.5269 3
      vertex -21.289 -45.2414 3
      vertex -15.4508 -47.5528 3
    endloop
  endfacet
  facet normal 0 0 1
    outer loop
      vertex -25.1839 -39.6834 3
      vertex -21.289 -45.2414 3
      vertex -20.0116 -42.5269 3
    endloop
  endfacet
  facet normal 0 0 1
    outer loop
      vertex -25.1839 -39.6834 3
      vertex -26.7913 -42.2164 3
      vertex -21.289 -45.2414 3
    endloop
  endfacet
  facet normal 0 0 1
    outer loop
      vertex -29.9589 -36.2141 3
      vertex -26.7913 -42.2164 3
      vertex -25.1839 -39.6834 3
    endloop
  endfacet
  facet normal 0 0 1
    outer loop
      vertex -29.9589 -36.2141 3
      vertex -31.8712 -38.5257 3
      vertex -26.7913 -42.2164 3
    endloop
  endfacet
  facet normal 0 0 1
    outer loop
      vertex -34.2615 -32.1737 3
      vertex -31.8712 -38.5257 3
      vertex -29.9589 -36.2141 3
    endloop
  endfacet
  facet normal 0 0 1
    outer loop
      vertex -34.2615 -32.1737 3
      vertex -36.4484 -34.2274 3
      vertex -31.8712 -38.5257 3
    endloop
  endfacet
  facet normal 0 0 1
    outer loop
      vertex -38.0238 -27.6259 3
      vertex -36.4484 -34.2274 3
      vertex -34.2615 -32.1737 3
    endloop
  endfacet
  facet normal 0 0 1
    outer loop
      vertex -38.0238 -27.6259 3
      vertex -40.4509 -29.3893 3
      vertex -36.4484 -34.2274 3
    endloop
  endfacet
  facet normal 0 0 1
    outer loop
      vertex -41.1864 -22.6424 3
      vertex -40.4509 -29.3893 3
      vertex -38.0238 -27.6259 3
    endloop
  endfacet
  facet normal 0 0 1
    outer loop
      vertex -43.8153 -24.0877 3
      vertex -41.1864 -22.6424 3
      vertex -43.6995 -17.3019 3
    endloop
  endfacet
  facet normal 0 0 1
    outer loop
      vertex -41.1864 -22.6424 3
      vertex -43.8153 -24.0877 3
      vertex -40.4509 -29.3893 3
    endloop
  endfacet
  facet normal 0 0 1
    outer loop
      vertex -46.4888 -18.4062 3
      vertex -43.6995 -17.3019 3
      vertex -45.5234 -11.6884 3
    endloop
  endfacet
  facet normal 0 0 1
    outer loop
      vertex -43.6995 -17.3019 3
      vertex -46.4888 -18.4062 3
      vertex -43.8153 -24.0877 3
    endloop
  endfacet
  facet normal 0 0 1
    outer loop
      vertex -48.4292 -12.4345 3
      vertex -45.5234 -11.6884 3
      vertex -46.6294 -5.89066 3
    endloop
  endfacet
  facet normal -0 0 1
    outer loop
      vertex -47.402 -5 3
      vertex -46.6294 -5.89066 3
      vertex -47 0 3
    endloop
  endfacet
  facet normal 0 0 1
    outer loop
      vertex -47.402 -5 3
      vertex -47 0 3
      vertex -47.402 5 3
    endloop
  endfacet
  facet normal 0 0 1
    outer loop
      vertex -49.6057 -6.26666 3
      vertex -46.6294 -5.89066 3
      vertex -47.402 -5 3
    endloop
  endfacet
  facet normal 0 0 1
    outer loop
      vertex -45.5234 -11.6884 3
      vertex -48.4292 -12.4345 3
      vertex -46.4888 -18.4062 3
    endloop
  endfacet
  facet normal 0 0 1
    outer loop
      vertex -49.6057 -6.26666 3
      vertex -47.402 -5 3
      vertex -49.4216 -5 3
    endloop
  endfacet
  facet normal 0 0 1
    outer loop
      vertex -46.6294 -5.89066 3
      vertex -49.6057 -6.26666 3
      vertex -48.4292 -12.4345 3
    endloop
  endfacet
  facet normal 0 0 1
    outer loop
      vertex -49.4216 5 3
      vertex -50 0 3
      vertex -49.4216 -5 3
    endloop
  endfacet
  facet normal 0 0 1
    outer loop
      vertex -49.4216 -5 3
      vertex -50 0 3
      vertex -49.6057 -6.26666 3
    endloop
  endfacet
  facet normal 0 0 1
    outer loop
      vertex 9.36907 49.1144 3
      vertex 5 47.4216 3
      vertex 8.80692 46.1675 3
    endloop
  endfacet
  facet normal 0 0 1
    outer loop
      vertex 5 47.4216 3
      vertex 2.95115 46.9073 3
      vertex 8.80692 46.1675 3
    endloop
  endfacet
  facet normal 0 0 1
    outer loop
      vertex 5 47.4216 3
      vertex -2.95115 46.9073 3
      vertex 2.95115 46.9073 3
    endloop
  endfacet
  facet normal -0 0 1
    outer loop
      vertex -5 47.4216 3
      vertex -2.95115 46.9073 3
      vertex 5 47.4216 3
    endloop
  endfacet
  facet normal 0 0 1
    outer loop
      vertex -2.95115 46.9073 3
      vertex -5 47.4216 3
      vertex -8.80692 46.1675 3
    endloop
  endfacet
  facet normal -0.587785 0.809017 0
    outer loop
      vertex -26.7913 42.2164 0
      vertex -31.8712 38.5257 3
      vertex -26.7913 42.2164 3
    endloop
  endfacet
  facet normal -0.587785 0.809017 0
    outer loop
      vertex -31.8712 38.5257 3
      vertex -26.7913 42.2164 0
      vertex -31.8712 38.5257 0
    endloop
  endfacet
  facet normal -0.125334 0.992115 0
    outer loop
      vertex -3.13953 49.9013 0
      vertex -9.36907 49.1144 3
      vertex -3.13953 49.9013 3
    endloop
  endfacet
  facet normal -0.125334 0.992115 0
    outer loop
      vertex -9.36907 49.1144 3
      vertex -3.13953 49.9013 0
      vertex -9.36907 49.1144 0
    endloop
  endfacet
  facet normal 0 0 -1
    outer loop
      vertex 47 0 0
      vertex 50 0 0
      vertex 49.6057 -6.26666 0
    endloop
  endfacet
  facet normal 0 0 -1
    outer loop
      vertex 46.6294 -5.89066 0
      vertex 49.6057 -6.26666 0
      vertex 48.4292 -12.4345 0
    endloop
  endfacet
  facet normal 0 0 -1
    outer loop
      vertex 50 0 0
      vertex 47 0 0
      vertex 49.6057 6.26666 0
    endloop
  endfacet
  facet normal 0 0 -1
    outer loop
      vertex 46.6294 5.89066 0
      vertex 49.6057 6.26666 0
      vertex 47 0 0
    endloop
  endfacet
  facet normal 0 0 -1
    outer loop
      vertex 49.6057 -6.26666 0
      vertex 46.6294 -5.89066 0
      vertex 47 0 0
    endloop
  endfacet
  facet normal 0 0 -1
    outer loop
      vertex 45.5234 -11.6884 0
      vertex 48.4292 -12.4345 0
      vertex 46.4888 -18.4062 0
    endloop
  endfacet
  facet normal 0 0 -1
    outer loop
      vertex 48.4292 -12.4345 0
      vertex 45.5234 -11.6884 0
      vertex 46.6294 -5.89066 0
    endloop
  endfacet
  facet normal 0 0 -1
    outer loop
      vertex 43.6995 -17.3019 0
      vertex 46.4888 -18.4062 0
      vertex 43.8153 -24.0877 0
    endloop
  endfacet
  facet normal 0 0 -1
    outer loop
      vertex 46.4888 -18.4062 0
      vertex 43.6995 -17.3019 0
      vertex 45.5234 -11.6884 0
    endloop
  endfacet
  facet normal 0 0 -1
    outer loop
      vertex 43.8153 -24.0877 0
      vertex 41.1864 -22.6424 0
      vertex 43.6995 -17.3019 0
    endloop
  endfacet
  facet normal 0 0 -1
    outer loop
      vertex 40.4509 -29.3893 0
      vertex 41.1864 -22.6424 0
      vertex 43.8153 -24.0877 0
    endloop
  endfacet
  facet normal 0 0 -1
    outer loop
      vertex 40.4509 -29.3893 0
      vertex 38.0238 -27.6259 0
      vertex 41.1864 -22.6424 0
    endloop
  endfacet
  facet normal 0 0 -1
    outer loop
      vertex 36.4484 -34.2274 0
      vertex 38.0238 -27.6259 0
      vertex 40.4509 -29.3893 0
    endloop
  endfacet
  facet normal 0 0 -1
    outer loop
      vertex 36.4484 -34.2274 0
      vertex 34.2615 -32.1737 0
      vertex 38.0238 -27.6259 0
    endloop
  endfacet
  facet normal 0 0 -1
    outer loop
      vertex 31.8712 -38.5257 0
      vertex 34.2615 -32.1737 0
      vertex 36.4484 -34.2274 0
    endloop
  endfacet
  facet normal 0 0 -1
    outer loop
      vertex 31.8712 -38.5257 0
      vertex 29.9589 -36.2141 0
      vertex 34.2615 -32.1737 0
    endloop
  endfacet
  facet normal 0 0 -1
    outer loop
      vertex 26.7913 -42.2164 0
      vertex 29.9589 -36.2141 0
      vertex 31.8712 -38.5257 0
    endloop
  endfacet
  facet normal 0 0 -1
    outer loop
      vertex 26.7913 -42.2164 0
      vertex 25.1839 -39.6834 0
      vertex 29.9589 -36.2141 0
    endloop
  endfacet
  facet normal 0 0 -1
    outer loop
      vertex 21.289 -45.2414 0
      vertex 25.1839 -39.6834 0
      vertex 26.7913 -42.2164 0
    endloop
  endfacet
  facet normal 0 0 -1
    outer loop
      vertex 21.289 -45.2414 0
      vertex 20.0116 -42.5269 0
      vertex 25.1839 -39.6834 0
    endloop
  endfacet
  facet normal 0 0 -1
    outer loop
      vertex 15.4508 -47.5528 0
      vertex 20.0116 -42.5269 0
      vertex 21.289 -45.2414 0
    endloop
  endfacet
  facet normal 0 0 -1
    outer loop
      vertex 15.4508 -47.5528 0
      vertex 14.5238 -44.6997 0
      vertex 20.0116 -42.5269 0
    endloop
  endfacet
  facet normal 0 0 -1
    outer loop
      vertex 9.36907 -49.1144 0
      vertex 14.5238 -44.6997 0
      vertex 15.4508 -47.5528 0
    endloop
  endfacet
  facet normal 0 0 -1
    outer loop
      vertex 9.36907 -49.1144 0
      vertex 8.80692 -46.1675 0
      vertex 14.5238 -44.6997 0
    endloop
  endfacet
  facet normal 0 0 -1
    outer loop
      vertex 3.13953 -49.9013 0
      vertex 8.80692 -46.1675 0
      vertex 9.36907 -49.1144 0
    endloop
  endfacet
  facet normal 0 0 -1
    outer loop
      vertex 3.13953 -49.9013 0
      vertex 2.95115 -46.9073 0
      vertex 8.80692 -46.1675 0
    endloop
  endfacet
  facet normal 0 0 -1
    outer loop
      vertex 3.13953 -49.9013 0
      vertex -2.95115 -46.9073 0
      vertex 2.95115 -46.9073 0
    endloop
  endfacet
  facet normal 0 0 -1
    outer loop
      vertex -3.13953 -49.9013 0
      vertex -2.95115 -46.9073 0
      vertex 3.13953 -49.9013 0
    endloop
  endfacet
  facet normal 0 0 -1
    outer loop
      vertex -3.13953 -49.9013 0
      vertex -8.80692 -46.1675 0
      vertex -2.95115 -46.9073 0
    endloop
  endfacet
  facet normal 0 0 -1
    outer loop
      vertex -9.36907 -49.1144 0
      vertex -8.80692 -46.1675 0
      vertex -3.13953 -49.9013 0
    endloop
  endfacet
  facet normal 0 0 -1
    outer loop
      vertex -9.36907 -49.1144 0
      vertex -14.5238 -44.6997 0
      vertex -8.80692 -46.1675 0
    endloop
  endfacet
  facet normal 0 0 -1
    outer loop
      vertex -15.4508 -47.5528 0
      vertex -14.5238 -44.6997 0
      vertex -9.36907 -49.1144 0
    endloop
  endfacet
  facet normal 0 0 -1
    outer loop
      vertex -15.4508 -47.5528 0
      vertex -20.0116 -42.5269 0
      vertex -14.5238 -44.6997 0
    endloop
  endfacet
  facet normal 0 0 -1
    outer loop
      vertex -21.289 -45.2414 0
      vertex -20.0116 -42.5269 0
      vertex -15.4508 -47.5528 0
    endloop
  endfacet
  facet normal 0 0 -1
    outer loop
      vertex -21.289 -45.2414 0
      vertex -25.1839 -39.6834 0
      vertex -20.0116 -42.5269 0
    endloop
  endfacet
  facet normal 0 0 -1
    outer loop
      vertex -26.7913 -42.2164 0
      vertex -25.1839 -39.6834 0
      vertex -21.289 -45.2414 0
    endloop
  endfacet
  facet normal 0 0 -1
    outer loop
      vertex -26.7913 -42.2164 0
      vertex -29.9589 -36.2141 0
      vertex -25.1839 -39.6834 0
    endloop
  endfacet
  facet normal 0 0 -1
    outer loop
      vertex -31.8712 -38.5257 0
      vertex -29.9589 -36.2141 0
      vertex -26.7913 -42.2164 0
    endloop
  endfacet
  facet normal 0 0 -1
    outer loop
      vertex -31.8712 -38.5257 0
      vertex -34.2615 -32.1737 0
      vertex -29.9589 -36.2141 0
    endloop
  endfacet
  facet normal 0 0 -1
    outer loop
      vertex -36.4484 -34.2274 0
      vertex -34.2615 -32.1737 0
      vertex -31.8712 -38.5257 0
    endloop
  endfacet
  facet normal 0 0 -1
    outer loop
      vertex -36.4484 -34.2274 0
      vertex -38.0238 -27.6259 0
      vertex -34.2615 -32.1737 0
    endloop
  endfacet
  facet normal 0 0 -1
    outer loop
      vertex -40.4509 -29.3893 0
      vertex -38.0238 -27.6259 0
      vertex -36.4484 -34.2274 0
    endloop
  endfacet
  facet normal 0 0 -1
    outer loop
      vertex -40.4509 -29.3893 0
      vertex -41.1864 -22.6424 0
      vertex -38.0238 -27.6259 0
    endloop
  endfacet
  facet normal 0 0 -1
    outer loop
      vertex -43.8153 -24.0877 0
      vertex -41.1864 -22.6424 0
      vertex -40.4509 -29.3893 0
    endloop
  endfacet
  facet normal -0 0 -1
    outer loop
      vertex -41.1864 -22.6424 0
      vertex -43.8153 -24.0877 0
      vertex -43.6995 -17.3019 0
    endloop
  endfacet
  facet normal 0 0 -1
    outer loop
      vertex -46.4888 -18.4062 0
      vertex -43.6995 -17.3019 0
      vertex -43.8153 -24.0877 0
    endloop
  endfacet
  facet normal -0 0 -1
    outer loop
      vertex -43.6995 -17.3019 0
      vertex -46.4888 -18.4062 0
      vertex -45.5234 -11.6884 0
    endloop
  endfacet
  facet normal 0 0 -1
    outer loop
      vertex -48.4292 -12.4345 0
      vertex -45.5234 -11.6884 0
      vertex -46.4888 -18.4062 0
    endloop
  endfacet
  facet normal -0 0 -1
    outer loop
      vertex -45.5234 -11.6884 0
      vertex -48.4292 -12.4345 0
      vertex -46.6294 -5.89066 0
    endloop
  endfacet
  facet normal 0 0 -1
    outer loop
      vertex -49.6057 -6.26666 0
      vertex -46.6294 -5.89066 0
      vertex -48.4292 -12.4345 0
    endloop
  endfacet
  facet normal -0 0 -1
    outer loop
      vertex 49.6057 6.26666 0
      vertex 46.6294 5.89066 0
      vertex 48.4292 12.4345 0
    endloop
  endfacet
  facet normal 0 0 -1
    outer loop
      vertex 45.5234 11.6884 0
      vertex 48.4292 12.4345 0
      vertex 46.6294 5.89066 0
    endloop
  endfacet
  facet normal -0 0 -1
    outer loop
      vertex 48.4292 12.4345 0
      vertex 45.5234 11.6884 0
      vertex 46.4888 18.4062 0
    endloop
  endfacet
  facet normal 0 0 -1
    outer loop
      vertex 43.6995 17.3019 0
      vertex 46.4888 18.4062 0
      vertex 45.5234 11.6884 0
    endloop
  endfacet
  facet normal -0 0 -1
    outer loop
      vertex 46.4888 18.4062 0
      vertex 43.6995 17.3019 0
      vertex 43.8153 24.0877 0
    endloop
  endfacet
  facet normal 0 0 -1
    outer loop
      vertex 41.1864 22.6424 0
      vertex 43.8153 24.0877 0
      vertex 43.6995 17.3019 0
    endloop
  endfacet
  facet normal 0 0 -1
    outer loop
      vertex 41.1864 22.6424 0
      vertex 40.4509 29.3893 0
      vertex 43.8153 24.0877 0
    endloop
  endfacet
  facet normal 0 0 -1
    outer loop
      vertex 38.0238 27.6259 0
      vertex 40.4509 29.3893 0
      vertex 41.1864 22.6424 0
    endloop
  endfacet
  facet normal 0 0 -1
    outer loop
      vertex 38.0238 27.6259 0
      vertex 36.4484 34.2274 0
      vertex 40.4509 29.3893 0
    endloop
  endfacet
  facet normal 0 0 -1
    outer loop
      vertex 34.2615 32.1737 0
      vertex 36.4484 34.2274 0
      vertex 38.0238 27.6259 0
    endloop
  endfacet
  facet normal 0 0 -1
    outer loop
      vertex 34.2615 32.1737 0
      vertex 31.8712 38.5257 0
      vertex 36.4484 34.2274 0
    endloop
  endfacet
  facet normal 0 0 -1
    outer loop
      vertex 29.9589 36.2141 0
      vertex 31.8712 38.5257 0
      vertex 34.2615 32.1737 0
    endloop
  endfacet
  facet normal 0 0 -1
    outer loop
      vertex 29.9589 36.2141 0
      vertex 26.7913 42.2164 0
      vertex 31.8712 38.5257 0
    endloop
  endfacet
  facet normal 0 0 -1
    outer loop
      vertex 25.1839 39.6834 0
      vertex 26.7913 42.2164 0
      vertex 29.9589 36.2141 0
    endloop
  endfacet
  facet normal 0 0 -1
    outer loop
      vertex 25.1839 39.6834 0
      vertex 21.289 45.2414 0
      vertex 26.7913 42.2164 0
    endloop
  endfacet
  facet normal 0 0 -1
    outer loop
      vertex 20.0116 42.5269 0
      vertex 21.289 45.2414 0
      vertex 25.1839 39.6834 0
    endloop
  endfacet
  facet normal 0 0 -1
    outer loop
      vertex 20.0116 42.5269 0
      vertex 15.4508 47.5528 0
      vertex 21.289 45.2414 0
    endloop
  endfacet
  facet normal 0 0 -1
    outer loop
      vertex 14.5238 44.6997 0
      vertex 15.4508 47.5528 0
      vertex 20.0116 42.5269 0
    endloop
  endfacet
  facet normal 0 0 -1
    outer loop
      vertex 14.5238 44.6997 0
      vertex 9.36907 49.1144 0
      vertex 15.4508 47.5528 0
    endloop
  endfacet
  facet normal 0 0 -1
    outer loop
      vertex 8.80692 46.1675 0
      vertex 9.36907 49.1144 0
      vertex 14.5238 44.6997 0
    endloop
  endfacet
  facet normal 0 0 -1
    outer loop
      vertex 8.80692 46.1675 0
      vertex 3.13953 49.9013 0
      vertex 9.36907 49.1144 0
    endloop
  endfacet
  facet normal 0 0 -1
    outer loop
      vertex 2.95115 46.9073 0
      vertex 3.13953 49.9013 0
      vertex 8.80692 46.1675 0
    endloop
  endfacet
  facet normal 0 0 -1
    outer loop
      vertex -2.95115 46.9073 0
      vertex 3.13953 49.9013 0
      vertex 2.95115 46.9073 0
    endloop
  endfacet
  facet normal 0 0 -1
    outer loop
      vertex -2.95115 46.9073 0
      vertex -3.13953 49.9013 0
      vertex 3.13953 49.9013 0
    endloop
  endfacet
  facet normal 0 0 -1
    outer loop
      vertex -8.80692 46.1675 0
      vertex -3.13953 49.9013 0
      vertex -2.95115 46.9073 0
    endloop
  endfacet
  facet normal 0 0 -1
    outer loop
      vertex -8.80692 46.1675 0
      vertex -9.36907 49.1144 0
      vertex -3.13953 49.9013 0
    endloop
  endfacet
  facet normal 0 0 -1
    outer loop
      vertex -14.5238 44.6997 0
      vertex -9.36907 49.1144 0
      vertex -8.80692 46.1675 0
    endloop
  endfacet
  facet normal 0 0 -1
    outer loop
      vertex -14.5238 44.6997 0
      vertex -15.4508 47.5528 0
      vertex -9.36907 49.1144 0
    endloop
  endfacet
  facet normal 0 0 -1
    outer loop
      vertex -20.0116 42.5269 0
      vertex -15.4508 47.5528 0
      vertex -14.5238 44.6997 0
    endloop
  endfacet
  facet normal 0 0 -1
    outer loop
      vertex -20.0116 42.5269 0
      vertex -21.289 45.2414 0
      vertex -15.4508 47.5528 0
    endloop
  endfacet
  facet normal 0 0 -1
    outer loop
      vertex -25.1839 39.6834 0
      vertex -21.289 45.2414 0
      vertex -20.0116 42.5269 0
    endloop
  endfacet
  facet normal 0 0 -1
    outer loop
      vertex -25.1839 39.6834 0
      vertex -26.7913 42.2164 0
      vertex -21.289 45.2414 0
    endloop
  endfacet
  facet normal 0 0 -1
    outer loop
      vertex -29.9589 36.2141 0
      vertex -26.7913 42.2164 0
      vertex -25.1839 39.6834 0
    endloop
  endfacet
  facet normal 0 0 -1
    outer loop
      vertex -29.9589 36.2141 0
      vertex -31.8712 38.5257 0
      vertex -26.7913 42.2164 0
    endloop
  endfacet
  facet normal 0 0 -1
    outer loop
      vertex -34.2615 32.1737 0
      vertex -31.8712 38.5257 0
      vertex -29.9589 36.2141 0
    endloop
  endfacet
  facet normal 0 0 -1
    outer loop
      vertex -34.2615 32.1737 0
      vertex -36.4484 34.2274 0
      vertex -31.8712 38.5257 0
    endloop
  endfacet
  facet normal 0 0 -1
    outer loop
      vertex -38.0238 27.6259 0
      vertex -36.4484 34.2274 0
      vertex -34.2615 32.1737 0
    endloop
  endfacet
  facet normal 0 0 -1
    outer loop
      vertex -38.0238 27.6259 0
      vertex -40.4509 29.3893 0
      vertex -36.4484 34.2274 0
    endloop
  endfacet
  facet normal 0 0 -1
    outer loop
      vertex -41.1864 22.6424 0
      vertex -40.4509 29.3893 0
      vertex -38.0238 27.6259 0
    endloop
  endfacet
  facet normal 0 0 -1
    outer loop
      vertex -43.8153 24.0877 0
      vertex -41.1864 22.6424 0
      vertex -43.6995 17.3019 0
    endloop
  endfacet
  facet normal 0 0 -1
    outer loop
      vertex -41.1864 22.6424 0
      vertex -43.8153 24.0877 0
      vertex -40.4509 29.3893 0
    endloop
  endfacet
  facet normal 0 0 -1
    outer loop
      vertex -46.4888 18.4062 0
      vertex -43.6995 17.3019 0
      vertex -45.5234 11.6884 0
    endloop
  endfacet
  facet normal 0 0 -1
    outer loop
      vertex -43.6995 17.3019 0
      vertex -46.4888 18.4062 0
      vertex -43.8153 24.0877 0
    endloop
  endfacet
  facet normal 0 0 -1
    outer loop
      vertex -48.4292 12.4345 0
      vertex -45.5234 11.6884 0
      vertex -46.6294 5.89066 0
    endloop
  endfacet
  facet normal 0 0 -1
    outer loop
      vertex -49.6057 6.26666 0
      vertex -46.6294 5.89066 0
      vertex -47 0 0
    endloop
  endfacet
  facet normal -0 0 -1
    outer loop
      vertex -46.6294 -5.89066 0
      vertex -49.6057 -6.26666 0
      vertex -47 0 0
    endloop
  endfacet
  facet normal 0 0 -1
    outer loop
      vertex -45.5234 11.6884 0
      vertex -48.4292 12.4345 0
      vertex -46.4888 18.4062 0
    endloop
  endfacet
  facet normal 0 0 -1
    outer loop
      vertex -50 0 0
      vertex -47 0 0
      vertex -49.6057 -6.26666 0
    endloop
  endfacet
  facet normal 0 0 -1
    outer loop
      vertex -46.6294 5.89066 0
      vertex -49.6057 6.26666 0
      vertex -48.4292 12.4345 0
    endloop
  endfacet
  facet normal 0 0 -1
    outer loop
      vertex -47 0 0
      vertex -50 0 0
      vertex -49.6057 6.26666 0
    endloop
  endfacet
  facet normal 0.125334 -0.992115 0
    outer loop
      vertex 3.13953 -49.9013 0
      vertex 9.36907 -49.1144 3
      vertex 3.13953 -49.9013 3
    endloop
  endfacet
  facet normal 0.125334 -0.992115 0
    outer loop
      vertex 9.36907 -49.1144 3
      vertex 3.13953 -49.9013 0
      vertex 9.36907 -49.1144 0
    endloop
  endfacet
  facet normal 0.951056 0.309017 0
    outer loop
      vertex 48.4292 12.4345 3
      vertex 46.4888 18.4062 0
      vertex 46.4888 18.4062 3
    endloop
  endfacet
  facet normal 0.951056 0.309017 0
    outer loop
      vertex 46.4888 18.4062 0
      vertex 48.4292 12.4345 3
      vertex 48.4292 12.4345 0
    endloop
  endfacet
  facet normal 0.982287 0.187382 0
    outer loop
      vertex 49.6057 6.26666 3
      vertex 48.4292 12.4345 0
      vertex 48.4292 12.4345 3
    endloop
  endfacet
  facet normal 0.982287 0.187382 0
    outer loop
      vertex 48.4292 12.4345 0
      vertex 49.6057 6.26666 3
      vertex 49.6057 6.26666 0
    endloop
  endfacet
  facet normal 0.770513 0.637424 0
    outer loop
      vertex 40.4509 29.3893 3
      vertex 36.4484 34.2274 0
      vertex 36.4484 34.2274 3
    endloop
  endfacet
  facet normal 0.770513 0.637424 0
    outer loop
      vertex 36.4484 34.2274 0
      vertex 40.4509 29.3893 3
      vertex 40.4509 29.3893 0
    endloop
  endfacet
  facet normal 0.844328 0.535827 0
    outer loop
      vertex 43.8153 24.0877 3
      vertex 40.4509 29.3893 0
      vertex 40.4509 29.3893 3
    endloop
  endfacet
  facet normal 0.844328 0.535827 0
    outer loop
      vertex 40.4509 29.3893 0
      vertex 43.8153 24.0877 3
      vertex 43.8153 24.0877 0
    endloop
  endfacet
  facet normal 0.125334 0.992115 -0
    outer loop
      vertex 9.36907 49.1144 0
      vertex 3.13953 49.9013 3
      vertex 9.36907 49.1144 3
    endloop
  endfacet
  facet normal 0.125334 0.992115 0
    outer loop
      vertex 3.13953 49.9013 3
      vertex 9.36907 49.1144 0
      vertex 3.13953 49.9013 0
    endloop
  endfacet
  facet normal 0.587785 0.809017 -0
    outer loop
      vertex 31.8712 38.5257 0
      vertex 26.7913 42.2164 3
      vertex 31.8712 38.5257 3
    endloop
  endfacet
  facet normal 0.587785 0.809017 0
    outer loop
      vertex 26.7913 42.2164 3
      vertex 31.8712 38.5257 0
      vertex 26.7913 42.2164 0
    endloop
  endfacet
  facet normal -0.904827 0.425779 0
    outer loop
      vertex -46.4888 18.4062 0
      vertex -43.8153 24.0877 3
      vertex -43.8153 24.0877 0
    endloop
  endfacet
  facet normal -0.904827 0.425779 0
    outer loop
      vertex -43.8153 24.0877 3
      vertex -46.4888 18.4062 0
      vertex -46.4888 18.4062 3
    endloop
  endfacet
  facet normal -0.951056 0.309017 0
    outer loop
      vertex -48.4292 12.4345 0
      vertex -46.4888 18.4062 3
      vertex -46.4888 18.4062 0
    endloop
  endfacet
  facet normal -0.951056 0.309017 0
    outer loop
      vertex -46.4888 18.4062 3
      vertex -48.4292 12.4345 0
      vertex -48.4292 12.4345 3
    endloop
  endfacet
  facet normal -0.982287 0.187382 0
    outer loop
      vertex -49.6057 6.26666 0
      vertex -48.4292 12.4345 3
      vertex -48.4292 12.4345 0
    endloop
  endfacet
  facet normal -0.982287 0.187382 0
    outer loop
      vertex -48.4292 12.4345 3
      vertex -49.6057 6.26666 0
      vertex -49.6057 6.26666 3
    endloop
  endfacet
  facet normal -0.481754 0.876307 0
    outer loop
      vertex -21.289 45.2414 0
      vertex -26.7913 42.2164 3
      vertex -21.289 45.2414 3
    endloop
  endfacet
  facet normal -0.481754 0.876307 0
    outer loop
      vertex -26.7913 42.2164 3
      vertex -21.289 45.2414 0
      vertex -26.7913 42.2164 0
    endloop
  endfacet
  facet normal 0.998027 -0.0627904 0
    outer loop
      vertex 49.6057 -6.26666 3
      vertex 50 0 0
      vertex 50 0 3
    endloop
  endfacet
  facet normal 0.998027 -0.0627904 0
    outer loop
      vertex 50 0 0
      vertex 49.6057 -6.26666 3
      vertex 49.6057 -6.26666 0
    endloop
  endfacet
  facet normal 0.770513 -0.637424 0
    outer loop
      vertex 36.4484 -34.2274 3
      vertex 40.4509 -29.3893 0
      vertex 40.4509 -29.3893 3
    endloop
  endfacet
  facet normal 0.770513 -0.637424 0
    outer loop
      vertex 40.4509 -29.3893 0
      vertex 36.4484 -34.2274 3
      vertex 36.4484 -34.2274 0
    endloop
  endfacet
  facet normal 0.368125 -0.929776 0
    outer loop
      vertex 15.4508 -47.5528 0
      vertex 21.289 -45.2414 3
      vertex 15.4508 -47.5528 3
    endloop
  endfacet
  facet normal 0.368125 -0.929776 0
    outer loop
      vertex 21.289 -45.2414 3
      vertex 15.4508 -47.5528 0
      vertex 21.289 -45.2414 0
    endloop
  endfacet
  facet normal -0.24869 0.968583 0
    outer loop
      vertex -9.36907 49.1144 0
      vertex -15.4508 47.5528 3
      vertex -9.36907 49.1144 3
    endloop
  endfacet
  facet normal -0.24869 0.968583 0
    outer loop
      vertex -15.4508 47.5528 3
      vertex -9.36907 49.1144 0
      vertex -15.4508 47.5528 0
    endloop
  endfacet
  facet normal 0.951056 -0.309017 0
    outer loop
      vertex 46.4888 -18.4062 3
      vertex 48.4292 -12.4345 0
      vertex 48.4292 -12.4345 3
    endloop
  endfacet
  facet normal 0.951056 -0.309017 0
    outer loop
      vertex 48.4292 -12.4345 0
      vertex 46.4888 -18.4062 3
      vertex 46.4888 -18.4062 0
    endloop
  endfacet
  facet normal 0.904827 -0.425779 0
    outer loop
      vertex 43.8153 -24.0877 3
      vertex 46.4888 -18.4062 0
      vertex 46.4888 -18.4062 3
    endloop
  endfacet
  facet normal 0.904827 -0.425779 0
    outer loop
      vertex 46.4888 -18.4062 0
      vertex 43.8153 -24.0877 3
      vertex 43.8153 -24.0877 0
    endloop
  endfacet
  facet normal 0.844328 -0.535827 0
    outer loop
      vertex 40.4509 -29.3893 3
      vertex 43.8153 -24.0877 0
      vertex 43.8153 -24.0877 3
    endloop
  endfacet
  facet normal 0.844328 -0.535827 0
    outer loop
      vertex 43.8153 -24.0877 0
      vertex 40.4509 -29.3893 3
      vertex 40.4509 -29.3893 0
    endloop
  endfacet
  facet normal -0.481754 -0.876307 0
    outer loop
      vertex -26.7913 -42.2164 0
      vertex -21.289 -45.2414 3
      vertex -26.7913 -42.2164 3
    endloop
  endfacet
  facet normal -0.481754 -0.876307 -0
    outer loop
      vertex -21.289 -45.2414 3
      vertex -26.7913 -42.2164 0
      vertex -21.289 -45.2414 0
    endloop
  endfacet
  facet normal -0.368125 -0.929776 0
    outer loop
      vertex -21.289 -45.2414 0
      vertex -15.4508 -47.5528 3
      vertex -21.289 -45.2414 3
    endloop
  endfacet
  facet normal -0.368125 -0.929776 -0
    outer loop
      vertex -15.4508 -47.5528 3
      vertex -21.289 -45.2414 0
      vertex -15.4508 -47.5528 0
    endloop
  endfacet
  facet normal -0.684547 -0.728969 0
    outer loop
      vertex -36.4484 -34.2274 0
      vertex -31.8712 -38.5257 3
      vertex -36.4484 -34.2274 3
    endloop
  endfacet
  facet normal -0.684547 -0.728969 -0
    outer loop
      vertex -31.8712 -38.5257 3
      vertex -36.4484 -34.2274 0
      vertex -31.8712 -38.5257 0
    endloop
  endfacet
  facet normal -0.770513 -0.637424 0
    outer loop
      vertex -36.4484 -34.2274 0
      vertex -40.4509 -29.3893 3
      vertex -40.4509 -29.3893 0
    endloop
  endfacet
  facet normal -0.770513 -0.637424 0
    outer loop
      vertex -40.4509 -29.3893 3
      vertex -36.4484 -34.2274 0
      vertex -36.4484 -34.2274 3
    endloop
  endfacet
  facet normal -0.904827 -0.425779 0
    outer loop
      vertex -43.8153 -24.0877 0
      vertex -46.4888 -18.4062 3
      vertex -46.4888 -18.4062 0
    endloop
  endfacet
  facet normal -0.904827 -0.425779 0
    outer loop
      vertex -46.4888 -18.4062 3
      vertex -43.8153 -24.0877 0
      vertex -43.8153 -24.0877 3
    endloop
  endfacet
  facet normal -0.998027 -0.0627904 0
    outer loop
      vertex -49.6057 -6.26666 0
      vertex -50 0 3
      vertex -50 0 0
    endloop
  endfacet
  facet normal -0.998027 -0.0627904 0
    outer loop
      vertex -50 0 3
      vertex -49.6057 -6.26666 0
      vertex -49.6057 -6.26666 3
    endloop
  endfacet
  facet normal -0.982287 -0.187382 0
    outer loop
      vertex -48.4292 -12.4345 0
      vertex -49.6057 -6.26666 3
      vertex -49.6057 -6.26666 0
    endloop
  endfacet
  facet normal -0.982287 -0.187382 0
    outer loop
      vertex -49.6057 -6.26666 3
      vertex -48.4292 -12.4345 0
      vertex -48.4292 -12.4345 3
    endloop
  endfacet
  facet normal -0.951056 -0.309017 0
    outer loop
      vertex -46.4888 -18.4062 0
      vertex -48.4292 -12.4345 3
      vertex -48.4292 -12.4345 0
    endloop
  endfacet
  facet normal -0.951056 -0.309017 0
    outer loop
      vertex -48.4292 -12.4345 3
      vertex -46.4888 -18.4062 0
      vertex -46.4888 -18.4062 3
    endloop
  endfacet
  facet normal 0.684547 -0.728969 0
    outer loop
      vertex 31.8712 -38.5257 0
      vertex 36.4484 -34.2274 3
      vertex 31.8712 -38.5257 3
    endloop
  endfacet
  facet normal 0.684547 -0.728969 0
    outer loop
      vertex 36.4484 -34.2274 3
      vertex 31.8712 -38.5257 0
      vertex 36.4484 -34.2274 0
    endloop
  endfacet
  facet normal 0.481754 -0.876307 0
    outer loop
      vertex 21.289 -45.2414 0
      vertex 26.7913 -42.2164 3
      vertex 21.289 -45.2414 3
    endloop
  endfacet
  facet normal 0.481754 -0.876307 0
    outer loop
      vertex 26.7913 -42.2164 3
      vertex 21.289 -45.2414 0
      vertex 26.7913 -42.2164 0
    endloop
  endfacet
  facet normal 0.24869 -0.968583 0
    outer loop
      vertex 9.36907 -49.1144 0
      vertex 15.4508 -47.5528 3
      vertex 9.36907 -49.1144 3
    endloop
  endfacet
  facet normal 0.24869 -0.968583 0
    outer loop
      vertex 15.4508 -47.5528 3
      vertex 9.36907 -49.1144 0
      vertex 15.4508 -47.5528 0
    endloop
  endfacet
  facet normal 0.982287 -0.187382 0
    outer loop
      vertex 48.4292 -12.4345 3
      vertex 49.6057 -6.26666 0
      vertex 49.6057 -6.26666 3
    endloop
  endfacet
  facet normal 0.982287 -0.187382 0
    outer loop
      vertex 49.6057 -6.26666 0
      vertex 48.4292 -12.4345 3
      vertex 48.4292 -12.4345 0
    endloop
  endfacet
  facet normal -0.587785 -0.809017 0
    outer loop
      vertex -31.8712 -38.5257 0
      vertex -26.7913 -42.2164 3
      vertex -31.8712 -38.5257 3
    endloop
  endfacet
  facet normal -0.587785 -0.809017 -0
    outer loop
      vertex -26.7913 -42.2164 3
      vertex -31.8712 -38.5257 0
      vertex -26.7913 -42.2164 0
    endloop
  endfacet
  facet normal -0.844328 -0.535827 0
    outer loop
      vertex -40.4509 -29.3893 0
      vertex -43.8153 -24.0877 3
      vertex -43.8153 -24.0877 0
    endloop
  endfacet
  facet normal -0.844328 -0.535827 0
    outer loop
      vertex -43.8153 -24.0877 3
      vertex -40.4509 -29.3893 0
      vertex -40.4509 -29.3893 3
    endloop
  endfacet
  facet normal 0.587785 -0.809017 0
    outer loop
      vertex 26.7913 -42.2164 0
      vertex 31.8712 -38.5257 3
      vertex 26.7913 -42.2164 3
    endloop
  endfacet
  facet normal 0.587785 -0.809017 0
    outer loop
      vertex 31.8712 -38.5257 3
      vertex 26.7913 -42.2164 0
      vertex 31.8712 -38.5257 0
    endloop
  endfacet
  facet normal -0.24869 -0.968583 0
    outer loop
      vertex -15.4508 -47.5528 0
      vertex -9.36907 -49.1144 3
      vertex -15.4508 -47.5528 3
    endloop
  endfacet
  facet normal -0.24869 -0.968583 -0
    outer loop
      vertex -9.36907 -49.1144 3
      vertex -15.4508 -47.5528 0
      vertex -9.36907 -49.1144 0
    endloop
  endfacet
  facet normal -0.125334 -0.992115 0
    outer loop
      vertex -9.36907 -49.1144 0
      vertex -3.13953 -49.9013 3
      vertex -9.36907 -49.1144 3
    endloop
  endfacet
  facet normal -0.125334 -0.992115 -0
    outer loop
      vertex -3.13953 -49.9013 3
      vertex -9.36907 -49.1144 0
      vertex -3.13953 -49.9013 0
    endloop
  endfacet
  facet normal -0.998027 -0.0627906 0
    outer loop
      vertex 47 0 0
      vertex 46.6294 5.89066 3
      vertex 46.6294 5.89066 0
    endloop
  endfacet
  facet normal -0.998027 -0.0627906 0
    outer loop
      vertex 46.6294 5.89066 3
      vertex 47 0 0
      vertex 47 0 3
    endloop
  endfacet
  facet normal 0.998027 -0.0627906 0
    outer loop
      vertex -47 0 3
      vertex -46.6294 5.89066 0
      vertex -46.6294 5.89066 3
    endloop
  endfacet
  facet normal 0.998027 -0.0627906 0
    outer loop
      vertex -46.6294 5.89066 0
      vertex -47 0 3
      vertex -47 0 0
    endloop
  endfacet
  facet normal 0 -1 0
    outer loop
      vertex -2.95115 46.9073 0
      vertex 2.95115 46.9073 3
      vertex -2.95115 46.9073 3
    endloop
  endfacet
  facet normal 0 -1 -0
    outer loop
      vertex 2.95115 46.9073 3
      vertex -2.95115 46.9073 0
      vertex 2.95115 46.9073 0
    endloop
  endfacet
  facet normal 0 1 -0
    outer loop
      vertex 2.95115 -46.9073 0
      vertex -2.95115 -46.9073 3
      vertex 2.95115 -46.9073 3
    endloop
  endfacet
  facet normal 0 1 0
    outer loop
      vertex -2.95115 -46.9073 3
      vertex 2.95115 -46.9073 0
      vertex -2.95115 -46.9073 0
    endloop
  endfacet
  facet normal -0.684547 0.728968 0
    outer loop
      vertex 34.2615 -32.1737 0
      vertex 29.9589 -36.2141 3
      vertex 34.2615 -32.1737 3
    endloop
  endfacet
  facet normal -0.684547 0.728968 0
    outer loop
      vertex 29.9589 -36.2141 3
      vertex 34.2615 -32.1737 0
      vertex 29.9589 -36.2141 0
    endloop
  endfacet
  facet normal -0.684547 -0.728968 0
    outer loop
      vertex 29.9589 36.2141 0
      vertex 34.2615 32.1737 3
      vertex 29.9589 36.2141 3
    endloop
  endfacet
  facet normal -0.684547 -0.728968 -0
    outer loop
      vertex 34.2615 32.1737 3
      vertex 29.9589 36.2141 0
      vertex 34.2615 32.1737 0
    endloop
  endfacet
  facet normal 0.684547 -0.728968 0
    outer loop
      vertex -34.2615 32.1737 0
      vertex -29.9589 36.2141 3
      vertex -34.2615 32.1737 3
    endloop
  endfacet
  facet normal 0.684547 -0.728968 0
    outer loop
      vertex -29.9589 36.2141 3
      vertex -34.2615 32.1737 0
      vertex -29.9589 36.2141 0
    endloop
  endfacet
  facet normal 0.368124 -0.929777 0
    outer loop
      vertex -20.0116 42.5269 0
      vertex -14.5238 44.6997 3
      vertex -20.0116 42.5269 3
    endloop
  endfacet
  facet normal 0.368124 -0.929777 0
    outer loop
      vertex -14.5238 44.6997 3
      vertex -20.0116 42.5269 0
      vertex -14.5238 44.6997 0
    endloop
  endfacet
  facet normal -0.904827 -0.425779 0
    outer loop
      vertex 43.6995 17.3019 0
      vertex 41.1864 22.6424 3
      vertex 41.1864 22.6424 0
    endloop
  endfacet
  facet normal -0.904827 -0.425779 0
    outer loop
      vertex 41.1864 22.6424 3
      vertex 43.6995 17.3019 0
      vertex 43.6995 17.3019 3
    endloop
  endfacet
  facet normal -0.982287 -0.187382 0
    outer loop
      vertex 46.6294 5.89066 0
      vertex 45.5234 11.6884 3
      vertex 45.5234 11.6884 0
    endloop
  endfacet
  facet normal -0.982287 -0.187382 0
    outer loop
      vertex 45.5234 11.6884 3
      vertex 46.6294 5.89066 0
      vertex 46.6294 5.89066 3
    endloop
  endfacet
  facet normal -0.368124 -0.929777 0
    outer loop
      vertex 14.5238 44.6997 0
      vertex 20.0116 42.5269 3
      vertex 14.5238 44.6997 3
    endloop
  endfacet
  facet normal -0.368124 -0.929777 -0
    outer loop
      vertex 20.0116 42.5269 3
      vertex 14.5238 44.6997 0
      vertex 20.0116 42.5269 0
    endloop
  endfacet
  facet normal -0.24869 -0.968583 0
    outer loop
      vertex 8.80692 46.1675 0
      vertex 14.5238 44.6997 3
      vertex 8.80692 46.1675 3
    endloop
  endfacet
  facet normal -0.24869 -0.968583 -0
    outer loop
      vertex 14.5238 44.6997 3
      vertex 8.80692 46.1675 0
      vertex 14.5238 44.6997 0
    endloop
  endfacet
  facet normal -0.481754 -0.876307 0
    outer loop
      vertex 20.0116 42.5269 0
      vertex 25.1839 39.6834 3
      vertex 20.0116 42.5269 3
    endloop
  endfacet
  facet normal -0.481754 -0.876307 -0
    outer loop
      vertex 25.1839 39.6834 3
      vertex 20.0116 42.5269 0
      vertex 25.1839 39.6834 0
    endloop
  endfacet
  facet normal 0.904827 -0.425779 0
    outer loop
      vertex -43.6995 17.3019 3
      vertex -41.1864 22.6424 0
      vertex -41.1864 22.6424 3
    endloop
  endfacet
  facet normal 0.904827 -0.425779 0
    outer loop
      vertex -41.1864 22.6424 0
      vertex -43.6995 17.3019 3
      vertex -43.6995 17.3019 0
    endloop
  endfacet
  facet normal 0.844328 -0.535827 0
    outer loop
      vertex -41.1864 22.6424 3
      vertex -38.0238 27.6259 0
      vertex -38.0238 27.6259 3
    endloop
  endfacet
  facet normal 0.844328 -0.535827 0
    outer loop
      vertex -38.0238 27.6259 0
      vertex -41.1864 22.6424 3
      vertex -41.1864 22.6424 0
    endloop
  endfacet
  facet normal 0.587785 -0.809017 0
    outer loop
      vertex -29.9589 36.2141 0
      vertex -25.1839 39.6834 3
      vertex -29.9589 36.2141 3
    endloop
  endfacet
  facet normal 0.587785 -0.809017 0
    outer loop
      vertex -25.1839 39.6834 3
      vertex -29.9589 36.2141 0
      vertex -25.1839 39.6834 0
    endloop
  endfacet
  facet normal 0.125334 -0.992115 0
    outer loop
      vertex -8.80692 46.1675 0
      vertex -2.95115 46.9073 3
      vertex -8.80692 46.1675 3
    endloop
  endfacet
  facet normal 0.125334 -0.992115 0
    outer loop
      vertex -2.95115 46.9073 3
      vertex -8.80692 46.1675 0
      vertex -2.95115 46.9073 0
    endloop
  endfacet
  facet normal -0.125334 0.992115 0
    outer loop
      vertex 8.80692 -46.1675 0
      vertex 2.95115 -46.9073 3
      vertex 8.80692 -46.1675 3
    endloop
  endfacet
  facet normal -0.125334 0.992115 0
    outer loop
      vertex 2.95115 -46.9073 3
      vertex 8.80692 -46.1675 0
      vertex 2.95115 -46.9073 0
    endloop
  endfacet
  facet normal -0.951057 -0.309017 0
    outer loop
      vertex 45.5234 11.6884 0
      vertex 43.6995 17.3019 3
      vertex 43.6995 17.3019 0
    endloop
  endfacet
  facet normal -0.951057 -0.309017 0
    outer loop
      vertex 43.6995 17.3019 3
      vertex 45.5234 11.6884 0
      vertex 45.5234 11.6884 3
    endloop
  endfacet
  facet normal -0.770513 -0.637424 0
    outer loop
      vertex 38.0238 27.6259 0
      vertex 34.2615 32.1737 3
      vertex 34.2615 32.1737 0
    endloop
  endfacet
  facet normal -0.770513 -0.637424 0
    outer loop
      vertex 34.2615 32.1737 3
      vertex 38.0238 27.6259 0
      vertex 38.0238 27.6259 3
    endloop
  endfacet
  facet normal -0.844328 -0.535827 0
    outer loop
      vertex 41.1864 22.6424 0
      vertex 38.0238 27.6259 3
      vertex 38.0238 27.6259 0
    endloop
  endfacet
  facet normal -0.844328 -0.535827 0
    outer loop
      vertex 38.0238 27.6259 3
      vertex 41.1864 22.6424 0
      vertex 41.1864 22.6424 3
    endloop
  endfacet
  facet normal -0.125334 -0.992115 0
    outer loop
      vertex 2.95115 46.9073 0
      vertex 8.80692 46.1675 3
      vertex 2.95115 46.9073 3
    endloop
  endfacet
  facet normal -0.125334 -0.992115 -0
    outer loop
      vertex 8.80692 46.1675 3
      vertex 2.95115 46.9073 0
      vertex 8.80692 46.1675 0
    endloop
  endfacet
  facet normal -0.587785 -0.809017 0
    outer loop
      vertex 25.1839 39.6834 0
      vertex 29.9589 36.2141 3
      vertex 25.1839 39.6834 3
    endloop
  endfacet
  facet normal -0.587785 -0.809017 -0
    outer loop
      vertex 29.9589 36.2141 3
      vertex 25.1839 39.6834 0
      vertex 29.9589 36.2141 0
    endloop
  endfacet
  facet normal 0.982287 -0.187382 0
    outer loop
      vertex -46.6294 5.89066 3
      vertex -45.5234 11.6884 0
      vertex -45.5234 11.6884 3
    endloop
  endfacet
  facet normal 0.982287 -0.187382 0
    outer loop
      vertex -45.5234 11.6884 0
      vertex -46.6294 5.89066 3
      vertex -46.6294 5.89066 0
    endloop
  endfacet
  facet normal 0.481754 -0.876307 0
    outer loop
      vertex -25.1839 39.6834 0
      vertex -20.0116 42.5269 3
      vertex -25.1839 39.6834 3
    endloop
  endfacet
  facet normal 0.481754 -0.876307 0
    outer loop
      vertex -20.0116 42.5269 3
      vertex -25.1839 39.6834 0
      vertex -20.0116 42.5269 0
    endloop
  endfacet
  facet normal -0.904827 0.425779 0
    outer loop
      vertex 41.1864 -22.6424 0
      vertex 43.6995 -17.3019 3
      vertex 43.6995 -17.3019 0
    endloop
  endfacet
  facet normal -0.904827 0.425779 0
    outer loop
      vertex 43.6995 -17.3019 3
      vertex 41.1864 -22.6424 0
      vertex 41.1864 -22.6424 3
    endloop
  endfacet
  facet normal 0.481754 0.876307 -0
    outer loop
      vertex -20.0116 -42.5269 0
      vertex -25.1839 -39.6834 3
      vertex -20.0116 -42.5269 3
    endloop
  endfacet
  facet normal 0.481754 0.876307 0
    outer loop
      vertex -25.1839 -39.6834 3
      vertex -20.0116 -42.5269 0
      vertex -25.1839 -39.6834 0
    endloop
  endfacet
  facet normal 0.904827 0.425779 0
    outer loop
      vertex -41.1864 -22.6424 3
      vertex -43.6995 -17.3019 0
      vertex -43.6995 -17.3019 3
    endloop
  endfacet
  facet normal 0.904827 0.425779 0
    outer loop
      vertex -43.6995 -17.3019 0
      vertex -41.1864 -22.6424 3
      vertex -41.1864 -22.6424 0
    endloop
  endfacet
  facet normal -0.587785 0.809017 0
    outer loop
      vertex 29.9589 -36.2141 0
      vertex 25.1839 -39.6834 3
      vertex 29.9589 -36.2141 3
    endloop
  endfacet
  facet normal -0.587785 0.809017 0
    outer loop
      vertex 25.1839 -39.6834 3
      vertex 29.9589 -36.2141 0
      vertex 25.1839 -39.6834 0
    endloop
  endfacet
  facet normal -0.368124 0.929777 0
    outer loop
      vertex 20.0116 -42.5269 0
      vertex 14.5238 -44.6997 3
      vertex 20.0116 -42.5269 3
    endloop
  endfacet
  facet normal -0.368124 0.929777 0
    outer loop
      vertex 14.5238 -44.6997 3
      vertex 20.0116 -42.5269 0
      vertex 14.5238 -44.6997 0
    endloop
  endfacet
  facet normal 0.770513 -0.637424 0
    outer loop
      vertex -38.0238 27.6259 3
      vertex -34.2615 32.1737 0
      vertex -34.2615 32.1737 3
    endloop
  endfacet
  facet normal 0.770513 -0.637424 0
    outer loop
      vertex -34.2615 32.1737 0
      vertex -38.0238 27.6259 3
      vertex -38.0238 27.6259 0
    endloop
  endfacet
  facet normal 0.951057 -0.309017 0
    outer loop
      vertex -45.5234 11.6884 3
      vertex -43.6995 17.3019 0
      vertex -43.6995 17.3019 3
    endloop
  endfacet
  facet normal 0.951057 -0.309017 0
    outer loop
      vertex -43.6995 17.3019 0
      vertex -45.5234 11.6884 3
      vertex -45.5234 11.6884 0
    endloop
  endfacet
  facet normal 0.24869 -0.968583 0
    outer loop
      vertex -14.5238 44.6997 0
      vertex -8.80692 46.1675 3
      vertex -14.5238 44.6997 3
    endloop
  endfacet
  facet normal 0.24869 -0.968583 0
    outer loop
      vertex -8.80692 46.1675 3
      vertex -14.5238 44.6997 0
      vertex -8.80692 46.1675 0
    endloop
  endfacet
  facet normal -0.770513 0.637424 0
    outer loop
      vertex 34.2615 -32.1737 0
      vertex 38.0238 -27.6259 3
      vertex 38.0238 -27.6259 0
    endloop
  endfacet
  facet normal -0.770513 0.637424 0
    outer loop
      vertex 38.0238 -27.6259 3
      vertex 34.2615 -32.1737 0
      vertex 34.2615 -32.1737 3
    endloop
  endfacet
  facet normal -0.951057 0.309017 0
    outer loop
      vertex 43.6995 -17.3019 0
      vertex 45.5234 -11.6884 3
      vertex 45.5234 -11.6884 0
    endloop
  endfacet
  facet normal -0.951057 0.309017 0
    outer loop
      vertex 45.5234 -11.6884 3
      vertex 43.6995 -17.3019 0
      vertex 43.6995 -17.3019 3
    endloop
  endfacet
  facet normal -0.982287 0.187382 0
    outer loop
      vertex 45.5234 -11.6884 0
      vertex 46.6294 -5.89066 3
      vertex 46.6294 -5.89066 0
    endloop
  endfacet
  facet normal -0.982287 0.187382 0
    outer loop
      vertex 46.6294 -5.89066 3
      vertex 45.5234 -11.6884 0
      vertex 45.5234 -11.6884 3
    endloop
  endfacet
  facet normal -0.998027 0.0627906 0
    outer loop
      vertex 46.6294 -5.89066 0
      vertex 47 0 3
      vertex 47 0 0
    endloop
  endfacet
  facet normal -0.998027 0.0627906 0
    outer loop
      vertex 47 0 3
      vertex 46.6294 -5.89066 0
      vertex 46.6294 -5.89066 3
    endloop
  endfacet
  facet normal 0.684547 0.728968 -0
    outer loop
      vertex -29.9589 -36.2141 0
      vertex -34.2615 -32.1737 3
      vertex -29.9589 -36.2141 3
    endloop
  endfacet
  facet normal 0.684547 0.728968 0
    outer loop
      vertex -34.2615 -32.1737 3
      vertex -29.9589 -36.2141 0
      vertex -34.2615 -32.1737 0
    endloop
  endfacet
  facet normal 0.998027 0.0627906 0
    outer loop
      vertex -46.6294 -5.89066 3
      vertex -47 0 0
      vertex -47 0 3
    endloop
  endfacet
  facet normal 0.998027 0.0627906 0
    outer loop
      vertex -47 0 0
      vertex -46.6294 -5.89066 3
      vertex -46.6294 -5.89066 0
    endloop
  endfacet
  facet normal 0.982287 0.187382 0
    outer loop
      vertex -45.5234 -11.6884 3
      vertex -46.6294 -5.89066 0
      vertex -46.6294 -5.89066 3
    endloop
  endfacet
  facet normal 0.982287 0.187382 0
    outer loop
      vertex -46.6294 -5.89066 0
      vertex -45.5234 -11.6884 3
      vertex -45.5234 -11.6884 0
    endloop
  endfacet
  facet normal 0.951057 0.309017 0
    outer loop
      vertex -43.6995 -17.3019 3
      vertex -45.5234 -11.6884 0
      vertex -45.5234 -11.6884 3
    endloop
  endfacet
  facet normal 0.951057 0.309017 0
    outer loop
      vertex -45.5234 -11.6884 0
      vertex -43.6995 -17.3019 3
      vertex -43.6995 -17.3019 0
    endloop
  endfacet
  facet normal -0.481754 0.876307 0
    outer loop
      vertex 25.1839 -39.6834 0
      vertex 20.0116 -42.5269 3
      vertex 25.1839 -39.6834 3
    endloop
  endfacet
  facet normal -0.481754 0.876307 0
    outer loop
      vertex 20.0116 -42.5269 3
      vertex 25.1839 -39.6834 0
      vertex 20.0116 -42.5269 0
    endloop
  endfacet
  facet normal -0.24869 0.968583 0
    outer loop
      vertex 14.5238 -44.6997 0
      vertex 8.80692 -46.1675 3
      vertex 14.5238 -44.6997 3
    endloop
  endfacet
  facet normal -0.24869 0.968583 0
    outer loop
      vertex 8.80692 -46.1675 3
      vertex 14.5238 -44.6997 0
      vertex 8.80692 -46.1675 0
    endloop
  endfacet
  facet normal -0.844328 0.535827 0
    outer loop
      vertex 38.0238 -27.6259 0
      vertex 41.1864 -22.6424 3
      vertex 41.1864 -22.6424 0
    endloop
  endfacet
  facet normal -0.844328 0.535827 0
    outer loop
      vertex 41.1864 -22.6424 3
      vertex 38.0238 -27.6259 0
      vertex 38.0238 -27.6259 3
    endloop
  endfacet
  facet normal 0.125334 0.992115 -0
    outer loop
      vertex -2.95115 -46.9073 0
      vertex -8.80692 -46.1675 3
      vertex -2.95115 -46.9073 3
    endloop
  endfacet
  facet normal 0.125334 0.992115 0
    outer loop
      vertex -8.80692 -46.1675 3
      vertex -2.95115 -46.9073 0
      vertex -8.80692 -46.1675 0
    endloop
  endfacet
  facet normal 0.587785 0.809017 -0
    outer loop
      vertex -25.1839 -39.6834 0
      vertex -29.9589 -36.2141 3
      vertex -25.1839 -39.6834 3
    endloop
  endfacet
  facet normal 0.587785 0.809017 0
    outer loop
      vertex -29.9589 -36.2141 3
      vertex -25.1839 -39.6834 0
      vertex -29.9589 -36.2141 0
    endloop
  endfacet
  facet normal 0.770513 0.637424 0
    outer loop
      vertex -34.2615 -32.1737 3
      vertex -38.0238 -27.6259 0
      vertex -38.0238 -27.6259 3
    endloop
  endfacet
  facet normal 0.770513 0.637424 0
    outer loop
      vertex -38.0238 -27.6259 0
      vertex -34.2615 -32.1737 3
      vertex -34.2615 -32.1737 0
    endloop
  endfacet
  facet normal 0.844328 0.535827 0
    outer loop
      vertex -38.0238 -27.6259 3
      vertex -41.1864 -22.6424 0
      vertex -41.1864 -22.6424 3
    endloop
  endfacet
  facet normal 0.844328 0.535827 0
    outer loop
      vertex -41.1864 -22.6424 0
      vertex -38.0238 -27.6259 3
      vertex -38.0238 -27.6259 0
    endloop
  endfacet
  facet normal 0.24869 0.968583 -0
    outer loop
      vertex -8.80692 -46.1675 0
      vertex -14.5238 -44.6997 3
      vertex -8.80692 -46.1675 3
    endloop
  endfacet
  facet normal 0.24869 0.968583 0
    outer loop
      vertex -14.5238 -44.6997 3
      vertex -8.80692 -46.1675 0
      vertex -14.5238 -44.6997 0
    endloop
  endfacet
  facet normal 0.368124 0.929777 -0
    outer loop
      vertex -14.5238 -44.6997 0
      vertex -20.0116 -42.5269 3
      vertex -14.5238 -44.6997 3
    endloop
  endfacet
  facet normal 0.368124 0.929777 0
    outer loop
      vertex -20.0116 -42.5269 3
      vertex -14.5238 -44.6997 0
      vertex -20.0116 -42.5269 0
    endloop
  endfacet
  facet normal 0.990268 -0 0.139173
    outer loop
      vertex -48.4112 -5 10.181
      vertex -47.402 5 3
      vertex -48.4112 5 10.181
    endloop
  endfacet
  facet normal 0.990268 0 0.139173
    outer loop
      vertex -47.402 5 3
      vertex -48.4112 -5 10.181
      vertex -47.402 -5 3
    endloop
  endfacet
  facet normal -0.139173 0 0.990268
    outer loop
      vertex -50.3917 5 9.90268
      vertex -48.4112 -5 10.181
      vertex -48.4112 5 10.181
    endloop
  endfacet
  facet normal -0.139173 0 0.990268
    outer loop
      vertex -48.4112 -5 10.181
      vertex -50.3917 5 9.90268
      vertex -50.3917 -5 9.90268
    endloop
  endfacet
  facet normal 0 -1 0
    outer loop
      vertex -49.4216 -5 3
      vertex -48.4112 -5 10.181
      vertex -50.3917 -5 9.90268
    endloop
  endfacet
  facet normal 0 -1 -0
    outer loop
      vertex -48.4112 -5 10.181
      vertex -49.4216 -5 3
      vertex -47.402 -5 3
    endloop
  endfacet
  facet normal -0.990268 0 -0.139173
    outer loop
      vertex -49.4216 -5 3
      vertex -50.3917 5 9.90268
      vertex -49.4216 5 3
    endloop
  endfacet
  facet normal -0.990268 -0 -0.139173
    outer loop
      vertex -50.3917 5 9.90268
      vertex -49.4216 -5 3
      vertex -50.3917 -5 9.90268
    endloop
  endfacet
  facet normal 0 1 0
    outer loop
      vertex -49.4216 5 3
      vertex -48.4112 5 10.181
      vertex -47.402 5 3
    endloop
  endfacet
  facet normal 0 1 0
    outer loop
      vertex -48.4112 5 10.181
      vertex -49.4216 5 3
      vertex -50.3917 5 9.90268
    endloop
  endfacet
  facet normal 0.139173 0 0.990268
    outer loop
      vertex 48.3917 5 9.90268
      vertex 50.3723 -5 9.62433
      vertex 50.3723 5 9.62433
    endloop
  endfacet
  facet normal 0.139173 0 0.990268
    outer loop
      vertex 50.3723 -5 9.62433
      vertex 48.3917 5 9.90268
      vertex 48.3917 -5 9.90268
    endloop
  endfacet
  facet normal 0.990268 0 -0.139173
    outer loop
      vertex 50.3723 -5 9.62433
      vertex 49.4413 5 3
      vertex 50.3723 5 9.62433
    endloop
  endfacet
  facet normal 0.990268 0 -0.139173
    outer loop
      vertex 49.4413 5 3
      vertex 50.3723 -5 9.62433
      vertex 49.4413 -5 3
    endloop
  endfacet
  facet normal 0 -1 0
    outer loop
      vertex 49.4413 -5 3
      vertex 48.3917 -5 9.90268
      vertex 47.4216 -5 3
    endloop
  endfacet
  facet normal 0 -1 0
    outer loop
      vertex 48.3917 -5 9.90268
      vertex 49.4413 -5 3
      vertex 50.3723 -5 9.62433
    endloop
  endfacet
  facet normal -0.990268 0 0.139173
    outer loop
      vertex 47.4216 -5 3
      vertex 48.3917 5 9.90268
      vertex 47.4216 5 3
    endloop
  endfacet
  facet normal -0.990268 0 0.139173
    outer loop
      vertex 48.3917 5 9.90268
      vertex 47.4216 -5 3
      vertex 48.3917 -5 9.90268
    endloop
  endfacet
  facet normal 0 1 -0
    outer loop
      vertex 49.4413 5 3
      vertex 48.3917 5 9.90268
      vertex 50.3723 5 9.62433
    endloop
  endfacet
  facet normal 0 1 0
    outer loop
      vertex 48.3917 5 9.90268
      vertex 49.4413 5 3
      vertex 47.4216 5 3
    endloop
  endfacet
  facet normal -1 0 0
    outer loop
      vertex -5 -49.4216 3
      vertex -5 -48.4112 10.181
      vertex -5 -47.402 3
    endloop
  endfacet
  facet normal -1 0 0
    outer loop
      vertex -5 -48.4112 10.181
      vertex -5 -49.4216 3
      vertex -5 -50.3917 9.90268
    endloop
  endfacet
  facet normal 0 -0.139173 0.990268
    outer loop
      vertex -5 -48.4112 10.181
      vertex 5 -50.3917 9.90268
      vertex 5 -48.4112 10.181
    endloop
  endfacet
  facet normal 0 -0.139173 0.990268
    outer loop
      vertex 5 -50.3917 9.90268
      vertex -5 -48.4112 10.181
      vertex -5 -50.3917 9.90268
    endloop
  endfacet
  facet normal 1 0 0
    outer loop
      vertex 5 -48.4112 10.181
      vertex 5 -49.4216 3
      vertex 5 -47.402 3
    endloop
  endfacet
  facet normal 1 0 -0
    outer loop
      vertex 5 -49.4216 3
      vertex 5 -48.4112 10.181
      vertex 5 -50.3917 9.90268
    endloop
  endfacet
  facet normal 0 0.990268 0.139173
    outer loop
      vertex 5 -47.402 3
      vertex -5 -48.4112 10.181
      vertex 5 -48.4112 10.181
    endloop
  endfacet
  facet normal 0 0.990268 0.139173
    outer loop
      vertex -5 -48.4112 10.181
      vertex 5 -47.402 3
      vertex -5 -47.402 3
    endloop
  endfacet
  facet normal 0 -0.990268 -0.139173
    outer loop
      vertex -5 -49.4216 3
      vertex 5 -50.3917 9.90268
      vertex -5 -50.3917 9.90268
    endloop
  endfacet
  facet normal 0 -0.990268 -0.139173
    outer loop
      vertex 5 -50.3917 9.90268
      vertex -5 -49.4216 3
      vertex 5 -49.4216 3
    endloop
  endfacet
  facet normal -1 0 0
    outer loop
      vertex -5 49.4413 3
      vertex -5 48.3917 9.90268
      vertex -5 50.3723 9.62433
    endloop
  endfacet
  facet normal -1 0 -0
    outer loop
      vertex -5 48.3917 9.90268
      vertex -5 49.4413 3
      vertex -5 47.4216 3
    endloop
  endfacet
  facet normal -0 0.139173 0.990268
    outer loop
      vertex -5 50.3723 9.62433
      vertex 5 48.3917 9.90268
      vertex 5 50.3723 9.62433
    endloop
  endfacet
  facet normal 0 0.139173 0.990268
    outer loop
      vertex 5 48.3917 9.90268
      vertex -5 50.3723 9.62433
      vertex -5 48.3917 9.90268
    endloop
  endfacet
  facet normal 1 0 0
    outer loop
      vertex 5 48.3917 9.90268
      vertex 5 49.4413 3
      vertex 5 50.3723 9.62433
    endloop
  endfacet
  facet normal 1 0 0
    outer loop
      vertex 5 49.4413 3
      vertex 5 48.3917 9.90268
      vertex 5 47.4216 3
    endloop
  endfacet
  facet normal 0 0.990268 -0.139173
    outer loop
      vertex 5 49.4413 3
      vertex -5 50.3723 9.62433
      vertex 5 50.3723 9.62433
    endloop
  endfacet
  facet normal 0 0.990268 -0.139173
    outer loop
      vertex -5 50.3723 9.62433
      vertex 5 49.4413 3
      vertex -5 49.4413 3
    endloop
  endfacet
  facet normal 0 -0.990268 0.139173
    outer loop
      vertex -5 47.4216 3
      vertex 5 48.3917 9.90268
      vertex -5 48.3917 9.90268
    endloop
  endfacet
  facet normal 0 -0.990268 0.139173
    outer loop
      vertex 5 48.3917 9.90268
      vertex -5 47.4216 3
      vertex 5 47.4216 3
    endloop
  endfacet
endsolid OpenSCAD_Model
