solid OpenSCAD_Model
  facet normal 0 0 -1
    outer loop
      vertex -25.8539 0 0
      vertex -25.2889 5.37533 0
      vertex -25.2889 -5.37533 0
    endloop
  endfacet
  facet normal 0 0 -1
    outer loop
      vertex -25.2889 -5.37533 0
      vertex -25.2889 5.37533 0
      vertex -23.6187 10.5157 0
    endloop
  endfacet
  facet normal 0 0 -1
    outer loop
      vertex -25.2889 -5.37533 0
      vertex -23.6187 10.5157 0
      vertex -20.9163 15.1965 0
    endloop
  endfacet
  facet normal 0 0 -1
    outer loop
      vertex -25.2889 -5.37533 0
      vertex -20.9163 15.1965 0
      vertex -17.2996 19.2132 0
    endloop
  endfacet
  facet normal 0 0 -1
    outer loop
      vertex -25.2889 -5.37533 0
      vertex -17.2996 19.2132 0
      vertex -12.927 22.3901 0
    endloop
  endfacet
  facet normal 0 0 -1
    outer loop
      vertex -25.2889 -5.37533 0
      vertex -12.927 22.3901 0
      vertex -7.9893 24.5885 0
    endloop
  endfacet
  facet normal 0 0 -1
    outer loop
      vertex -25.2889 -5.37533 0
      vertex -7.9893 24.5885 0
      vertex -2.70247 25.7123 0
    endloop
  endfacet
  facet normal 0 0 -1
    outer loop
      vertex -25.2889 -5.37533 0
      vertex -2.70247 25.7123 0
      vertex 2.70247 25.7123 0
    endloop
  endfacet
  facet normal 0 0 -1
    outer loop
      vertex -25.2889 -5.37533 0
      vertex 2.70247 25.7123 0
      vertex 7.9893 24.5885 0
    endloop
  endfacet
  facet normal 0 0 -1
    outer loop
      vertex -25.2889 -5.37533 0
      vertex 7.9893 24.5885 0
      vertex 12.927 22.3901 0
    endloop
  endfacet
  facet normal 0 0 -1
    outer loop
      vertex -25.2889 -5.37533 0
      vertex 12.927 22.3901 0
      vertex 17.2996 19.2132 0
    endloop
  endfacet
  facet normal 0 0 -1
    outer loop
      vertex -25.2889 -5.37533 0
      vertex 17.2996 19.2132 0
      vertex 20.9163 15.1965 0
    endloop
  endfacet
  facet normal 0 0 -1
    outer loop
      vertex -25.2889 -5.37533 0
      vertex 20.9163 15.1965 0
      vertex 23.6187 10.5157 0
    endloop
  endfacet
  facet normal 0 0 -1
    outer loop
      vertex -25.2889 -5.37533 0
      vertex 23.6187 10.5157 0
      vertex 25.2889 5.37533 0
    endloop
  endfacet
  facet normal 0 0 -1
    outer loop
      vertex -25.2889 -5.37533 0
      vertex 25.2889 5.37533 0
      vertex 25.8539 0 0
    endloop
  endfacet
  facet normal 0 0 -1
    outer loop
      vertex -25.2889 -5.37533 0
      vertex 25.8539 0 0
      vertex 25.2889 -5.37533 0
    endloop
  endfacet
  facet normal 0 0 -1
    outer loop
      vertex -25.2889 -5.37533 0
      vertex 25.2889 -5.37533 0
      vertex 23.6187 -10.5157 0
    endloop
  endfacet
  facet normal 0 0 -1
    outer loop
      vertex -25.2889 -5.37533 0
      vertex 23.6187 -10.5157 0
      vertex 20.9163 -15.1965 0
    endloop
  endfacet
  facet normal 0 0 -1
    outer loop
      vertex -25.2889 -5.37533 0
      vertex 20.9163 -15.1965 0
      vertex 17.2996 -19.2132 0
    endloop
  endfacet
  facet normal 0 0 -1
    outer loop
      vertex -25.2889 -5.37533 0
      vertex 17.2996 -19.2132 0
      vertex 12.927 -22.3901 0
    endloop
  endfacet
  facet normal 0 0 -1
    outer loop
      vertex -25.2889 -5.37533 0
      vertex 12.927 -22.3901 0
      vertex 7.9893 -24.5885 0
    endloop
  endfacet
  facet normal 0 0 -1
    outer loop
      vertex -25.2889 -5.37533 0
      vertex 2.70247 -25.7123 0
      vertex -2.70247 -25.7123 0
    endloop
  endfacet
  facet normal 0 0 -1
    outer loop
      vertex -25.2889 -5.37533 0
      vertex -2.70247 -25.7123 0
      vertex -7.9893 -24.5885 0
    endloop
  endfacet
  facet normal 0 0 -1
    outer loop
      vertex -25.2889 -5.37533 0
      vertex -7.9893 -24.5885 0
      vertex -12.927 -22.3901 0
    endloop
  endfacet
  facet normal 0 0 -1
    outer loop
      vertex -25.2889 -5.37533 0
      vertex -12.927 -22.3901 0
      vertex -17.2996 -19.2132 0
    endloop
  endfacet
  facet normal 0 0 -1
    outer loop
      vertex -25.2889 -5.37533 0
      vertex -17.2996 -19.2132 0
      vertex -20.9163 -15.1965 0
    endloop
  endfacet
  facet normal 0 0 -1
    outer loop
      vertex -25.2889 -5.37533 0
      vertex -20.9163 -15.1965 0
      vertex -23.6187 -10.5157 0
    endloop
  endfacet
  facet normal 0 0 -1
    outer loop
      vertex -25.2889 -5.37533 0
      vertex 4.05248e-015 -22.8539 0
      vertex 2.70247 -25.7123 0
    endloop
  endfacet
  facet normal 0 0 -1
    outer loop
      vertex 4 -22.8539 0
      vertex 7.9893 -24.5885 0
      vertex 2.70247 -25.7123 0
    endloop
  endfacet
  facet normal 0 0 -1
    outer loop
      vertex -25.2889 -5.37533 0
      vertex 7.9893 -24.5885 0
      vertex 4 -22.8539 0
    endloop
  endfacet
  facet normal 0 0 -1
    outer loop
      vertex 4 -22.8539 0
      vertex 2.70247 -25.7123 0
      vertex 4.05248e-015 -22.8539 0
    endloop
  endfacet
  facet normal 0 0 -1
    outer loop
      vertex 4.05248e-015 -22.8539 0
      vertex -25.2889 -5.37533 0
      vertex 4 -22.8539 0
    endloop
  endfacet
  facet normal -0.994522 0.104528 0
    outer loop
      vertex -25.8539 0 0
      vertex -25.8539 0 48.7078
      vertex -25.2889 5.37533 0
    endloop
  endfacet
  facet normal -0.994522 0.104528 0
    outer loop
      vertex -25.2889 5.37533 0
      vertex -25.8539 0 48.7078
      vertex -25.2889 5.37533 48.7078
    endloop
  endfacet
  facet normal -0.994522 -0.104528 0
    outer loop
      vertex -25.8539 0 0
      vertex -25.2889 -5.37533 0
      vertex -25.8539 0 48.7078
    endloop
  endfacet
  facet normal -0.994522 -0.104528 0
    outer loop
      vertex -25.8539 0 48.7078
      vertex -25.2889 -5.37533 0
      vertex -25.2889 -5.37533 48.7078
    endloop
  endfacet
  facet normal -0.951057 -0.309017 0
    outer loop
      vertex -25.2889 -5.37533 0
      vertex -23.6187 -10.5157 0
      vertex -25.2889 -5.37533 48.7078
    endloop
  endfacet
  facet normal -0.951057 -0.309017 0
    outer loop
      vertex -25.2889 -5.37533 48.7078
      vertex -23.6187 -10.5157 0
      vertex -23.6187 -10.5157 48.7078
    endloop
  endfacet
  facet normal -0.866025 -0.5 0
    outer loop
      vertex -23.6187 -10.5157 0
      vertex -20.9163 -15.1965 0
      vertex -23.6187 -10.5157 48.7078
    endloop
  endfacet
  facet normal -0.866025 -0.5 0
    outer loop
      vertex -23.6187 -10.5157 48.7078
      vertex -20.9163 -15.1965 0
      vertex -20.9163 -15.1965 48.7078
    endloop
  endfacet
  facet normal -0.743145 -0.669131 0
    outer loop
      vertex -20.9163 -15.1965 0
      vertex -17.2996 -19.2132 0
      vertex -20.9163 -15.1965 48.7078
    endloop
  endfacet
  facet normal -0.743145 -0.669131 0
    outer loop
      vertex -20.9163 -15.1965 48.7078
      vertex -17.2996 -19.2132 0
      vertex -17.2996 -19.2132 48.7078
    endloop
  endfacet
  facet normal -0.587785 -0.809017 0
    outer loop
      vertex -17.2996 -19.2132 48.7078
      vertex -17.2996 -19.2132 0
      vertex -12.927 -22.3901 0
    endloop
  endfacet
  facet normal -0.587785 -0.809017 0
    outer loop
      vertex -12.927 -22.3901 48.7078
      vertex -17.2996 -19.2132 48.7078
      vertex -12.927 -22.3901 0
    endloop
  endfacet
  facet normal -0.406737 -0.913545 0
    outer loop
      vertex -12.927 -22.3901 48.7078
      vertex -12.927 -22.3901 0
      vertex -7.9893 -24.5885 0
    endloop
  endfacet
  facet normal -0.406737 -0.913545 0
    outer loop
      vertex -7.9893 -24.5885 48.7078
      vertex -12.927 -22.3901 48.7078
      vertex -7.9893 -24.5885 0
    endloop
  endfacet
  facet normal -0.207912 -0.978148 0
    outer loop
      vertex -7.9893 -24.5885 48.7078
      vertex -7.9893 -24.5885 0
      vertex -2.70247 -25.7123 0
    endloop
  endfacet
  facet normal -0.207912 -0.978148 0
    outer loop
      vertex -2.70247 -25.7123 48.7078
      vertex -7.9893 -24.5885 48.7078
      vertex -2.70247 -25.7123 0
    endloop
  endfacet
  facet normal 0 -1 0
    outer loop
      vertex 3.99921e-015 -25.7123 0.300426
      vertex -2.70247 -25.7123 0
      vertex 2.70247 -25.7123 0
    endloop
  endfacet
  facet normal 0 -1 0
    outer loop
      vertex -2.70247 -25.7123 48.7078
      vertex -2.70247 -25.7123 0
      vertex 3.99921e-015 -25.7123 0.300426
    endloop
  endfacet
  facet normal 0 -1 0
    outer loop
      vertex 3.28993e-015 -25.7123 4.30043
      vertex 2.70247 -25.7123 4.30043
      vertex -2.70247 -25.7123 48.7078
    endloop
  endfacet
  facet normal 0 -1 0
    outer loop
      vertex -2.70247 -25.7123 48.7078
      vertex 3.99921e-015 -25.7123 0.300426
      vertex 3.28993e-015 -25.7123 4.30043
    endloop
  endfacet
  facet normal 0 -1 0
    outer loop
      vertex -3.28993e-015 -25.7123 41.4074
      vertex -2.70247 -25.7123 48.7078
      vertex 2.70247 -25.7123 4.30043
    endloop
  endfacet
  facet normal 0 -1 0
    outer loop
      vertex 2.70247 -25.7123 41.4074
      vertex -3.28993e-015 -25.7123 41.4074
      vertex 2.70247 -25.7123 4.30043
    endloop
  endfacet
  facet normal 0 -1 0
    outer loop
      vertex 2.70247 -25.7123 45.4074
      vertex -2.70247 -25.7123 48.7078
      vertex -3.99921e-015 -25.7123 45.4074
    endloop
  endfacet
  facet normal 0 -1 0
    outer loop
      vertex 2.70247 -25.7123 48.7078
      vertex -2.70247 -25.7123 48.7078
      vertex 2.70247 -25.7123 45.4074
    endloop
  endfacet
  facet normal 0 -1 0
    outer loop
      vertex -3.28993e-015 -25.7123 41.4074
      vertex -3.99921e-015 -25.7123 45.4074
      vertex -2.70247 -25.7123 48.7078
    endloop
  endfacet
  facet normal 0 -1 0
    outer loop
      vertex 2.70247 -25.7123 0.300426
      vertex 3.99921e-015 -25.7123 0.300426
      vertex 2.70247 -25.7123 0
    endloop
  endfacet
  facet normal 0.207912 -0.978148 0
    outer loop
      vertex 2.70247 -25.7123 0.300426
      vertex 2.70247 -25.7123 0
      vertex 7.9893 -24.5885 0
    endloop
  endfacet
  facet normal 0.207912 -0.978148 0
    outer loop
      vertex 4 -25.4365 0.271439
      vertex 2.70247 -25.7123 0.300426
      vertex 7.9893 -24.5885 0
    endloop
  endfacet
  facet normal 0.207912 -0.978148 0
    outer loop
      vertex 2.70247 -25.7123 48.7078
      vertex 2.70247 -25.7123 45.4074
      vertex 7.9893 -24.5885 48.7078
    endloop
  endfacet
  facet normal 0.207912 -0.978148 0
    outer loop
      vertex 2.70247 -25.7123 45.4074
      vertex 4 -25.4365 45.4364
      vertex 7.9893 -24.5885 48.7078
    endloop
  endfacet
  facet normal 0.207912 -0.978148 0
    outer loop
      vertex 2.70247 -25.7123 4.30043
      vertex 7.9893 -24.5885 48.7078
      vertex 4 -25.4365 41.4364
    endloop
  endfacet
  facet normal 0.207912 -0.978148 0
    outer loop
      vertex 4 -25.4365 45.4364
      vertex 4 -25.4365 41.4364
      vertex 7.9893 -24.5885 48.7078
    endloop
  endfacet
  facet normal 0.207912 -0.978148 0
    outer loop
      vertex 2.70247 -25.7123 4.30043
      vertex 4 -25.4365 4.27144
      vertex 7.9893 -24.5885 48.7078
    endloop
  endfacet
  facet normal 0.207912 -0.978148 0
    outer loop
      vertex 7.9893 -24.5885 48.7078
      vertex 4 -25.4365 4.27144
      vertex 7.9893 -24.5885 0
    endloop
  endfacet
  facet normal 0.207912 -0.978148 0
    outer loop
      vertex 4 -25.4365 4.27144
      vertex 4 -25.4365 0.271439
      vertex 7.9893 -24.5885 0
    endloop
  endfacet
  facet normal 0.207912 -0.978148 0
    outer loop
      vertex 4 -25.4365 41.4364
      vertex 2.70247 -25.7123 41.4074
      vertex 2.70247 -25.7123 4.30043
    endloop
  endfacet
  facet normal 0.406737 -0.913545 0
    outer loop
      vertex 7.9893 -24.5885 48.7078
      vertex 7.9893 -24.5885 0
      vertex 12.927 -22.3901 0
    endloop
  endfacet
  facet normal 0.406737 -0.913545 0
    outer loop
      vertex 12.927 -22.3901 48.7078
      vertex 7.9893 -24.5885 48.7078
      vertex 12.927 -22.3901 0
    endloop
  endfacet
  facet normal 0.587785 -0.809017 0
    outer loop
      vertex 12.927 -22.3901 48.7078
      vertex 12.927 -22.3901 0
      vertex 17.2996 -19.2132 0
    endloop
  endfacet
  facet normal 0.587785 -0.809017 0
    outer loop
      vertex 17.2996 -19.2132 48.7078
      vertex 12.927 -22.3901 48.7078
      vertex 17.2996 -19.2132 0
    endloop
  endfacet
  facet normal 0.743145 -0.669131 0
    outer loop
      vertex 17.2996 -19.2132 48.7078
      vertex 17.2996 -19.2132 0
      vertex 20.9163 -15.1965 0
    endloop
  endfacet
  facet normal 0.743145 -0.669131 0
    outer loop
      vertex 20.9163 -15.1965 48.7078
      vertex 17.2996 -19.2132 48.7078
      vertex 20.9163 -15.1965 0
    endloop
  endfacet
  facet normal 0.866025 -0.5 0
    outer loop
      vertex 20.9163 -15.1965 48.7078
      vertex 20.9163 -15.1965 0
      vertex 23.6187 -10.5157 0
    endloop
  endfacet
  facet normal 0.866025 -0.5 0
    outer loop
      vertex 23.6187 -10.5157 48.7078
      vertex 20.9163 -15.1965 48.7078
      vertex 23.6187 -10.5157 0
    endloop
  endfacet
  facet normal 0.951057 -0.309017 0
    outer loop
      vertex 23.6187 -10.5157 48.7078
      vertex 23.6187 -10.5157 0
      vertex 25.2889 -5.37533 0
    endloop
  endfacet
  facet normal 0.951057 -0.309017 0
    outer loop
      vertex 25.2889 -5.37533 48.7078
      vertex 23.6187 -10.5157 48.7078
      vertex 25.2889 -5.37533 0
    endloop
  endfacet
  facet normal 0.994522 -0.104528 0
    outer loop
      vertex 25.2889 -5.37533 48.7078
      vertex 25.2889 -5.37533 0
      vertex 25.8539 0 0
    endloop
  endfacet
  facet normal 0.994522 -0.104528 0
    outer loop
      vertex 25.8539 0 48.7078
      vertex 25.2889 -5.37533 48.7078
      vertex 25.8539 0 0
    endloop
  endfacet
  facet normal 0.994522 0.104528 0
    outer loop
      vertex 25.8539 0 0
      vertex 25.2889 5.37533 0
      vertex 25.2889 5.37533 48.7078
    endloop
  endfacet
  facet normal 0.994522 0.104528 0
    outer loop
      vertex 25.8539 0 48.7078
      vertex 25.8539 0 0
      vertex 25.2889 5.37533 48.7078
    endloop
  endfacet
  facet normal 0.951057 0.309017 0
    outer loop
      vertex 25.2889 5.37533 0
      vertex 23.6187 10.5157 0
      vertex 23.6187 10.5157 48.7078
    endloop
  endfacet
  facet normal 0.951057 0.309017 0
    outer loop
      vertex 25.2889 5.37533 48.7078
      vertex 25.2889 5.37533 0
      vertex 23.6187 10.5157 48.7078
    endloop
  endfacet
  facet normal 0.866025 0.5 0
    outer loop
      vertex 23.6187 10.5157 0
      vertex 20.9163 15.1965 0
      vertex 20.9163 15.1965 48.7078
    endloop
  endfacet
  facet normal 0.866025 0.5 0
    outer loop
      vertex 23.6187 10.5157 48.7078
      vertex 23.6187 10.5157 0
      vertex 20.9163 15.1965 48.7078
    endloop
  endfacet
  facet normal 0.743145 0.669131 0
    outer loop
      vertex 20.9163 15.1965 0
      vertex 17.2996 19.2132 0
      vertex 17.2996 19.2132 48.7078
    endloop
  endfacet
  facet normal 0.743145 0.669131 0
    outer loop
      vertex 20.9163 15.1965 48.7078
      vertex 20.9163 15.1965 0
      vertex 17.2996 19.2132 48.7078
    endloop
  endfacet
  facet normal 0.587785 0.809017 0
    outer loop
      vertex 12.927 22.3901 0
      vertex 12.927 22.3901 48.7078
      vertex 17.2996 19.2132 0
    endloop
  endfacet
  facet normal 0.587785 0.809017 0
    outer loop
      vertex 17.2996 19.2132 0
      vertex 12.927 22.3901 48.7078
      vertex 17.2996 19.2132 48.7078
    endloop
  endfacet
  facet normal 0.406737 0.913545 0
    outer loop
      vertex 7.9893 24.5885 0
      vertex 7.9893 24.5885 48.7078
      vertex 12.927 22.3901 0
    endloop
  endfacet
  facet normal 0.406737 0.913545 0
    outer loop
      vertex 12.927 22.3901 0
      vertex 7.9893 24.5885 48.7078
      vertex 12.927 22.3901 48.7078
    endloop
  endfacet
  facet normal 0.207912 0.978148 0
    outer loop
      vertex 2.70247 25.7123 0
      vertex 2.70247 25.7123 48.7078
      vertex 7.9893 24.5885 0
    endloop
  endfacet
  facet normal 0.207912 0.978148 0
    outer loop
      vertex 7.9893 24.5885 0
      vertex 2.70247 25.7123 48.7078
      vertex 7.9893 24.5885 48.7078
    endloop
  endfacet
  facet normal 0 1 0
    outer loop
      vertex -2.70247 25.7123 0
      vertex -2.70247 25.7123 48.7078
      vertex 2.70247 25.7123 0
    endloop
  endfacet
  facet normal 0 1 0
    outer loop
      vertex 2.70247 25.7123 0
      vertex -2.70247 25.7123 48.7078
      vertex 2.70247 25.7123 48.7078
    endloop
  endfacet
  facet normal -0.207912 0.978148 0
    outer loop
      vertex -7.9893 24.5885 0
      vertex -7.9893 24.5885 48.7078
      vertex -2.70247 25.7123 0
    endloop
  endfacet
  facet normal -0.207912 0.978148 0
    outer loop
      vertex -2.70247 25.7123 0
      vertex -7.9893 24.5885 48.7078
      vertex -2.70247 25.7123 48.7078
    endloop
  endfacet
  facet normal -0.406737 0.913545 0
    outer loop
      vertex -12.927 22.3901 0
      vertex -12.927 22.3901 48.7078
      vertex -7.9893 24.5885 0
    endloop
  endfacet
  facet normal -0.406737 0.913545 0
    outer loop
      vertex -7.9893 24.5885 0
      vertex -12.927 22.3901 48.7078
      vertex -7.9893 24.5885 48.7078
    endloop
  endfacet
  facet normal -0.587785 0.809017 0
    outer loop
      vertex -17.2996 19.2132 0
      vertex -17.2996 19.2132 48.7078
      vertex -12.927 22.3901 0
    endloop
  endfacet
  facet normal -0.587785 0.809017 0
    outer loop
      vertex -12.927 22.3901 0
      vertex -17.2996 19.2132 48.7078
      vertex -12.927 22.3901 48.7078
    endloop
  endfacet
  facet normal -0.743145 0.669131 0
    outer loop
      vertex -20.9163 15.1965 0
      vertex -20.9163 15.1965 48.7078
      vertex -17.2996 19.2132 0
    endloop
  endfacet
  facet normal -0.743145 0.669131 0
    outer loop
      vertex -17.2996 19.2132 0
      vertex -20.9163 15.1965 48.7078
      vertex -17.2996 19.2132 48.7078
    endloop
  endfacet
  facet normal -0.866025 0.5 0
    outer loop
      vertex -23.6187 10.5157 0
      vertex -23.6187 10.5157 48.7078
      vertex -20.9163 15.1965 0
    endloop
  endfacet
  facet normal -0.866025 0.5 0
    outer loop
      vertex -20.9163 15.1965 0
      vertex -23.6187 10.5157 48.7078
      vertex -20.9163 15.1965 48.7078
    endloop
  endfacet
  facet normal -0.951057 0.309017 0
    outer loop
      vertex -25.2889 5.37533 0
      vertex -25.2889 5.37533 48.7078
      vertex -23.6187 10.5157 0
    endloop
  endfacet
  facet normal -0.951057 0.309017 0
    outer loop
      vertex -23.6187 10.5157 0
      vertex -25.2889 5.37533 48.7078
      vertex -23.6187 10.5157 48.7078
    endloop
  endfacet
  facet normal 2.20828e-016 0.104529 -0.994522
    outer loop
      vertex 4.05248e-015 -22.8539 0
      vertex 4 -22.8539 0
      vertex 4.05248e-015 -22.8539 -4.68218e-007
    endloop
  endfacet
  facet normal 2.20828e-016 0.104529 -0.994522
    outer loop
      vertex 4.05248e-015 -22.8539 -4.68218e-007
      vertex 4 -22.8539 0
      vertex 4 -22.8539 -4.68218e-007
    endloop
  endfacet
  facet normal 2.20828e-016 -0.104529 -0.994522
    outer loop
      vertex 4.05248e-015 -22.8539 0
      vertex 4.05248e-015 -22.8539 -4.68218e-007
      vertex 4 -22.8539 0
    endloop
  endfacet
  facet normal 2.20828e-016 -0.104529 -0.994522
    outer loop
      vertex 4 -22.8539 0
      vertex 4.05248e-015 -22.8539 -4.68218e-007
      vertex 4 -22.8539 -4.68218e-007
    endloop
  endfacet
  facet normal 0 0 1
    outer loop
      vertex -25.2889 5.37533 48.7078
      vertex -25.8539 0 48.7078
      vertex -25.2889 -5.37533 48.7078
    endloop
  endfacet
  facet normal 0 0 1
    outer loop
      vertex -20.9163 -15.1965 48.7078
      vertex -25.2889 5.37533 48.7078
      vertex -23.6187 -10.5157 48.7078
    endloop
  endfacet
  facet normal 0 0 1
    outer loop
      vertex -23.6187 -10.5157 48.7078
      vertex -25.2889 5.37533 48.7078
      vertex -25.2889 -5.37533 48.7078
    endloop
  endfacet
  facet normal 0 0 1
    outer loop
      vertex -22.3545 -4.7516 48.7078
      vertex -25.2889 5.37533 48.7078
      vertex -20.9163 -15.1965 48.7078
    endloop
  endfacet
  facet normal 0 0 1
    outer loop
      vertex 18.4892 -13.4332 48.7078
      vertex 15.2922 -16.9838 48.7078
      vertex 20.9163 -15.1965 48.7078
    endloop
  endfacet
  facet normal 0 0 1
    outer loop
      vertex -22.3545 4.7516 48.7078
      vertex -20.8781 9.29552 48.7078
      vertex -25.2889 5.37533 48.7078
    endloop
  endfacet
  facet normal 0 0 1
    outer loop
      vertex -7.06225 -21.7354 48.7078
      vertex -11.427 -19.7921 48.7078
      vertex -7.9893 -24.5885 48.7078
    endloop
  endfacet
  facet normal 0 0 1
    outer loop
      vertex 20.8781 9.29552 48.7078
      vertex 22.3545 4.7516 48.7078
      vertex 25.2889 5.37533 48.7078
    endloop
  endfacet
  facet normal 0 0 1
    outer loop
      vertex 18.4892 13.4332 48.7078
      vertex 20.8781 9.29552 48.7078
      vertex 23.6187 10.5157 48.7078
    endloop
  endfacet
  facet normal 0 0 1
    outer loop
      vertex 15.2922 16.9838 48.7078
      vertex 18.4892 13.4332 48.7078
      vertex 20.9163 15.1965 48.7078
    endloop
  endfacet
  facet normal 0 0 1
    outer loop
      vertex 11.427 19.7921 48.7078
      vertex 15.2922 16.9838 48.7078
      vertex 17.2996 19.2132 48.7078
    endloop
  endfacet
  facet normal 0 0 1
    outer loop
      vertex -2.38888 22.7287 48.7078
      vertex 2.38888 22.7287 48.7078
      vertex 2.70247 25.7123 48.7078
    endloop
  endfacet
  facet normal 0 0 1
    outer loop
      vertex -11.427 19.7921 48.7078
      vertex -7.06225 21.7354 48.7078
      vertex -2.70247 25.7123 48.7078
    endloop
  endfacet
  facet normal 0 0 1
    outer loop
      vertex -17.2996 19.2132 48.7078
      vertex -25.2889 5.37533 48.7078
      vertex -12.927 22.3901 48.7078
    endloop
  endfacet
  facet normal 0 0 1
    outer loop
      vertex -20.9163 15.1965 48.7078
      vertex -25.2889 5.37533 48.7078
      vertex -17.2996 19.2132 48.7078
    endloop
  endfacet
  facet normal 0 0 1
    outer loop
      vertex -23.6187 10.5157 48.7078
      vertex -25.2889 5.37533 48.7078
      vertex -20.9163 15.1965 48.7078
    endloop
  endfacet
  facet normal 0 0 1
    outer loop
      vertex -20.8781 -9.29552 48.7078
      vertex -22.3545 -4.7516 48.7078
      vertex -20.9163 -15.1965 48.7078
    endloop
  endfacet
  facet normal 0 0 1
    outer loop
      vertex 20.8781 -9.29552 48.7078
      vertex 18.4892 -13.4332 48.7078
      vertex 23.6187 -10.5157 48.7078
    endloop
  endfacet
  facet normal 0 0 1
    outer loop
      vertex 2.38888 22.7287 48.7078
      vertex 7.06225 21.7354 48.7078
      vertex 7.9893 24.5885 48.7078
    endloop
  endfacet
  facet normal 0 0 1
    outer loop
      vertex -12.927 22.3901 48.7078
      vertex -25.2889 5.37533 48.7078
      vertex -18.4892 13.4332 48.7078
    endloop
  endfacet
  facet normal 0 0 1
    outer loop
      vertex -12.927 22.3901 48.7078
      vertex -15.2922 16.9838 48.7078
      vertex -7.9893 24.5885 48.7078
    endloop
  endfacet
  facet normal 0 0 1
    outer loop
      vertex -12.927 22.3901 48.7078
      vertex -18.4892 13.4332 48.7078
      vertex -15.2922 16.9838 48.7078
    endloop
  endfacet
  facet normal 0 0 1
    outer loop
      vertex -7.9893 24.5885 48.7078
      vertex -11.427 19.7921 48.7078
      vertex -2.70247 25.7123 48.7078
    endloop
  endfacet
  facet normal 0 0 1
    outer loop
      vertex -15.2922 16.9838 48.7078
      vertex -11.427 19.7921 48.7078
      vertex -7.9893 24.5885 48.7078
    endloop
  endfacet
  facet normal 0 0 1
    outer loop
      vertex -2.70247 25.7123 48.7078
      vertex -7.06225 21.7354 48.7078
      vertex 2.70247 25.7123 48.7078
    endloop
  endfacet
  facet normal 0 0 1
    outer loop
      vertex -7.06225 21.7354 48.7078
      vertex -2.38888 22.7287 48.7078
      vertex 2.70247 25.7123 48.7078
    endloop
  endfacet
  facet normal 0 0 1
    outer loop
      vertex 2.70247 25.7123 48.7078
      vertex 2.38888 22.7287 48.7078
      vertex 7.9893 24.5885 48.7078
    endloop
  endfacet
  facet normal 0 0 1
    outer loop
      vertex 22.3545 4.7516 48.7078
      vertex 22.8539 0 48.7078
      vertex 25.8539 0 48.7078
    endloop
  endfacet
  facet normal 0 0 1
    outer loop
      vertex 7.9893 24.5885 48.7078
      vertex 7.06225 21.7354 48.7078
      vertex 12.927 22.3901 48.7078
    endloop
  endfacet
  facet normal 0 0 1
    outer loop
      vertex -20.8781 9.29552 48.7078
      vertex -18.4892 13.4332 48.7078
      vertex -25.2889 5.37533 48.7078
    endloop
  endfacet
  facet normal 0 0 1
    outer loop
      vertex 12.927 22.3901 48.7078
      vertex 11.427 19.7921 48.7078
      vertex 17.2996 19.2132 48.7078
    endloop
  endfacet
  facet normal 0 0 1
    outer loop
      vertex 17.2996 19.2132 48.7078
      vertex 15.2922 16.9838 48.7078
      vertex 20.9163 15.1965 48.7078
    endloop
  endfacet
  facet normal 0 0 1
    outer loop
      vertex 20.9163 15.1965 48.7078
      vertex 18.4892 13.4332 48.7078
      vertex 23.6187 10.5157 48.7078
    endloop
  endfacet
  facet normal 0 0 1
    outer loop
      vertex 23.6187 10.5157 48.7078
      vertex 20.8781 9.29552 48.7078
      vertex 25.2889 5.37533 48.7078
    endloop
  endfacet
  facet normal 0 0 1
    outer loop
      vertex 25.2889 5.37533 48.7078
      vertex 22.3545 4.7516 48.7078
      vertex 25.8539 0 48.7078
    endloop
  endfacet
  facet normal 0 0 1
    outer loop
      vertex 25.8539 0 48.7078
      vertex 22.8539 0 48.7078
      vertex 25.2889 -5.37533 48.7078
    endloop
  endfacet
  facet normal 0 0 1
    outer loop
      vertex 25.2889 -5.37533 48.7078
      vertex 22.3545 -4.7516 48.7078
      vertex 23.6187 -10.5157 48.7078
    endloop
  endfacet
  facet normal 0 0 1
    outer loop
      vertex 7.06225 21.7354 48.7078
      vertex 11.427 19.7921 48.7078
      vertex 12.927 22.3901 48.7078
    endloop
  endfacet
  facet normal 0 0 1
    outer loop
      vertex 22.3545 -4.7516 48.7078
      vertex 20.8781 -9.29552 48.7078
      vertex 23.6187 -10.5157 48.7078
    endloop
  endfacet
  facet normal 0 0 1
    outer loop
      vertex 23.6187 -10.5157 48.7078
      vertex 18.4892 -13.4332 48.7078
      vertex 20.9163 -15.1965 48.7078
    endloop
  endfacet
  facet normal 0 0 1
    outer loop
      vertex 20.9163 -15.1965 48.7078
      vertex 15.2922 -16.9838 48.7078
      vertex 17.2996 -19.2132 48.7078
    endloop
  endfacet
  facet normal 0 0 1
    outer loop
      vertex 17.2996 -19.2132 48.7078
      vertex 11.427 -19.7921 48.7078
      vertex 12.927 -22.3901 48.7078
    endloop
  endfacet
  facet normal 0 0 1
    outer loop
      vertex 12.927 -22.3901 48.7078
      vertex 7.06225 -21.7354 48.7078
      vertex 7.9893 -24.5885 48.7078
    endloop
  endfacet
  facet normal 0 0 1
    outer loop
      vertex 7.9893 -24.5885 48.7078
      vertex 2.38888 -22.7287 48.7078
      vertex 2.70247 -25.7123 48.7078
    endloop
  endfacet
  facet normal 0 0 1
    outer loop
      vertex 2.70247 -25.7123 48.7078
      vertex -2.38888 -22.7287 48.7078
      vertex -2.70247 -25.7123 48.7078
    endloop
  endfacet
  facet normal 0 0 1
    outer loop
      vertex 22.8539 0 48.7078
      vertex 22.3545 -4.7516 48.7078
      vertex 25.2889 -5.37533 48.7078
    endloop
  endfacet
  facet normal 0 0 1
    outer loop
      vertex -2.70247 -25.7123 48.7078
      vertex -7.06225 -21.7354 48.7078
      vertex -7.9893 -24.5885 48.7078
    endloop
  endfacet
  facet normal 0 0 1
    outer loop
      vertex -7.9893 -24.5885 48.7078
      vertex -11.427 -19.7921 48.7078
      vertex -12.927 -22.3901 48.7078
    endloop
  endfacet
  facet normal 0 0 1
    outer loop
      vertex -11.427 -19.7921 48.7078
      vertex -15.2922 -16.9838 48.7078
      vertex -12.927 -22.3901 48.7078
    endloop
  endfacet
  facet normal 0 0 1
    outer loop
      vertex -12.927 -22.3901 48.7078
      vertex -18.4892 -13.4332 48.7078
      vertex -17.2996 -19.2132 48.7078
    endloop
  endfacet
  facet normal 0 0 1
    outer loop
      vertex -17.2996 -19.2132 48.7078
      vertex -20.8781 -9.29552 48.7078
      vertex -20.9163 -15.1965 48.7078
    endloop
  endfacet
  facet normal 0 0 1
    outer loop
      vertex -22.3545 -4.7516 48.7078
      vertex -22.8539 0 48.7078
      vertex -25.2889 5.37533 48.7078
    endloop
  endfacet
  facet normal 0 0 1
    outer loop
      vertex 15.2922 -16.9838 48.7078
      vertex 11.427 -19.7921 48.7078
      vertex 17.2996 -19.2132 48.7078
    endloop
  endfacet
  facet normal 0 0 1
    outer loop
      vertex 11.427 -19.7921 48.7078
      vertex 7.06225 -21.7354 48.7078
      vertex 12.927 -22.3901 48.7078
    endloop
  endfacet
  facet normal 0 0 1
    outer loop
      vertex 7.06225 -21.7354 48.7078
      vertex 2.38888 -22.7287 48.7078
      vertex 7.9893 -24.5885 48.7078
    endloop
  endfacet
  facet normal 0 0 1
    outer loop
      vertex 2.38888 -22.7287 48.7078
      vertex -2.38888 -22.7287 48.7078
      vertex 2.70247 -25.7123 48.7078
    endloop
  endfacet
  facet normal 0 0 1
    outer loop
      vertex -2.38888 -22.7287 48.7078
      vertex -7.06225 -21.7354 48.7078
      vertex -2.70247 -25.7123 48.7078
    endloop
  endfacet
  facet normal 0 0 1
    outer loop
      vertex -18.4892 -13.4332 48.7078
      vertex -20.8781 -9.29552 48.7078
      vertex -17.2996 -19.2132 48.7078
    endloop
  endfacet
  facet normal 0 0 1
    outer loop
      vertex -15.2922 -16.9838 48.7078
      vertex -18.4892 -13.4332 48.7078
      vertex -12.927 -22.3901 48.7078
    endloop
  endfacet
  facet normal 0 0 1
    outer loop
      vertex -22.8539 0 48.7078
      vertex -22.3545 4.7516 48.7078
      vertex -25.2889 5.37533 48.7078
    endloop
  endfacet
  facet normal -2.20828e-016 -0.104529 0.994522
    outer loop
      vertex 2.70247 -25.7123 45.4074
      vertex -3.99921e-015 -25.7123 45.4074
      vertex -3.96393e-015 -27.6055 45.2084
    endloop
  endfacet
  facet normal -2.20828e-016 -0.104529 0.994522
    outer loop
      vertex 4 -25.4365 45.4364
      vertex 2.70247 -25.7123 45.4074
      vertex 4 -27.6055 45.2084
    endloop
  endfacet
  facet normal -2.20828e-016 -0.104529 0.994522
    outer loop
      vertex 4 -27.6055 45.2084
      vertex 2.70247 -25.7123 45.4074
      vertex -3.96393e-015 -27.6055 45.2084
    endloop
  endfacet
  facet normal -1 0 -1.77321e-016
    outer loop
      vertex -3.99921e-015 -25.7123 45.4074
      vertex -3.28993e-015 -25.7123 41.4074
      vertex -3.96393e-015 -27.6055 45.2084
    endloop
  endfacet
  facet normal -1 0 -1.77321e-016
    outer loop
      vertex -3.96393e-015 -27.6055 45.2084
      vertex -3.28993e-015 -25.7123 41.4074
      vertex -3.27014e-015 -26.7739 41.2958
    endloop
  endfacet
  facet normal -1 0 -1.77321e-016
    outer loop
      vertex -3.96393e-015 -27.6055 45.2084
      vertex -3.27014e-015 -26.7739 41.2958
      vertex -3.05416e-015 -30.5225 40.0778
    endloop
  endfacet
  facet normal -1 0 -1.77321e-016
    outer loop
      vertex -3.05416e-015 -30.5225 40.0778
      vertex -2.7047e-015 -33.936 38.107
      vertex -3.96393e-015 -27.6055 45.2084
    endloop
  endfacet
  facet normal -1 0 -1.77321e-016
    outer loop
      vertex -2.7047e-015 -33.936 38.107
      vertex -2.23704e-015 -36.8651 35.4696
      vertex -3.96393e-015 -27.6055 45.2084
    endloop
  endfacet
  facet normal -1 0 -1.77321e-016
    outer loop
      vertex 3.05416e-015 -30.5225 5.63001
      vertex 3.99921e-015 -25.7123 0.300426
      vertex 2.7047e-015 -33.936 7.60078
    endloop
  endfacet
  facet normal -1 0 -1.77321e-016
    outer loop
      vertex 3.27014e-015 -26.7739 4.412
      vertex 3.28993e-015 -25.7123 4.30043
      vertex 3.99921e-015 -25.7123 0.300426
    endloop
  endfacet
  facet normal -1 0 -1.77321e-016
    outer loop
      vertex 3.27014e-015 -26.7739 4.412
      vertex 3.99921e-015 -25.7123 0.300426
      vertex 3.05416e-015 -30.5225 5.63001
    endloop
  endfacet
  facet normal -1 0 -1.77321e-016
    outer loop
      vertex 2.7047e-015 -33.936 7.60078
      vertex 3.99921e-015 -25.7123 0.300426
      vertex 3.96393e-015 -27.6055 0.499413
    endloop
  endfacet
  facet normal -1 0 -1.77321e-016
    outer loop
      vertex 2.7047e-015 -33.936 7.60078
      vertex 3.96393e-015 -27.6055 0.499413
      vertex 2.23704e-015 -36.8651 10.2382
    endloop
  endfacet
  facet normal -1 0 -1.77321e-016
    outer loop
      vertex 2.23704e-015 -36.8651 10.2382
      vertex 3.96393e-015 -27.6055 0.499413
      vertex 3.70213e-015 -32.1494 1.97582
    endloop
  endfacet
  facet normal -1 0 -1.77321e-016
    outer loop
      vertex 2.23704e-015 -36.8651 10.2382
      vertex 3.70213e-015 -32.1494 1.97582
      vertex 1.6716e-015 -39.1819 13.427
    endloop
  endfacet
  facet normal -1 0 -1.77321e-016
    outer loop
      vertex 1.6716e-015 -39.1819 13.427
      vertex 3.70213e-015 -32.1494 1.97582
      vertex 3.27853e-015 -36.2871 4.36471
    endloop
  endfacet
  facet normal -1 0 -1.77321e-016
    outer loop
      vertex 1.6716e-015 -39.1819 13.427
      vertex 3.27853e-015 -36.2871 4.36471
      vertex 1.03311e-015 -40.785 17.0277
    endloop
  endfacet
  facet normal -1 0 -1.77321e-016
    outer loop
      vertex 1.03311e-015 -40.785 17.0277
      vertex 3.27853e-015 -36.2871 4.36471
      vertex 2.71164e-015 -39.8377 7.56166
    endloop
  endfacet
  facet normal -1 0 -1.77321e-016
    outer loop
      vertex 1.03311e-015 -40.785 17.0277
      vertex 2.71164e-015 -39.8377 7.56166
      vertex 3.49459e-016 -41.6045 20.8831
    endloop
  endfacet
  facet normal -1 0 -1.77321e-016
    outer loop
      vertex 3.49459e-016 -41.6045 20.8831
      vertex 2.71164e-015 -39.8377 7.56166
      vertex 2.02624e-015 -42.646 11.427
    endloop
  endfacet
  facet normal -1 0 -1.77321e-016
    outer loop
      vertex 3.49459e-016 -41.6045 20.8831
      vertex 2.02624e-015 -42.646 11.427
      vertex -3.49459e-016 -41.6045 24.8247
    endloop
  endfacet
  facet normal -1 0 -1.77321e-016
    outer loop
      vertex -3.49459e-016 -41.6045 24.8247
      vertex 2.02624e-015 -42.646 11.427
      vertex 1.25229e-015 -44.5893 15.7917
    endloop
  endfacet
  facet normal -1 0 -1.77321e-016
    outer loop
      vertex -3.49459e-016 -41.6045 24.8247
      vertex 1.25229e-015 -44.5893 15.7917
      vertex -1.03311e-015 -40.785 28.6801
    endloop
  endfacet
  facet normal -1 0 -1.77321e-016
    outer loop
      vertex -1.03311e-015 -40.785 28.6801
      vertex 1.25229e-015 -44.5893 15.7917
      vertex 4.236e-016 -45.5826 20.465
    endloop
  endfacet
  facet normal -1 0 -1.77321e-016
    outer loop
      vertex -1.03311e-015 -40.785 28.6801
      vertex 4.236e-016 -45.5826 20.465
      vertex -1.6716e-015 -39.1819 32.2809
    endloop
  endfacet
  facet normal -1 0 -1.77321e-016
    outer loop
      vertex -1.6716e-015 -39.1819 32.2809
      vertex 4.236e-016 -45.5826 20.465
      vertex -4.236e-016 -45.5826 25.2428
    endloop
  endfacet
  facet normal -1 0 -1.77321e-016
    outer loop
      vertex -1.6716e-015 -39.1819 32.2809
      vertex -4.236e-016 -45.5826 25.2428
      vertex -2.23704e-015 -36.8651 35.4696
    endloop
  endfacet
  facet normal -1 0 -1.77321e-016
    outer loop
      vertex -2.23704e-015 -36.8651 35.4696
      vertex -4.236e-016 -45.5826 25.2428
      vertex -1.25229e-015 -44.5893 29.9162
    endloop
  endfacet
  facet normal -1 0 -1.77321e-016
    outer loop
      vertex -2.23704e-015 -36.8651 35.4696
      vertex -1.25229e-015 -44.5893 29.9162
      vertex -3.96393e-015 -27.6055 45.2084
    endloop
  endfacet
  facet normal -1 0 -1.77321e-016
    outer loop
      vertex -3.96393e-015 -27.6055 45.2084
      vertex -1.25229e-015 -44.5893 29.9162
      vertex -2.02624e-015 -42.646 34.2809
    endloop
  endfacet
  facet normal -1 0 -1.77321e-016
    outer loop
      vertex -3.96393e-015 -27.6055 45.2084
      vertex -2.02624e-015 -42.646 34.2809
      vertex -2.71164e-015 -39.8377 38.1462
    endloop
  endfacet
  facet normal -1 0 -1.77321e-016
    outer loop
      vertex -3.96393e-015 -27.6055 45.2084
      vertex -2.71164e-015 -39.8377 38.1462
      vertex -3.27853e-015 -36.2871 41.3431
    endloop
  endfacet
  facet normal -1 0 -1.77321e-016
    outer loop
      vertex -3.96393e-015 -27.6055 45.2084
      vertex -3.27853e-015 -36.2871 41.3431
      vertex -3.70213e-015 -32.1494 43.732
    endloop
  endfacet
  facet normal 2.20828e-016 0.104529 -0.994522
    outer loop
      vertex 4 -25.4365 41.4364
      vertex 4 -26.7739 41.2958
      vertex 2.70247 -25.7123 41.4074
    endloop
  endfacet
  facet normal 2.20828e-016 0.104529 -0.994522
    outer loop
      vertex 2.70247 -25.7123 41.4074
      vertex 4 -26.7739 41.2958
      vertex -3.27014e-015 -26.7739 41.2958
    endloop
  endfacet
  facet normal 2.20828e-016 0.104529 -0.994522
    outer loop
      vertex 2.70247 -25.7123 41.4074
      vertex -3.27014e-015 -26.7739 41.2958
      vertex -3.28993e-015 -25.7123 41.4074
    endloop
  endfacet
  facet normal -2.20828e-016 0.104529 0.994522
    outer loop
      vertex 4 -26.7739 4.412
      vertex 4 -25.4365 4.27144
      vertex 2.70247 -25.7123 4.30043
    endloop
  endfacet
  facet normal -2.20828e-016 0.104529 0.994522
    outer loop
      vertex 3.28993e-015 -25.7123 4.30043
      vertex 4 -26.7739 4.412
      vertex 2.70247 -25.7123 4.30043
    endloop
  endfacet
  facet normal -2.20828e-016 0.104529 0.994522
    outer loop
      vertex 3.28993e-015 -25.7123 4.30043
      vertex 3.27014e-015 -26.7739 4.412
      vertex 4 -26.7739 4.412
    endloop
  endfacet
  facet normal 2.20828e-016 -0.104529 -0.994522
    outer loop
      vertex 3.96393e-015 -27.6055 0.499413
      vertex 3.99921e-015 -25.7123 0.300426
      vertex 4 -27.6055 0.499413
    endloop
  endfacet
  facet normal 2.20828e-016 -0.104529 -0.994522
    outer loop
      vertex 4 -27.6055 0.499413
      vertex 3.99921e-015 -25.7123 0.300426
      vertex 2.70247 -25.7123 0.300426
    endloop
  endfacet
  facet normal 2.20828e-016 -0.104529 -0.994522
    outer loop
      vertex 4 -27.6055 0.499413
      vertex 2.70247 -25.7123 0.300426
      vertex 4 -25.4365 0.271439
    endloop
  endfacet
  facet normal 1 0 1.77321e-016
    outer loop
      vertex 4 -25.4365 41.4364
      vertex 4 -25.4365 45.4364
      vertex 4 -27.6055 45.2084
    endloop
  endfacet
  facet normal 1 0 1.77321e-016
    outer loop
      vertex 4 -36.2871 41.3431
      vertex 4 -25.4365 41.4364
      vertex 4 -32.1494 43.732
    endloop
  endfacet
  facet normal 1 0 1.77321e-016
    outer loop
      vertex 4 -32.1494 43.732
      vertex 4 -25.4365 41.4364
      vertex 4 -27.6055 45.2084
    endloop
  endfacet
  facet normal 1 0 1.77321e-016
    outer loop
      vertex 4 -26.7739 41.2958
      vertex 4 -25.4365 41.4364
      vertex 4 -36.2871 41.3431
    endloop
  endfacet
  facet normal 1 0 1.77321e-016
    outer loop
      vertex 4 -30.5225 40.0778
      vertex 4 -26.7739 41.2958
      vertex 4 -39.8377 38.1462
    endloop
  endfacet
  facet normal 1 0 1.77321e-016
    outer loop
      vertex 4 -36.8651 35.4696
      vertex 4 -33.936 38.107
      vertex 4 -42.646 34.2809
    endloop
  endfacet
  facet normal 1 0 1.77321e-016
    outer loop
      vertex 4 -39.1819 32.2809
      vertex 4 -36.8651 35.4696
      vertex 4 -44.5893 29.9162
    endloop
  endfacet
  facet normal 1 0 1.77321e-016
    outer loop
      vertex 4 -40.785 28.6801
      vertex 4 -39.1819 32.2809
      vertex 4 -45.5826 25.2428
    endloop
  endfacet
  facet normal 1 0 1.77321e-016
    outer loop
      vertex 4 -41.6045 20.8831
      vertex 4 -41.6045 24.8247
      vertex 4 -45.5826 20.465
    endloop
  endfacet
  facet normal 1 0 1.77321e-016
    outer loop
      vertex 4 -40.785 17.0277
      vertex 4 -41.6045 20.8831
      vertex 4 -44.5893 15.7917
    endloop
  endfacet
  facet normal 1 0 1.77321e-016
    outer loop
      vertex 4 -39.1819 13.427
      vertex 4 -40.785 17.0277
      vertex 4 -42.646 11.427
    endloop
  endfacet
  facet normal 1 0 1.77321e-016
    outer loop
      vertex 4 -36.8651 10.2382
      vertex 4 -39.1819 13.427
      vertex 4 -39.8377 7.56166
    endloop
  endfacet
  facet normal 1 0 1.77321e-016
    outer loop
      vertex 4 -33.936 7.60078
      vertex 4 -36.8651 10.2382
      vertex 4 -36.2871 4.36471
    endloop
  endfacet
  facet normal 1 0 1.77321e-016
    outer loop
      vertex 4 -30.5225 5.63001
      vertex 4 -33.936 7.60078
      vertex 4 -32.1494 1.97582
    endloop
  endfacet
  facet normal 1 0 1.77321e-016
    outer loop
      vertex 4 -25.4365 0.271439
      vertex 4 -25.4365 4.27144
      vertex 4 -27.6055 0.499413
    endloop
  endfacet
  facet normal 1 0 1.77321e-016
    outer loop
      vertex 4 -25.4365 4.27144
      vertex 4 -26.7739 4.412
      vertex 4 -27.6055 0.499413
    endloop
  endfacet
  facet normal 1 0 1.77321e-016
    outer loop
      vertex 4 -27.6055 0.499413
      vertex 4 -30.5225 5.63001
      vertex 4 -32.1494 1.97582
    endloop
  endfacet
  facet normal 1 0 1.77321e-016
    outer loop
      vertex 4 -32.1494 1.97582
      vertex 4 -33.936 7.60078
      vertex 4 -36.2871 4.36471
    endloop
  endfacet
  facet normal 1 0 1.77321e-016
    outer loop
      vertex 4 -36.2871 4.36471
      vertex 4 -36.8651 10.2382
      vertex 4 -39.8377 7.56166
    endloop
  endfacet
  facet normal 1 0 1.77321e-016
    outer loop
      vertex 4 -39.8377 7.56166
      vertex 4 -39.1819 13.427
      vertex 4 -42.646 11.427
    endloop
  endfacet
  facet normal 1 0 1.77321e-016
    outer loop
      vertex 4 -42.646 11.427
      vertex 4 -40.785 17.0277
      vertex 4 -44.5893 15.7917
    endloop
  endfacet
  facet normal 1 0 1.77321e-016
    outer loop
      vertex 4 -44.5893 15.7917
      vertex 4 -41.6045 20.8831
      vertex 4 -45.5826 20.465
    endloop
  endfacet
  facet normal 1 0 1.77321e-016
    outer loop
      vertex 4 -45.5826 20.465
      vertex 4 -41.6045 24.8247
      vertex 4 -45.5826 25.2428
    endloop
  endfacet
  facet normal 1 0 1.77321e-016
    outer loop
      vertex 4 -41.6045 24.8247
      vertex 4 -40.785 28.6801
      vertex 4 -45.5826 25.2428
    endloop
  endfacet
  facet normal 1 0 1.77321e-016
    outer loop
      vertex 4 -45.5826 25.2428
      vertex 4 -39.1819 32.2809
      vertex 4 -44.5893 29.9162
    endloop
  endfacet
  facet normal 1 0 1.77321e-016
    outer loop
      vertex 4 -44.5893 29.9162
      vertex 4 -36.8651 35.4696
      vertex 4 -42.646 34.2809
    endloop
  endfacet
  facet normal 1 0 1.77321e-016
    outer loop
      vertex 4 -42.646 34.2809
      vertex 4 -33.936 38.107
      vertex 4 -39.8377 38.1462
    endloop
  endfacet
  facet normal 1 0 1.77321e-016
    outer loop
      vertex 4 -33.936 38.107
      vertex 4 -30.5225 40.0778
      vertex 4 -39.8377 38.1462
    endloop
  endfacet
  facet normal 1 0 1.77321e-016
    outer loop
      vertex 4 -39.8377 38.1462
      vertex 4 -26.7739 41.2958
      vertex 4 -36.2871 41.3431
    endloop
  endfacet
  facet normal 1 0 1.77321e-016
    outer loop
      vertex 4 -26.7739 4.412
      vertex 4 -30.5225 5.63001
      vertex 4 -27.6055 0.499413
    endloop
  endfacet
  facet normal 0.994522 0.104529 0
    outer loop
      vertex -22.8539 0 48.7078
      vertex -22.3545 -4.7516 48.7078
      vertex -22.3545 -4.7516 3
    endloop
  endfacet
  facet normal 0.994522 0.104529 0
    outer loop
      vertex -22.8539 0 3
      vertex -22.8539 0 48.7078
      vertex -22.3545 -4.7516 3
    endloop
  endfacet
  facet normal 0.951056 0.309017 0
    outer loop
      vertex -22.3545 -4.7516 48.7078
      vertex -20.8781 -9.29552 48.7078
      vertex -20.8781 -9.29552 3
    endloop
  endfacet
  facet normal 0.951056 0.309017 0
    outer loop
      vertex -22.3545 -4.7516 3
      vertex -22.3545 -4.7516 48.7078
      vertex -20.8781 -9.29552 3
    endloop
  endfacet
  facet normal 0.866025 0.5 0
    outer loop
      vertex -20.8781 -9.29552 48.7078
      vertex -18.4892 -13.4332 48.7078
      vertex -18.4892 -13.4332 3
    endloop
  endfacet
  facet normal 0.866025 0.5 0
    outer loop
      vertex -20.8781 -9.29552 3
      vertex -20.8781 -9.29552 48.7078
      vertex -18.4892 -13.4332 3
    endloop
  endfacet
  facet normal 0.743145 0.669131 0
    outer loop
      vertex -18.4892 -13.4332 48.7078
      vertex -15.2922 -16.9838 48.7078
      vertex -15.2922 -16.9838 3
    endloop
  endfacet
  facet normal 0.743145 0.669131 0
    outer loop
      vertex -18.4892 -13.4332 3
      vertex -18.4892 -13.4332 48.7078
      vertex -15.2922 -16.9838 3
    endloop
  endfacet
  facet normal 0.587785 0.809017 0
    outer loop
      vertex -11.427 -19.7921 48.7078
      vertex -11.427 -19.7921 3
      vertex -15.2922 -16.9838 48.7078
    endloop
  endfacet
  facet normal 0.587785 0.809017 0
    outer loop
      vertex -15.2922 -16.9838 48.7078
      vertex -11.427 -19.7921 3
      vertex -15.2922 -16.9838 3
    endloop
  endfacet
  facet normal 0.406737 0.913545 0
    outer loop
      vertex -7.06225 -21.7354 48.7078
      vertex -7.06225 -21.7354 3
      vertex -11.427 -19.7921 48.7078
    endloop
  endfacet
  facet normal 0.406737 0.913545 0
    outer loop
      vertex -11.427 -19.7921 48.7078
      vertex -7.06225 -21.7354 3
      vertex -11.427 -19.7921 3
    endloop
  endfacet
  facet normal 0.207912 0.978148 0
    outer loop
      vertex -2.38888 -22.7287 48.7078
      vertex -2.38888 -22.7287 3
      vertex -7.06225 -21.7354 48.7078
    endloop
  endfacet
  facet normal 0.207912 0.978148 0
    outer loop
      vertex -7.06225 -21.7354 48.7078
      vertex -2.38888 -22.7287 3
      vertex -7.06225 -21.7354 3
    endloop
  endfacet
  facet normal 0 1 0
    outer loop
      vertex 2.38888 -22.7287 48.7078
      vertex 2.38888 -22.7287 3
      vertex -2.38888 -22.7287 48.7078
    endloop
  endfacet
  facet normal 0 1 0
    outer loop
      vertex -2.38888 -22.7287 48.7078
      vertex 2.38888 -22.7287 3
      vertex -2.38888 -22.7287 3
    endloop
  endfacet
  facet normal -0.207912 0.978148 0
    outer loop
      vertex 7.06225 -21.7354 48.7078
      vertex 7.06225 -21.7354 3
      vertex 2.38888 -22.7287 48.7078
    endloop
  endfacet
  facet normal -0.207912 0.978148 0
    outer loop
      vertex 2.38888 -22.7287 48.7078
      vertex 7.06225 -21.7354 3
      vertex 2.38888 -22.7287 3
    endloop
  endfacet
  facet normal -0.406737 0.913545 0
    outer loop
      vertex 11.427 -19.7921 48.7078
      vertex 11.427 -19.7921 3
      vertex 7.06225 -21.7354 48.7078
    endloop
  endfacet
  facet normal -0.406737 0.913545 0
    outer loop
      vertex 7.06225 -21.7354 48.7078
      vertex 11.427 -19.7921 3
      vertex 7.06225 -21.7354 3
    endloop
  endfacet
  facet normal -0.587785 0.809017 0
    outer loop
      vertex 15.2922 -16.9838 48.7078
      vertex 15.2922 -16.9838 3
      vertex 11.427 -19.7921 48.7078
    endloop
  endfacet
  facet normal -0.587785 0.809017 0
    outer loop
      vertex 11.427 -19.7921 48.7078
      vertex 15.2922 -16.9838 3
      vertex 11.427 -19.7921 3
    endloop
  endfacet
  facet normal -0.743145 0.669131 0
    outer loop
      vertex 18.4892 -13.4332 48.7078
      vertex 18.4892 -13.4332 3
      vertex 15.2922 -16.9838 48.7078
    endloop
  endfacet
  facet normal -0.743145 0.669131 0
    outer loop
      vertex 15.2922 -16.9838 48.7078
      vertex 18.4892 -13.4332 3
      vertex 15.2922 -16.9838 3
    endloop
  endfacet
  facet normal -0.866025 0.5 0
    outer loop
      vertex 20.8781 -9.29552 48.7078
      vertex 20.8781 -9.29552 3
      vertex 18.4892 -13.4332 48.7078
    endloop
  endfacet
  facet normal -0.866025 0.5 0
    outer loop
      vertex 18.4892 -13.4332 48.7078
      vertex 20.8781 -9.29552 3
      vertex 18.4892 -13.4332 3
    endloop
  endfacet
  facet normal -0.951056 0.309017 0
    outer loop
      vertex 22.3545 -4.7516 48.7078
      vertex 22.3545 -4.7516 3
      vertex 20.8781 -9.29552 48.7078
    endloop
  endfacet
  facet normal -0.951056 0.309017 0
    outer loop
      vertex 20.8781 -9.29552 48.7078
      vertex 22.3545 -4.7516 3
      vertex 20.8781 -9.29552 3
    endloop
  endfacet
  facet normal -0.994522 0.104529 0
    outer loop
      vertex 22.8539 0 48.7078
      vertex 22.8539 0 3
      vertex 22.3545 -4.7516 48.7078
    endloop
  endfacet
  facet normal -0.994522 0.104529 0
    outer loop
      vertex 22.3545 -4.7516 48.7078
      vertex 22.8539 0 3
      vertex 22.3545 -4.7516 3
    endloop
  endfacet
  facet normal -0.994522 -0.104529 0
    outer loop
      vertex 22.8539 0 48.7078
      vertex 22.3545 4.7516 48.7078
      vertex 22.8539 0 3
    endloop
  endfacet
  facet normal -0.994522 -0.104529 0
    outer loop
      vertex 22.8539 0 3
      vertex 22.3545 4.7516 48.7078
      vertex 22.3545 4.7516 3
    endloop
  endfacet
  facet normal -0.951056 -0.309017 0
    outer loop
      vertex 22.3545 4.7516 48.7078
      vertex 20.8781 9.29552 48.7078
      vertex 22.3545 4.7516 3
    endloop
  endfacet
  facet normal -0.951056 -0.309017 0
    outer loop
      vertex 22.3545 4.7516 3
      vertex 20.8781 9.29552 48.7078
      vertex 20.8781 9.29552 3
    endloop
  endfacet
  facet normal -0.866025 -0.5 0
    outer loop
      vertex 20.8781 9.29552 48.7078
      vertex 18.4892 13.4332 48.7078
      vertex 20.8781 9.29552 3
    endloop
  endfacet
  facet normal -0.866025 -0.5 0
    outer loop
      vertex 20.8781 9.29552 3
      vertex 18.4892 13.4332 48.7078
      vertex 18.4892 13.4332 3
    endloop
  endfacet
  facet normal -0.743145 -0.669131 0
    outer loop
      vertex 18.4892 13.4332 48.7078
      vertex 15.2922 16.9838 48.7078
      vertex 18.4892 13.4332 3
    endloop
  endfacet
  facet normal -0.743145 -0.669131 0
    outer loop
      vertex 18.4892 13.4332 3
      vertex 15.2922 16.9838 48.7078
      vertex 15.2922 16.9838 3
    endloop
  endfacet
  facet normal -0.587785 -0.809017 0
    outer loop
      vertex 15.2922 16.9838 3
      vertex 15.2922 16.9838 48.7078
      vertex 11.427 19.7921 48.7078
    endloop
  endfacet
  facet normal -0.587785 -0.809017 0
    outer loop
      vertex 11.427 19.7921 3
      vertex 15.2922 16.9838 3
      vertex 11.427 19.7921 48.7078
    endloop
  endfacet
  facet normal -0.406737 -0.913545 0
    outer loop
      vertex 11.427 19.7921 3
      vertex 11.427 19.7921 48.7078
      vertex 7.06225 21.7354 48.7078
    endloop
  endfacet
  facet normal -0.406737 -0.913545 0
    outer loop
      vertex 7.06225 21.7354 3
      vertex 11.427 19.7921 3
      vertex 7.06225 21.7354 48.7078
    endloop
  endfacet
  facet normal -0.207912 -0.978148 0
    outer loop
      vertex 7.06225 21.7354 3
      vertex 7.06225 21.7354 48.7078
      vertex 2.38888 22.7287 48.7078
    endloop
  endfacet
  facet normal -0.207912 -0.978148 0
    outer loop
      vertex 2.38888 22.7287 3
      vertex 7.06225 21.7354 3
      vertex 2.38888 22.7287 48.7078
    endloop
  endfacet
  facet normal 0 -1 0
    outer loop
      vertex 2.38888 22.7287 3
      vertex 2.38888 22.7287 48.7078
      vertex -2.38888 22.7287 48.7078
    endloop
  endfacet
  facet normal 0 -1 0
    outer loop
      vertex -2.38888 22.7287 3
      vertex 2.38888 22.7287 3
      vertex -2.38888 22.7287 48.7078
    endloop
  endfacet
  facet normal 0.207912 -0.978148 0
    outer loop
      vertex -2.38888 22.7287 3
      vertex -2.38888 22.7287 48.7078
      vertex -7.06225 21.7354 48.7078
    endloop
  endfacet
  facet normal 0.207912 -0.978148 0
    outer loop
      vertex -7.06225 21.7354 3
      vertex -2.38888 22.7287 3
      vertex -7.06225 21.7354 48.7078
    endloop
  endfacet
  facet normal 0.406737 -0.913545 0
    outer loop
      vertex -7.06225 21.7354 3
      vertex -7.06225 21.7354 48.7078
      vertex -11.427 19.7921 48.7078
    endloop
  endfacet
  facet normal 0.406737 -0.913545 0
    outer loop
      vertex -11.427 19.7921 3
      vertex -7.06225 21.7354 3
      vertex -11.427 19.7921 48.7078
    endloop
  endfacet
  facet normal 0.587785 -0.809017 0
    outer loop
      vertex -11.427 19.7921 3
      vertex -11.427 19.7921 48.7078
      vertex -15.2922 16.9838 48.7078
    endloop
  endfacet
  facet normal 0.587785 -0.809017 0
    outer loop
      vertex -15.2922 16.9838 3
      vertex -11.427 19.7921 3
      vertex -15.2922 16.9838 48.7078
    endloop
  endfacet
  facet normal 0.743145 -0.669131 0
    outer loop
      vertex -15.2922 16.9838 3
      vertex -15.2922 16.9838 48.7078
      vertex -18.4892 13.4332 48.7078
    endloop
  endfacet
  facet normal 0.743145 -0.669131 0
    outer loop
      vertex -18.4892 13.4332 3
      vertex -15.2922 16.9838 3
      vertex -18.4892 13.4332 48.7078
    endloop
  endfacet
  facet normal 0.866025 -0.5 0
    outer loop
      vertex -18.4892 13.4332 3
      vertex -18.4892 13.4332 48.7078
      vertex -20.8781 9.29552 48.7078
    endloop
  endfacet
  facet normal 0.866025 -0.5 0
    outer loop
      vertex -20.8781 9.29552 3
      vertex -18.4892 13.4332 3
      vertex -20.8781 9.29552 48.7078
    endloop
  endfacet
  facet normal 0.951056 -0.309017 0
    outer loop
      vertex -20.8781 9.29552 3
      vertex -20.8781 9.29552 48.7078
      vertex -22.3545 4.7516 48.7078
    endloop
  endfacet
  facet normal 0.951056 -0.309017 0
    outer loop
      vertex -22.3545 4.7516 3
      vertex -20.8781 9.29552 3
      vertex -22.3545 4.7516 48.7078
    endloop
  endfacet
  facet normal 0.994522 -0.104529 0
    outer loop
      vertex -22.3545 4.7516 3
      vertex -22.3545 4.7516 48.7078
      vertex -22.8539 0 48.7078
    endloop
  endfacet
  facet normal 0.994522 -0.104529 0
    outer loop
      vertex -22.8539 0 3
      vertex -22.3545 4.7516 3
      vertex -22.8539 0 48.7078
    endloop
  endfacet
  facet normal -2.11177e-016 -0.309017 0.951056
    outer loop
      vertex 4 -27.6055 45.2084
      vertex -3.96393e-015 -27.6055 45.2084
      vertex -3.70213e-015 -32.1494 43.732
    endloop
  endfacet
  facet normal -2.11177e-016 -0.309017 0.951056
    outer loop
      vertex 4 -32.1494 43.732
      vertex 4 -27.6055 45.2084
      vertex -3.70213e-015 -32.1494 43.732
    endloop
  endfacet
  facet normal -1.92296e-016 -0.5 0.866025
    outer loop
      vertex 4 -32.1494 43.732
      vertex -3.70213e-015 -32.1494 43.732
      vertex -3.27853e-015 -36.2871 41.3431
    endloop
  endfacet
  facet normal -1.92296e-016 -0.5 0.866025
    outer loop
      vertex 4 -36.2871 41.3431
      vertex 4 -32.1494 43.732
      vertex -3.27853e-015 -36.2871 41.3431
    endloop
  endfacet
  facet normal -1.65011e-016 -0.669131 0.743145
    outer loop
      vertex 4 -36.2871 41.3431
      vertex -3.27853e-015 -36.2871 41.3431
      vertex -2.71164e-015 -39.8377 38.1462
    endloop
  endfacet
  facet normal -1.65011e-016 -0.669131 0.743145
    outer loop
      vertex 4 -39.8377 38.1462
      vertex 4 -36.2871 41.3431
      vertex -2.71164e-015 -39.8377 38.1462
    endloop
  endfacet
  facet normal -1.30515e-016 -0.809017 0.587785
    outer loop
      vertex 4 -39.8377 38.1462
      vertex -2.71164e-015 -39.8377 38.1462
      vertex -2.02624e-015 -42.646 34.2809
    endloop
  endfacet
  facet normal -1.30515e-016 -0.809017 0.587785
    outer loop
      vertex 4 -42.646 34.2809
      vertex 4 -39.8377 38.1462
      vertex -2.02624e-015 -42.646 34.2809
    endloop
  endfacet
  facet normal -9.03137e-017 -0.913545 0.406737
    outer loop
      vertex 4 -42.646 34.2809
      vertex -2.02624e-015 -42.646 34.2809
      vertex -1.25229e-015 -44.5893 29.9162
    endloop
  endfacet
  facet normal -9.03137e-017 -0.913545 0.406737
    outer loop
      vertex 4 -44.5893 29.9162
      vertex 4 -42.646 34.2809
      vertex -1.25229e-015 -44.5893 29.9162
    endloop
  endfacet
  facet normal -4.61656e-017 -0.978148 0.207912
    outer loop
      vertex 4 -44.5893 29.9162
      vertex -1.25229e-015 -44.5893 29.9162
      vertex -4.236e-016 -45.5826 25.2428
    endloop
  endfacet
  facet normal -4.61656e-017 -0.978148 0.207912
    outer loop
      vertex 4 -45.5826 25.2428
      vertex 4 -44.5893 29.9162
      vertex -4.236e-016 -45.5826 25.2428
    endloop
  endfacet
  facet normal 0 -1 0
    outer loop
      vertex 4 -45.5826 25.2428
      vertex -4.236e-016 -45.5826 25.2428
      vertex 4.236e-016 -45.5826 20.465
    endloop
  endfacet
  facet normal 0 -1 0
    outer loop
      vertex 4 -45.5826 20.465
      vertex 4 -45.5826 25.2428
      vertex 4.236e-016 -45.5826 20.465
    endloop
  endfacet
  facet normal 4.61656e-017 -0.978148 -0.207912
    outer loop
      vertex 4 -45.5826 20.465
      vertex 4.236e-016 -45.5826 20.465
      vertex 1.25229e-015 -44.5893 15.7917
    endloop
  endfacet
  facet normal 4.61656e-017 -0.978148 -0.207912
    outer loop
      vertex 4 -44.5893 15.7917
      vertex 4 -45.5826 20.465
      vertex 1.25229e-015 -44.5893 15.7917
    endloop
  endfacet
  facet normal 9.03137e-017 -0.913545 -0.406737
    outer loop
      vertex 4 -44.5893 15.7917
      vertex 1.25229e-015 -44.5893 15.7917
      vertex 2.02624e-015 -42.646 11.427
    endloop
  endfacet
  facet normal 9.03137e-017 -0.913545 -0.406737
    outer loop
      vertex 4 -42.646 11.427
      vertex 4 -44.5893 15.7917
      vertex 2.02624e-015 -42.646 11.427
    endloop
  endfacet
  facet normal 1.30515e-016 -0.809017 -0.587785
    outer loop
      vertex 4 -42.646 11.427
      vertex 2.02624e-015 -42.646 11.427
      vertex 2.71164e-015 -39.8377 7.56166
    endloop
  endfacet
  facet normal 1.30515e-016 -0.809017 -0.587785
    outer loop
      vertex 4 -39.8377 7.56166
      vertex 4 -42.646 11.427
      vertex 2.71164e-015 -39.8377 7.56166
    endloop
  endfacet
  facet normal 1.65011e-016 -0.669131 -0.743145
    outer loop
      vertex 2.71164e-015 -39.8377 7.56166
      vertex 3.27853e-015 -36.2871 4.36471
      vertex 4 -39.8377 7.56166
    endloop
  endfacet
  facet normal 1.65011e-016 -0.669131 -0.743145
    outer loop
      vertex 4 -39.8377 7.56166
      vertex 3.27853e-015 -36.2871 4.36471
      vertex 4 -36.2871 4.36471
    endloop
  endfacet
  facet normal 1.92296e-016 -0.5 -0.866025
    outer loop
      vertex 3.27853e-015 -36.2871 4.36471
      vertex 3.70213e-015 -32.1494 1.97582
      vertex 4 -36.2871 4.36471
    endloop
  endfacet
  facet normal 1.92296e-016 -0.5 -0.866025
    outer loop
      vertex 4 -36.2871 4.36471
      vertex 3.70213e-015 -32.1494 1.97582
      vertex 4 -32.1494 1.97582
    endloop
  endfacet
  facet normal 2.11177e-016 -0.309017 -0.951056
    outer loop
      vertex 3.70213e-015 -32.1494 1.97582
      vertex 3.96393e-015 -27.6055 0.499413
      vertex 4 -32.1494 1.97582
    endloop
  endfacet
  facet normal 2.11177e-016 -0.309017 -0.951056
    outer loop
      vertex 4 -32.1494 1.97582
      vertex 3.96393e-015 -27.6055 0.499413
      vertex 4 -27.6055 0.499413
    endloop
  endfacet
  facet normal -2.11177e-016 0.309017 0.951057
    outer loop
      vertex 4 -30.5225 5.63001
      vertex 4 -26.7739 4.412
      vertex 3.27014e-015 -26.7739 4.412
    endloop
  endfacet
  facet normal -2.11177e-016 0.309017 0.951057
    outer loop
      vertex 3.05416e-015 -30.5225 5.63001
      vertex 4 -30.5225 5.63001
      vertex 3.27014e-015 -26.7739 4.412
    endloop
  endfacet
  facet normal -1.92296e-016 0.5 0.866025
    outer loop
      vertex 4 -33.936 7.60078
      vertex 4 -30.5225 5.63001
      vertex 3.05416e-015 -30.5225 5.63001
    endloop
  endfacet
  facet normal -1.92296e-016 0.5 0.866025
    outer loop
      vertex 2.7047e-015 -33.936 7.60078
      vertex 4 -33.936 7.60078
      vertex 3.05416e-015 -30.5225 5.63001
    endloop
  endfacet
  facet normal -1.65011e-016 0.669131 0.743145
    outer loop
      vertex 4 -36.8651 10.2382
      vertex 4 -33.936 7.60078
      vertex 2.7047e-015 -33.936 7.60078
    endloop
  endfacet
  facet normal -1.65011e-016 0.669131 0.743145
    outer loop
      vertex 2.23704e-015 -36.8651 10.2382
      vertex 4 -36.8651 10.2382
      vertex 2.7047e-015 -33.936 7.60078
    endloop
  endfacet
  facet normal -1.30515e-016 0.809017 0.587785
    outer loop
      vertex 4 -36.8651 10.2382
      vertex 2.23704e-015 -36.8651 10.2382
      vertex 4 -39.1819 13.427
    endloop
  endfacet
  facet normal -1.30515e-016 0.809017 0.587785
    outer loop
      vertex 4 -39.1819 13.427
      vertex 2.23704e-015 -36.8651 10.2382
      vertex 1.6716e-015 -39.1819 13.427
    endloop
  endfacet
  facet normal -9.03137e-017 0.913545 0.406737
    outer loop
      vertex 4 -39.1819 13.427
      vertex 1.6716e-015 -39.1819 13.427
      vertex 4 -40.785 17.0277
    endloop
  endfacet
  facet normal -9.03137e-017 0.913545 0.406737
    outer loop
      vertex 4 -40.785 17.0277
      vertex 1.6716e-015 -39.1819 13.427
      vertex 1.03311e-015 -40.785 17.0277
    endloop
  endfacet
  facet normal -4.61657e-017 0.978148 0.207912
    outer loop
      vertex 4 -40.785 17.0277
      vertex 1.03311e-015 -40.785 17.0277
      vertex 4 -41.6045 20.8831
    endloop
  endfacet
  facet normal -4.61657e-017 0.978148 0.207912
    outer loop
      vertex 4 -41.6045 20.8831
      vertex 1.03311e-015 -40.785 17.0277
      vertex 3.49459e-016 -41.6045 20.8831
    endloop
  endfacet
  facet normal 0 1 0
    outer loop
      vertex 4 -41.6045 20.8831
      vertex 3.49459e-016 -41.6045 20.8831
      vertex 4 -41.6045 24.8247
    endloop
  endfacet
  facet normal 0 1 0
    outer loop
      vertex 4 -41.6045 24.8247
      vertex 3.49459e-016 -41.6045 20.8831
      vertex -3.49459e-016 -41.6045 24.8247
    endloop
  endfacet
  facet normal 4.61657e-017 0.978148 -0.207912
    outer loop
      vertex 4 -41.6045 24.8247
      vertex -3.49459e-016 -41.6045 24.8247
      vertex 4 -40.785 28.6801
    endloop
  endfacet
  facet normal 4.61657e-017 0.978148 -0.207912
    outer loop
      vertex 4 -40.785 28.6801
      vertex -3.49459e-016 -41.6045 24.8247
      vertex -1.03311e-015 -40.785 28.6801
    endloop
  endfacet
  facet normal 9.03137e-017 0.913545 -0.406737
    outer loop
      vertex 4 -40.785 28.6801
      vertex -1.03311e-015 -40.785 28.6801
      vertex 4 -39.1819 32.2809
    endloop
  endfacet
  facet normal 9.03137e-017 0.913545 -0.406737
    outer loop
      vertex 4 -39.1819 32.2809
      vertex -1.03311e-015 -40.785 28.6801
      vertex -1.6716e-015 -39.1819 32.2809
    endloop
  endfacet
  facet normal 1.30515e-016 0.809017 -0.587785
    outer loop
      vertex 4 -39.1819 32.2809
      vertex -1.6716e-015 -39.1819 32.2809
      vertex 4 -36.8651 35.4696
    endloop
  endfacet
  facet normal 1.30515e-016 0.809017 -0.587785
    outer loop
      vertex 4 -36.8651 35.4696
      vertex -1.6716e-015 -39.1819 32.2809
      vertex -2.23704e-015 -36.8651 35.4696
    endloop
  endfacet
  facet normal 1.65011e-016 0.669131 -0.743145
    outer loop
      vertex 4 -36.8651 35.4696
      vertex -2.23704e-015 -36.8651 35.4696
      vertex 4 -33.936 38.107
    endloop
  endfacet
  facet normal 1.65011e-016 0.669131 -0.743145
    outer loop
      vertex 4 -33.936 38.107
      vertex -2.23704e-015 -36.8651 35.4696
      vertex -2.7047e-015 -33.936 38.107
    endloop
  endfacet
  facet normal 1.92296e-016 0.5 -0.866025
    outer loop
      vertex 4 -33.936 38.107
      vertex -2.7047e-015 -33.936 38.107
      vertex 4 -30.5225 40.0778
    endloop
  endfacet
  facet normal 1.92296e-016 0.5 -0.866025
    outer loop
      vertex 4 -30.5225 40.0778
      vertex -2.7047e-015 -33.936 38.107
      vertex -3.05416e-015 -30.5225 40.0778
    endloop
  endfacet
  facet normal 2.11177e-016 0.309017 -0.951057
    outer loop
      vertex 4 -30.5225 40.0778
      vertex -3.05416e-015 -30.5225 40.0778
      vertex 4 -26.7739 41.2958
    endloop
  endfacet
  facet normal 2.11177e-016 0.309017 -0.951057
    outer loop
      vertex 4 -26.7739 41.2958
      vertex -3.05416e-015 -30.5225 40.0778
      vertex -3.27014e-015 -26.7739 41.2958
    endloop
  endfacet
  facet normal 0 0 1
    outer loop
      vertex -22.3545 -4.7516 3
      vertex -20.8781 -9.29552 3
      vertex -18.4892 -13.4332 3
    endloop
  endfacet
  facet normal 0 0 1
    outer loop
      vertex -11.427 -19.7921 3
      vertex -22.3545 -4.7516 3
      vertex -15.2922 -16.9838 3
    endloop
  endfacet
  facet normal 0 0 1
    outer loop
      vertex -15.2922 -16.9838 3
      vertex -22.3545 -4.7516 3
      vertex -18.4892 -13.4332 3
    endloop
  endfacet
  facet normal 0 0 1
    outer loop
      vertex -7.06225 -21.7354 3
      vertex -22.3545 -4.7516 3
      vertex -11.427 -19.7921 3
    endloop
  endfacet
  facet normal 0 0 1
    outer loop
      vertex -2.38888 -22.7287 3
      vertex -22.3545 -4.7516 3
      vertex -7.06225 -21.7354 3
    endloop
  endfacet
  facet normal 0 0 1
    outer loop
      vertex 2.38888 -22.7287 3
      vertex -22.3545 -4.7516 3
      vertex -2.38888 -22.7287 3
    endloop
  endfacet
  facet normal 0 0 1
    outer loop
      vertex 7.06225 -21.7354 3
      vertex -22.3545 -4.7516 3
      vertex 2.38888 -22.7287 3
    endloop
  endfacet
  facet normal 0 0 1
    outer loop
      vertex 11.427 -19.7921 3
      vertex -22.3545 -4.7516 3
      vertex 7.06225 -21.7354 3
    endloop
  endfacet
  facet normal 0 0 1
    outer loop
      vertex 15.2922 -16.9838 3
      vertex -22.3545 -4.7516 3
      vertex 11.427 -19.7921 3
    endloop
  endfacet
  facet normal 0 0 1
    outer loop
      vertex 18.4892 -13.4332 3
      vertex -22.3545 -4.7516 3
      vertex 15.2922 -16.9838 3
    endloop
  endfacet
  facet normal 0 0 1
    outer loop
      vertex 20.8781 -9.29552 3
      vertex -22.3545 -4.7516 3
      vertex 18.4892 -13.4332 3
    endloop
  endfacet
  facet normal 0 0 1
    outer loop
      vertex 22.3545 -4.7516 3
      vertex -22.3545 -4.7516 3
      vertex 20.8781 -9.29552 3
    endloop
  endfacet
  facet normal 0 0 1
    outer loop
      vertex 22.8539 0 3
      vertex -22.3545 -4.7516 3
      vertex 22.3545 -4.7516 3
    endloop
  endfacet
  facet normal 0 0 1
    outer loop
      vertex 22.3545 4.7516 3
      vertex -22.3545 -4.7516 3
      vertex 22.8539 0 3
    endloop
  endfacet
  facet normal 0 0 1
    outer loop
      vertex 20.8781 9.29552 3
      vertex -22.3545 -4.7516 3
      vertex 22.3545 4.7516 3
    endloop
  endfacet
  facet normal 0 0 1
    outer loop
      vertex 18.4892 13.4332 3
      vertex -22.3545 -4.7516 3
      vertex 20.8781 9.29552 3
    endloop
  endfacet
  facet normal 0 0 1
    outer loop
      vertex 15.2922 16.9838 3
      vertex -22.3545 -4.7516 3
      vertex 18.4892 13.4332 3
    endloop
  endfacet
  facet normal 0 0 1
    outer loop
      vertex 11.427 19.7921 3
      vertex -22.3545 -4.7516 3
      vertex 15.2922 16.9838 3
    endloop
  endfacet
  facet normal 0 0 1
    outer loop
      vertex 7.06225 21.7354 3
      vertex -22.3545 -4.7516 3
      vertex 11.427 19.7921 3
    endloop
  endfacet
  facet normal 0 0 1
    outer loop
      vertex 2.38888 22.7287 3
      vertex -22.3545 -4.7516 3
      vertex 7.06225 21.7354 3
    endloop
  endfacet
  facet normal 0 0 1
    outer loop
      vertex -2.38888 22.7287 3
      vertex -22.3545 -4.7516 3
      vertex 2.38888 22.7287 3
    endloop
  endfacet
  facet normal 0 0 1
    outer loop
      vertex -7.06225 21.7354 3
      vertex -22.3545 -4.7516 3
      vertex -2.38888 22.7287 3
    endloop
  endfacet
  facet normal 0 0 1
    outer loop
      vertex -11.427 19.7921 3
      vertex -22.3545 -4.7516 3
      vertex -7.06225 21.7354 3
    endloop
  endfacet
  facet normal 0 0 1
    outer loop
      vertex -15.2922 16.9838 3
      vertex -22.3545 -4.7516 3
      vertex -11.427 19.7921 3
    endloop
  endfacet
  facet normal 0 0 1
    outer loop
      vertex -18.4892 13.4332 3
      vertex -22.3545 -4.7516 3
      vertex -15.2922 16.9838 3
    endloop
  endfacet
  facet normal 0 0 1
    outer loop
      vertex -20.8781 9.29552 3
      vertex -22.3545 -4.7516 3
      vertex -18.4892 13.4332 3
    endloop
  endfacet
  facet normal 0 0 1
    outer loop
      vertex -22.3545 4.7516 3
      vertex -22.3545 -4.7516 3
      vertex -20.8781 9.29552 3
    endloop
  endfacet
  facet normal 0 0 1
    outer loop
      vertex -22.8539 0 3
      vertex -22.3545 -4.7516 3
      vertex -22.3545 4.7516 3
    endloop
  endfacet
endsolid OpenSCAD_Model
