solid OpenSCAD_Model
  facet normal 0 0 -1
    outer loop
      vertex -10.9 0 0
      vertex -10.814 1.36613 0
      vertex -10.814 -1.36613 0
    endloop
  endfacet
  facet normal 0 0 -1
    outer loop
      vertex -10.814 -1.36613 0
      vertex -10.814 1.36613 0
      vertex -10.5576 2.71072 0
    endloop
  endfacet
  facet normal 0 0 -1
    outer loop
      vertex -10.814 -1.36613 0
      vertex -10.5576 2.71072 0
      vertex -10.1346 4.01256 0
    endloop
  endfacet
  facet normal 0 0 -1
    outer loop
      vertex -10.814 -1.36613 0
      vertex -10.1346 4.01256 0
      vertex -9.55174 5.25111 0
    endloop
  endfacet
  facet normal 0 0 -1
    outer loop
      vertex -10.814 -1.36613 0
      vertex -9.55174 5.25111 0
      vertex -8.81828 6.40686 0
    endloop
  endfacet
  facet normal 0 0 -1
    outer loop
      vertex -10.814 -1.36613 0
      vertex -8.81828 6.40686 0
      vertex -7.94576 7.46156 0
    endloop
  endfacet
  facet normal 0 0 -1
    outer loop
      vertex -10.814 -1.36613 0
      vertex -7.94576 7.46156 0
      vertex -6.94792 8.39859 0
    endloop
  endfacet
  facet normal 0 0 -1
    outer loop
      vertex -10.814 -1.36613 0
      vertex -6.94792 8.39859 0
      vertex -5.84051 9.20317 0
    endloop
  endfacet
  facet normal 0 0 -1
    outer loop
      vertex -7.71171 4.63998 0
      vertex -5.84051 9.20317 0
      vertex -4.64099 9.86261 0
    endloop
  endfacet
  facet normal 0 0 -1
    outer loop
      vertex -6.53396 6.18929 0
      vertex -4.64099 9.86261 0
      vertex -3.36828 10.3665 0
    endloop
  endfacet
  facet normal 0 0 -1
    outer loop
      vertex -5.05068 7.4492 0
      vertex -3.36828 10.3665 0
      vertex -2.04246 10.7069 0
    endloop
  endfacet
  facet normal 0 0 -1
    outer loop
      vertex -3.33124 8.36079 0
      vertex -2.04246 10.7069 0
      vertex -0.684417 10.8785 0
    endloop
  endfacet
  facet normal 0 0 -1
    outer loop
      vertex -1.45604 8.88144 0
      vertex -0.684417 10.8785 0
      vertex 0.684417 10.8785 0
    endloop
  endfacet
  facet normal 0 0 -1
    outer loop
      vertex 7.16484 -5.44657 0
      vertex 8.81828 -6.40686 0
      vertex 7.94576 -7.46156 0
    endloop
  endfacet
  facet normal 0 0 -1
    outer loop
      vertex 0.48725 8.9868 0
      vertex 2.04246 10.7069 0
      vertex 3.36828 10.3665 0
    endloop
  endfacet
  facet normal 0 0 -1
    outer loop
      vertex 2.40775 8.67195 0
      vertex 3.36828 10.3665 0
      vertex 4.64099 9.86261 0
    endloop
  endfacet
  facet normal 0 0 -1
    outer loop
      vertex 8.78958 -1.93473 0
      vertex 10.5576 -2.71072 0
      vertex 10.1346 -4.01256 0
    endloop
  endfacet
  facet normal 0 0 -1
    outer loop
      vertex 4.21568 7.95161 0
      vertex 5.84051 9.20317 0
      vertex 6.94792 8.39859 0
    endloop
  endfacet
  facet normal 0 0 -1
    outer loop
      vertex 5.82648 6.85946 0
      vertex 6.94792 8.39859 0
      vertex 7.94576 7.46156 0
    endloop
  endfacet
  facet normal 0 0 -1
    outer loop
      vertex 7.16484 5.44657 0
      vertex 8.81828 6.40686 0
      vertex 9.55174 5.25111 0
    endloop
  endfacet
  facet normal 0 0 -1
    outer loop
      vertex 8.16818 3.779 0
      vertex 9.55174 5.25111 0
      vertex 10.1346 4.01256 0
    endloop
  endfacet
  facet normal 0 0 -1
    outer loop
      vertex 8.78958 1.93473 0
      vertex 10.5576 2.71072 0
      vertex 10.814 1.36613 0
    endloop
  endfacet
  facet normal 0 0 -1
    outer loop
      vertex 9 0 0
      vertex 10.814 1.36613 0
      vertex 10.9 0 0
    endloop
  endfacet
  facet normal 0 0 -1
    outer loop
      vertex 8.78958 -1.93473 0
      vertex 10.814 -1.36613 0
      vertex 10.5576 -2.71072 0
    endloop
  endfacet
  facet normal 0 0 -1
    outer loop
      vertex 8.16818 -3.779 0
      vertex 10.1346 -4.01256 0
      vertex 9.55174 -5.25111 0
    endloop
  endfacet
  facet normal 0 0 -1
    outer loop
      vertex 7.16484 -5.44657 0
      vertex 9.55174 -5.25111 0
      vertex 8.81828 -6.40686 0
    endloop
  endfacet
  facet normal 0 0 -1
    outer loop
      vertex 5.82648 -6.85946 0
      vertex 7.94576 -7.46156 0
      vertex 6.94792 -8.39859 0
    endloop
  endfacet
  facet normal 0 0 -1
    outer loop
      vertex 4.21568 -7.95161 0
      vertex 6.94792 -8.39859 0
      vertex 5.84051 -9.20317 0
    endloop
  endfacet
  facet normal 0 0 -1
    outer loop
      vertex 2.40775 -8.67195 0
      vertex 4.64099 -9.86261 0
      vertex 3.36828 -10.3665 0
    endloop
  endfacet
  facet normal 0 0 -1
    outer loop
      vertex 0.48725 -8.9868 0
      vertex 3.36828 -10.3665 0
      vertex 2.04246 -10.7069 0
    endloop
  endfacet
  facet normal 0 0 -1
    outer loop
      vertex -1.45604 -8.88144 0
      vertex 2.04246 -10.7069 0
      vertex 0.684417 -10.8785 0
    endloop
  endfacet
  facet normal 0 0 -1
    outer loop
      vertex -3.33124 -8.36079 0
      vertex 0.684417 -10.8785 0
      vertex -0.684417 -10.8785 0
    endloop
  endfacet
  facet normal 0 0 -1
    outer loop
      vertex -5.05068 -7.4492 0
      vertex -0.684417 -10.8785 0
      vertex -2.04246 -10.7069 0
    endloop
  endfacet
  facet normal 0 0 -1
    outer loop
      vertex -6.53396 -6.18929 0
      vertex -2.04246 -10.7069 0
      vertex -3.36828 -10.3665 0
    endloop
  endfacet
  facet normal 0 0 -1
    outer loop
      vertex -10.814 -1.36613 0
      vertex -3.36828 -10.3665 0
      vertex -4.64099 -9.86261 0
    endloop
  endfacet
  facet normal 0 0 -1
    outer loop
      vertex -10.814 -1.36613 0
      vertex -4.64099 -9.86261 0
      vertex -5.84051 -9.20317 0
    endloop
  endfacet
  facet normal 0 0 -1
    outer loop
      vertex -10.814 -1.36613 0
      vertex -5.84051 -9.20317 0
      vertex -6.94792 -8.39859 0
    endloop
  endfacet
  facet normal 0 0 -1
    outer loop
      vertex -10.814 -1.36613 0
      vertex -6.94792 -8.39859 0
      vertex -7.94576 -7.46156 0
    endloop
  endfacet
  facet normal 0 0 -1
    outer loop
      vertex -10.814 -1.36613 0
      vertex -7.94576 -7.46156 0
      vertex -8.81828 -6.40686 0
    endloop
  endfacet
  facet normal 0 0 -1
    outer loop
      vertex -10.814 -1.36613 0
      vertex -8.81828 -6.40686 0
      vertex -9.55174 -5.25111 0
    endloop
  endfacet
  facet normal 0 0 -1
    outer loop
      vertex -10.814 -1.36613 0
      vertex -9.55174 -5.25111 0
      vertex -10.1346 -4.01256 0
    endloop
  endfacet
  facet normal 0 0 -1
    outer loop
      vertex -10.814 -1.36613 0
      vertex -10.1346 -4.01256 0
      vertex -10.5576 -2.71072 0
    endloop
  endfacet
  facet normal 0 0 -1
    outer loop
      vertex -8.94724 -0.973071 0
      vertex -10.814 -1.36613 0
      vertex -8.94724 0.973071 0
    endloop
  endfacet
  facet normal 0 0 -1
    outer loop
      vertex -8.52888 -2.87371 0
      vertex -10.814 -1.36613 0
      vertex -8.94724 -0.973071 0
    endloop
  endfacet
  facet normal 0 0 -1
    outer loop
      vertex -7.71171 -4.63998 0
      vertex -10.814 -1.36613 0
      vertex -8.52888 -2.87371 0
    endloop
  endfacet
  facet normal 0 0 -1
    outer loop
      vertex -6.53396 -6.18929 0
      vertex -10.814 -1.36613 0
      vertex -7.71171 -4.63998 0
    endloop
  endfacet
  facet normal 0 0 -1
    outer loop
      vertex -5.05068 -7.4492 0
      vertex -2.04246 -10.7069 0
      vertex -6.53396 -6.18929 0
    endloop
  endfacet
  facet normal 0 0 -1
    outer loop
      vertex -10.814 -1.36613 0
      vertex -6.53396 -6.18929 0
      vertex -3.36828 -10.3665 0
    endloop
  endfacet
  facet normal 0 0 -1
    outer loop
      vertex -3.33124 -8.36079 0
      vertex -0.684417 -10.8785 0
      vertex -5.05068 -7.4492 0
    endloop
  endfacet
  facet normal 0 0 -1
    outer loop
      vertex 2.40775 -8.67195 0
      vertex 3.36828 -10.3665 0
      vertex 0.48725 -8.9868 0
    endloop
  endfacet
  facet normal 0 0 -1
    outer loop
      vertex 0.48725 -8.9868 0
      vertex 2.04246 -10.7069 0
      vertex -1.45604 -8.88144 0
    endloop
  endfacet
  facet normal 0 0 -1
    outer loop
      vertex -1.45604 -8.88144 0
      vertex 0.684417 -10.8785 0
      vertex -3.33124 -8.36079 0
    endloop
  endfacet
  facet normal 0 0 -1
    outer loop
      vertex 8.16818 3.779 0
      vertex 10.1346 4.01256 0
      vertex 10.5576 2.71072 0
    endloop
  endfacet
  facet normal 0 0 -1
    outer loop
      vertex 8.78958 1.93473 0
      vertex 10.814 1.36613 0
      vertex 9 0 0
    endloop
  endfacet
  facet normal 0 0 -1
    outer loop
      vertex 8.16818 3.779 0
      vertex 10.5576 2.71072 0
      vertex 8.78958 1.93473 0
    endloop
  endfacet
  facet normal 0 0 -1
    outer loop
      vertex 9 0 0
      vertex 10.9 0 0
      vertex 10.814 -1.36613 0
    endloop
  endfacet
  facet normal 0 0 -1
    outer loop
      vertex 9 0 0
      vertex 10.814 -1.36613 0
      vertex 8.78958 -1.93473 0
    endloop
  endfacet
  facet normal 0 0 -1
    outer loop
      vertex 8.16818 -3.779 0
      vertex 9.55174 -5.25111 0
      vertex 7.16484 -5.44657 0
    endloop
  endfacet
  facet normal 0 0 -1
    outer loop
      vertex 8.78958 -1.93473 0
      vertex 10.1346 -4.01256 0
      vertex 8.16818 -3.779 0
    endloop
  endfacet
  facet normal 0 0 -1
    outer loop
      vertex 5.82648 -6.85946 0
      vertex 6.94792 -8.39859 0
      vertex 4.21568 -7.95161 0
    endloop
  endfacet
  facet normal 0 0 -1
    outer loop
      vertex 7.16484 -5.44657 0
      vertex 7.94576 -7.46156 0
      vertex 5.82648 -6.85946 0
    endloop
  endfacet
  facet normal 0 0 -1
    outer loop
      vertex -5.05068 7.4492 0
      vertex -2.04246 10.7069 0
      vertex -3.33124 8.36079 0
    endloop
  endfacet
  facet normal 0 0 -1
    outer loop
      vertex -3.33124 8.36079 0
      vertex -0.684417 10.8785 0
      vertex -1.45604 8.88144 0
    endloop
  endfacet
  facet normal 0 0 -1
    outer loop
      vertex -10.814 -1.36613 0
      vertex -5.84051 9.20317 0
      vertex -7.71171 4.63998 0
    endloop
  endfacet
  facet normal 0 0 -1
    outer loop
      vertex -10.814 -1.36613 0
      vertex -7.71171 4.63998 0
      vertex -8.52888 2.87371 0
    endloop
  endfacet
  facet normal 0 0 -1
    outer loop
      vertex -1.45604 8.88144 0
      vertex 0.684417 10.8785 0
      vertex 2.04246 10.7069 0
    endloop
  endfacet
  facet normal 0 0 -1
    outer loop
      vertex -8.94724 0.973071 0
      vertex -10.814 -1.36613 0
      vertex -8.52888 2.87371 0
    endloop
  endfacet
  facet normal 0 0 -1
    outer loop
      vertex -7.71171 4.63998 0
      vertex -4.64099 9.86261 0
      vertex -6.53396 6.18929 0
    endloop
  endfacet
  facet normal 0 0 -1
    outer loop
      vertex -6.53396 6.18929 0
      vertex -3.36828 10.3665 0
      vertex -5.05068 7.4492 0
    endloop
  endfacet
  facet normal 0 0 -1
    outer loop
      vertex -1.45604 8.88144 0
      vertex 2.04246 10.7069 0
      vertex 0.48725 8.9868 0
    endloop
  endfacet
  facet normal 0 0 -1
    outer loop
      vertex 0.48725 8.9868 0
      vertex 3.36828 10.3665 0
      vertex 2.40775 8.67195 0
    endloop
  endfacet
  facet normal 0 0 -1
    outer loop
      vertex 2.40775 8.67195 0
      vertex 4.64099 9.86261 0
      vertex 5.84051 9.20317 0
    endloop
  endfacet
  facet normal 0 0 -1
    outer loop
      vertex 2.40775 8.67195 0
      vertex 5.84051 9.20317 0
      vertex 4.21568 7.95161 0
    endloop
  endfacet
  facet normal 0 0 -1
    outer loop
      vertex 4.21568 7.95161 0
      vertex 6.94792 8.39859 0
      vertex 5.82648 6.85946 0
    endloop
  endfacet
  facet normal 0 0 -1
    outer loop
      vertex 5.82648 6.85946 0
      vertex 7.94576 7.46156 0
      vertex 8.81828 6.40686 0
    endloop
  endfacet
  facet normal 0 0 -1
    outer loop
      vertex 5.82648 6.85946 0
      vertex 8.81828 6.40686 0
      vertex 7.16484 5.44657 0
    endloop
  endfacet
  facet normal 0 0 -1
    outer loop
      vertex 7.16484 5.44657 0
      vertex 9.55174 5.25111 0
      vertex 8.16818 3.779 0
    endloop
  endfacet
  facet normal 0 0 -1
    outer loop
      vertex 4.21568 -7.95161 0
      vertex 5.84051 -9.20317 0
      vertex 4.64099 -9.86261 0
    endloop
  endfacet
  facet normal 0 0 -1
    outer loop
      vertex 4.21568 -7.95161 0
      vertex 4.64099 -9.86261 0
      vertex 2.40775 -8.67195 0
    endloop
  endfacet
  facet normal -0.998027 0.0627907 0
    outer loop
      vertex -10.9 0 0
      vertex -10.9 0 15
      vertex -10.814 1.36613 0
    endloop
  endfacet
  facet normal -0.998027 0.0627907 0
    outer loop
      vertex -10.814 1.36613 0
      vertex -10.9 0 15
      vertex -10.814 1.36613 15
    endloop
  endfacet
  facet normal -0.998027 -0.0627907 0
    outer loop
      vertex -10.9 0 0
      vertex -10.814 -1.36613 0
      vertex -10.9 0 15
    endloop
  endfacet
  facet normal -0.998027 -0.0627907 0
    outer loop
      vertex -10.9 0 15
      vertex -10.814 -1.36613 0
      vertex -10.814 -1.36613 15
    endloop
  endfacet
  facet normal -0.982287 -0.187381 0
    outer loop
      vertex -10.814 -1.36613 0
      vertex -10.5576 -2.71072 0
      vertex -10.814 -1.36613 15
    endloop
  endfacet
  facet normal -0.982287 -0.187381 0
    outer loop
      vertex -10.6147 -2.41131 15
      vertex -10.5576 -2.71072 0
      vertex -10.5576 -2.71072 15
    endloop
  endfacet
  facet normal -0.982287 -0.187381 0
    outer loop
      vertex -10.6857 -2.03901 15
      vertex -10.5576 -2.71072 0
      vertex -10.6147 -2.41131 15
    endloop
  endfacet
  facet normal -0.982287 -0.187381 0
    outer loop
      vertex -10.814 -1.36613 15
      vertex -10.5576 -2.71072 0
      vertex -10.6857 -2.03901 15
    endloop
  endfacet
  facet normal -0.951057 -0.309016 0
    outer loop
      vertex -10.5576 -2.71072 0
      vertex -10.1346 -4.01256 0
      vertex -10.5576 -2.71072 15
    endloop
  endfacet
  facet normal -0.951057 -0.309016 0
    outer loop
      vertex -10.5576 -2.71072 15
      vertex -10.1346 -4.01256 0
      vertex -10.1346 -4.01256 15
    endloop
  endfacet
  facet normal -0.904827 -0.425779 0
    outer loop
      vertex -10.1346 -4.01256 0
      vertex -9.55174 -5.25111 0
      vertex -10.1346 -4.01256 15
    endloop
  endfacet
  facet normal -0.904827 -0.425779 0
    outer loop
      vertex -9.84341 -4.63128 15
      vertex -9.55174 -5.25111 0
      vertex -9.55174 -5.25111 15
    endloop
  endfacet
  facet normal -0.904827 -0.425779 0
    outer loop
      vertex -10.0048 -4.28836 15
      vertex -9.55174 -5.25111 0
      vertex -9.84341 -4.63128 15
    endloop
  endfacet
  facet normal -0.904827 -0.425779 0
    outer loop
      vertex -10.1346 -4.01256 15
      vertex -9.55174 -5.25111 0
      vertex -10.0048 -4.28836 15
    endloop
  endfacet
  facet normal -0.844328 -0.535827 0
    outer loop
      vertex -9.55174 -5.25111 0
      vertex -8.81828 -6.40686 0
      vertex -9.55174 -5.25111 15
    endloop
  endfacet
  facet normal -0.844328 -0.535827 0
    outer loop
      vertex -9.55174 -5.25111 15
      vertex -8.81828 -6.40686 0
      vertex -8.81828 -6.40686 15
    endloop
  endfacet
  facet normal -0.770513 -0.637424 0
    outer loop
      vertex -8.81828 -6.40686 0
      vertex -7.94576 -7.46156 0
      vertex -8.81828 -6.40686 15
    endloop
  endfacet
  facet normal -0.770513 -0.637424 0
    outer loop
      vertex -8.81828 -6.40686 15
      vertex -7.94576 -7.46156 0
      vertex -7.94576 -7.46156 15
    endloop
  endfacet
  facet normal -0.684547 -0.728969 0
    outer loop
      vertex -7.94576 -7.46156 15
      vertex -7.94576 -7.46156 0
      vertex -6.94792 -8.39859 0
    endloop
  endfacet
  facet normal -0.684547 -0.728969 0
    outer loop
      vertex -7.44641 -7.93048 15
      vertex -7.94576 -7.46156 15
      vertex -6.94792 -8.39859 0
    endloop
  endfacet
  facet normal -0.684547 -0.728969 0
    outer loop
      vertex -6.94792 -8.39859 15
      vertex -7.17011 -8.18994 15
      vertex -6.94792 -8.39859 0
    endloop
  endfacet
  facet normal -0.684547 -0.728969 0
    outer loop
      vertex -7.17011 -8.18994 15
      vertex -7.44641 -7.93048 15
      vertex -6.94792 -8.39859 0
    endloop
  endfacet
  facet normal -0.587785 -0.809017 0
    outer loop
      vertex -6.94792 -8.39859 15
      vertex -6.94792 -8.39859 0
      vertex -5.84051 -9.20317 0
    endloop
  endfacet
  facet normal -0.587785 -0.809017 0
    outer loop
      vertex -5.84051 -9.20317 15
      vertex -6.94792 -8.39859 15
      vertex -5.84051 -9.20317 0
    endloop
  endfacet
  facet normal -0.481754 -0.876307 0
    outer loop
      vertex -5.84051 -9.20317 15
      vertex -5.84051 -9.20317 0
      vertex -4.64099 -9.86261 0
    endloop
  endfacet
  facet normal -0.481754 -0.876307 0
    outer loop
      vertex -5.57341 -9.35002 15
      vertex -5.84051 -9.20317 15
      vertex -4.64099 -9.86261 0
    endloop
  endfacet
  facet normal -0.481754 -0.876307 0
    outer loop
      vertex -4.64099 -9.86261 15
      vertex -5.24128 -9.53261 15
      vertex -4.64099 -9.86261 0
    endloop
  endfacet
  facet normal -0.481754 -0.876307 0
    outer loop
      vertex -5.24128 -9.53261 15
      vertex -5.57341 -9.35002 15
      vertex -4.64099 -9.86261 0
    endloop
  endfacet
  facet normal -0.368124 -0.929777 0
    outer loop
      vertex -4.64099 -9.86261 15
      vertex -4.64099 -9.86261 0
      vertex -3.36828 -10.3665 0
    endloop
  endfacet
  facet normal -0.368124 -0.929777 0
    outer loop
      vertex -3.36828 -10.3665 15
      vertex -4.64099 -9.86261 15
      vertex -3.36828 -10.3665 0
    endloop
  endfacet
  facet normal -0.24869 -0.968583 0
    outer loop
      vertex -3.36828 -10.3665 15
      vertex -3.36828 -10.3665 0
      vertex -2.04246 -10.7069 0
    endloop
  endfacet
  facet normal -0.24869 -0.968583 0
    outer loop
      vertex -2.04246 -10.7069 15
      vertex -3.36828 -10.3665 15
      vertex -2.04246 -10.7069 0
    endloop
  endfacet
  facet normal -0.125333 -0.992115 0
    outer loop
      vertex -2.04246 -10.7069 15
      vertex -2.04246 -10.7069 0
      vertex -0.684417 -10.8785 0
    endloop
  endfacet
  facet normal -0.125333 -0.992115 0
    outer loop
      vertex -1.36285 -10.7928 15
      vertex -2.04246 -10.7069 15
      vertex -0.684417 -10.8785 0
    endloop
  endfacet
  facet normal -0.125333 -0.992115 0
    outer loop
      vertex -0.684417 -10.8785 15
      vertex -0.986817 -10.8403 15
      vertex -0.684417 -10.8785 0
    endloop
  endfacet
  facet normal -0.125333 -0.992115 0
    outer loop
      vertex -0.986817 -10.8403 15
      vertex -1.36285 -10.7928 15
      vertex -0.684417 -10.8785 0
    endloop
  endfacet
  facet normal 0 -1 0
    outer loop
      vertex -0.684417 -10.8785 15
      vertex -0.684417 -10.8785 0
      vertex 0.684417 -10.8785 0
    endloop
  endfacet
  facet normal 0 -1 0
    outer loop
      vertex 0.684417 -10.8785 15
      vertex -0.684417 -10.8785 15
      vertex 0.684417 -10.8785 0
    endloop
  endfacet
  facet normal 0.125333 -0.992115 0
    outer loop
      vertex 0.684417 -10.8785 15
      vertex 0.684417 -10.8785 0
      vertex 2.04246 -10.7069 0
    endloop
  endfacet
  facet normal 0.125333 -0.992115 0
    outer loop
      vertex 0.986817 -10.8403 15
      vertex 0.684417 -10.8785 15
      vertex 2.04246 -10.7069 0
    endloop
  endfacet
  facet normal 0.125333 -0.992115 0
    outer loop
      vertex 2.04246 -10.7069 15
      vertex 1.36285 -10.7928 15
      vertex 2.04246 -10.7069 0
    endloop
  endfacet
  facet normal 0.125333 -0.992115 0
    outer loop
      vertex 1.36285 -10.7928 15
      vertex 0.986817 -10.8403 15
      vertex 2.04246 -10.7069 0
    endloop
  endfacet
  facet normal 0.24869 -0.968583 0
    outer loop
      vertex 2.04246 -10.7069 15
      vertex 2.04246 -10.7069 0
      vertex 3.36828 -10.3665 0
    endloop
  endfacet
  facet normal 0.24869 -0.968583 0
    outer loop
      vertex 3.36828 -10.3665 15
      vertex 2.04246 -10.7069 15
      vertex 3.36828 -10.3665 0
    endloop
  endfacet
  facet normal 0.368124 -0.929777 0
    outer loop
      vertex 3.36828 -10.3665 15
      vertex 3.36828 -10.3665 0
      vertex 4.64099 -9.86261 0
    endloop
  endfacet
  facet normal 0.368124 -0.929777 0
    outer loop
      vertex 4.64099 -9.86261 15
      vertex 3.36828 -10.3665 15
      vertex 4.64099 -9.86261 0
    endloop
  endfacet
  facet normal 0.481754 -0.876307 0
    outer loop
      vertex 4.64099 -9.86261 15
      vertex 4.64099 -9.86261 0
      vertex 5.84051 -9.20317 0
    endloop
  endfacet
  facet normal 0.481754 -0.876307 0
    outer loop
      vertex 5.24128 -9.53261 15
      vertex 4.64099 -9.86261 15
      vertex 5.84051 -9.20317 0
    endloop
  endfacet
  facet normal 0.481754 -0.876307 0
    outer loop
      vertex 5.84051 -9.20317 15
      vertex 5.57341 -9.35002 15
      vertex 5.84051 -9.20317 0
    endloop
  endfacet
  facet normal 0.481754 -0.876307 0
    outer loop
      vertex 5.57341 -9.35002 15
      vertex 5.24128 -9.53261 15
      vertex 5.84051 -9.20317 0
    endloop
  endfacet
  facet normal 0.587785 -0.809017 0
    outer loop
      vertex 5.84051 -9.20317 15
      vertex 5.84051 -9.20317 0
      vertex 6.94792 -8.39859 0
    endloop
  endfacet
  facet normal 0.587785 -0.809017 0
    outer loop
      vertex 6.94792 -8.39859 15
      vertex 5.84051 -9.20317 15
      vertex 6.94792 -8.39859 0
    endloop
  endfacet
  facet normal 0.684547 -0.728969 0
    outer loop
      vertex 6.94792 -8.39859 15
      vertex 6.94792 -8.39859 0
      vertex 7.94576 -7.46156 0
    endloop
  endfacet
  facet normal 0.684547 -0.728969 0
    outer loop
      vertex 7.17011 -8.18994 15
      vertex 6.94792 -8.39859 15
      vertex 7.94576 -7.46156 0
    endloop
  endfacet
  facet normal 0.684547 -0.728969 0
    outer loop
      vertex 7.94576 -7.46156 15
      vertex 7.44641 -7.93048 15
      vertex 7.94576 -7.46156 0
    endloop
  endfacet
  facet normal 0.684547 -0.728969 0
    outer loop
      vertex 7.44641 -7.93048 15
      vertex 7.17011 -8.18994 15
      vertex 7.94576 -7.46156 0
    endloop
  endfacet
  facet normal 0.770513 -0.637424 0
    outer loop
      vertex 7.94576 -7.46156 15
      vertex 7.94576 -7.46156 0
      vertex 8.81828 -6.40686 0
    endloop
  endfacet
  facet normal 0.770513 -0.637424 0
    outer loop
      vertex 8.81828 -6.40686 15
      vertex 7.94576 -7.46156 15
      vertex 8.81828 -6.40686 0
    endloop
  endfacet
  facet normal 0.844328 -0.535827 0
    outer loop
      vertex 8.81828 -6.40686 15
      vertex 8.81828 -6.40686 0
      vertex 9.55174 -5.25111 0
    endloop
  endfacet
  facet normal 0.844328 -0.535827 0
    outer loop
      vertex 9.55174 -5.25111 15
      vertex 8.81828 -6.40686 15
      vertex 9.55174 -5.25111 0
    endloop
  endfacet
  facet normal 0.904827 -0.425779 0
    outer loop
      vertex 9.55174 -5.25111 15
      vertex 9.55174 -5.25111 0
      vertex 10.1346 -4.01256 0
    endloop
  endfacet
  facet normal 0.904827 -0.425779 0
    outer loop
      vertex 9.84341 -4.63128 15
      vertex 9.55174 -5.25111 15
      vertex 10.1346 -4.01256 0
    endloop
  endfacet
  facet normal 0.904827 -0.425779 0
    outer loop
      vertex 10.1346 -4.01256 15
      vertex 10.0048 -4.28836 15
      vertex 10.1346 -4.01256 0
    endloop
  endfacet
  facet normal 0.904827 -0.425779 0
    outer loop
      vertex 10.0048 -4.28836 15
      vertex 9.84341 -4.63128 15
      vertex 10.1346 -4.01256 0
    endloop
  endfacet
  facet normal 0.951057 -0.309016 0
    outer loop
      vertex 10.1346 -4.01256 15
      vertex 10.1346 -4.01256 0
      vertex 10.5576 -2.71072 0
    endloop
  endfacet
  facet normal 0.951057 -0.309016 0
    outer loop
      vertex 10.5576 -2.71072 15
      vertex 10.1346 -4.01256 15
      vertex 10.5576 -2.71072 0
    endloop
  endfacet
  facet normal 0.982287 -0.187381 0
    outer loop
      vertex 10.5576 -2.71072 15
      vertex 10.5576 -2.71072 0
      vertex 10.814 -1.36613 0
    endloop
  endfacet
  facet normal 0.982287 -0.187381 0
    outer loop
      vertex 10.6147 -2.41131 15
      vertex 10.5576 -2.71072 15
      vertex 10.814 -1.36613 0
    endloop
  endfacet
  facet normal 0.982287 -0.187381 0
    outer loop
      vertex 10.814 -1.36613 15
      vertex 10.6857 -2.03901 15
      vertex 10.814 -1.36613 0
    endloop
  endfacet
  facet normal 0.982287 -0.187381 0
    outer loop
      vertex 10.6857 -2.03901 15
      vertex 10.6147 -2.41131 15
      vertex 10.814 -1.36613 0
    endloop
  endfacet
  facet normal 0.998027 -0.0627907 0
    outer loop
      vertex 10.814 -1.36613 15
      vertex 10.814 -1.36613 0
      vertex 10.9 0 0
    endloop
  endfacet
  facet normal 0.998027 -0.0627907 0
    outer loop
      vertex 10.9 0 15
      vertex 10.814 -1.36613 15
      vertex 10.9 0 0
    endloop
  endfacet
  facet normal 0.998027 0.0627907 0
    outer loop
      vertex 10.9 0 0
      vertex 10.814 1.36613 0
      vertex 10.814 1.36613 15
    endloop
  endfacet
  facet normal 0.998027 0.0627907 0
    outer loop
      vertex 10.9 0 15
      vertex 10.9 0 0
      vertex 10.814 1.36613 15
    endloop
  endfacet
  facet normal 0.982287 0.187381 0
    outer loop
      vertex 10.814 1.36613 0
      vertex 10.5576 2.71072 0
      vertex 10.5576 2.71072 15
    endloop
  endfacet
  facet normal 0.982287 0.187381 0
    outer loop
      vertex 10.6857 2.03901 15
      vertex 10.814 1.36613 0
      vertex 10.6147 2.41131 15
    endloop
  endfacet
  facet normal 0.982287 0.187381 0
    outer loop
      vertex 10.6147 2.41131 15
      vertex 10.814 1.36613 0
      vertex 10.5576 2.71072 15
    endloop
  endfacet
  facet normal 0.982287 0.187381 0
    outer loop
      vertex 10.814 1.36613 15
      vertex 10.814 1.36613 0
      vertex 10.6857 2.03901 15
    endloop
  endfacet
  facet normal 0.951057 0.309016 0
    outer loop
      vertex 10.5576 2.71072 0
      vertex 10.1346 4.01256 0
      vertex 10.1346 4.01256 15
    endloop
  endfacet
  facet normal 0.951057 0.309016 0
    outer loop
      vertex 10.5576 2.71072 15
      vertex 10.5576 2.71072 0
      vertex 10.1346 4.01256 15
    endloop
  endfacet
  facet normal 0.904827 0.425779 0
    outer loop
      vertex 10.1346 4.01256 0
      vertex 9.55174 5.25111 0
      vertex 9.55174 5.25111 15
    endloop
  endfacet
  facet normal 0.904827 0.425779 0
    outer loop
      vertex 10.0048 4.28836 15
      vertex 10.1346 4.01256 0
      vertex 9.84341 4.63128 15
    endloop
  endfacet
  facet normal 0.904827 0.425779 0
    outer loop
      vertex 9.84341 4.63128 15
      vertex 10.1346 4.01256 0
      vertex 9.55174 5.25111 15
    endloop
  endfacet
  facet normal 0.904827 0.425779 0
    outer loop
      vertex 10.1346 4.01256 15
      vertex 10.1346 4.01256 0
      vertex 10.0048 4.28836 15
    endloop
  endfacet
  facet normal 0.844328 0.535827 0
    outer loop
      vertex 9.55174 5.25111 0
      vertex 8.81828 6.40686 0
      vertex 8.81828 6.40686 15
    endloop
  endfacet
  facet normal 0.844328 0.535827 0
    outer loop
      vertex 9.55174 5.25111 15
      vertex 9.55174 5.25111 0
      vertex 8.81828 6.40686 15
    endloop
  endfacet
  facet normal 0.770513 0.637424 0
    outer loop
      vertex 8.81828 6.40686 0
      vertex 7.94576 7.46156 0
      vertex 7.94576 7.46156 15
    endloop
  endfacet
  facet normal 0.770513 0.637424 0
    outer loop
      vertex 8.81828 6.40686 15
      vertex 8.81828 6.40686 0
      vertex 7.94576 7.46156 15
    endloop
  endfacet
  facet normal 0.684547 0.728969 0
    outer loop
      vertex 6.94792 8.39859 0
      vertex 6.94792 8.39859 15
      vertex 7.94576 7.46156 0
    endloop
  endfacet
  facet normal 0.684547 0.728969 0
    outer loop
      vertex 7.94576 7.46156 0
      vertex 6.94792 8.39859 15
      vertex 7.17011 8.18994 15
    endloop
  endfacet
  facet normal 0.684547 0.728969 0
    outer loop
      vertex 7.94576 7.46156 0
      vertex 7.17011 8.18994 15
      vertex 7.44641 7.93048 15
    endloop
  endfacet
  facet normal 0.684547 0.728969 0
    outer loop
      vertex 7.94576 7.46156 0
      vertex 7.44641 7.93048 15
      vertex 7.94576 7.46156 15
    endloop
  endfacet
  facet normal 0.587785 0.809017 0
    outer loop
      vertex 5.84051 9.20317 0
      vertex 5.84051 9.20317 15
      vertex 6.94792 8.39859 0
    endloop
  endfacet
  facet normal 0.587785 0.809017 0
    outer loop
      vertex 6.94792 8.39859 0
      vertex 5.84051 9.20317 15
      vertex 6.94792 8.39859 15
    endloop
  endfacet
  facet normal 0.481754 0.876307 0
    outer loop
      vertex 4.64099 9.86261 0
      vertex 4.64099 9.86261 15
      vertex 5.84051 9.20317 0
    endloop
  endfacet
  facet normal 0.481754 0.876307 0
    outer loop
      vertex 5.84051 9.20317 0
      vertex 4.64099 9.86261 15
      vertex 5.24128 9.53261 15
    endloop
  endfacet
  facet normal 0.481754 0.876307 0
    outer loop
      vertex 5.84051 9.20317 0
      vertex 5.24128 9.53261 15
      vertex 5.57341 9.35002 15
    endloop
  endfacet
  facet normal 0.481754 0.876307 0
    outer loop
      vertex 5.84051 9.20317 0
      vertex 5.57341 9.35002 15
      vertex 5.84051 9.20317 15
    endloop
  endfacet
  facet normal 0.368124 0.929777 0
    outer loop
      vertex 3.36828 10.3665 0
      vertex 3.36828 10.3665 15
      vertex 4.64099 9.86261 0
    endloop
  endfacet
  facet normal 0.368124 0.929777 0
    outer loop
      vertex 4.64099 9.86261 0
      vertex 3.36828 10.3665 15
      vertex 4.64099 9.86261 15
    endloop
  endfacet
  facet normal 0.24869 0.968583 0
    outer loop
      vertex 2.04246 10.7069 0
      vertex 2.04246 10.7069 15
      vertex 3.36828 10.3665 0
    endloop
  endfacet
  facet normal 0.24869 0.968583 0
    outer loop
      vertex 3.36828 10.3665 0
      vertex 2.04246 10.7069 15
      vertex 3.36828 10.3665 15
    endloop
  endfacet
  facet normal 0.125333 0.992115 0
    outer loop
      vertex 0.684417 10.8785 0
      vertex 0.684417 10.8785 15
      vertex 2.04246 10.7069 0
    endloop
  endfacet
  facet normal 0.125333 0.992115 0
    outer loop
      vertex 2.04246 10.7069 0
      vertex 0.684417 10.8785 15
      vertex 0.986817 10.8403 15
    endloop
  endfacet
  facet normal 0.125333 0.992115 0
    outer loop
      vertex 2.04246 10.7069 0
      vertex 0.986817 10.8403 15
      vertex 1.36285 10.7928 15
    endloop
  endfacet
  facet normal 0.125333 0.992115 0
    outer loop
      vertex 2.04246 10.7069 0
      vertex 1.36285 10.7928 15
      vertex 2.04246 10.7069 15
    endloop
  endfacet
  facet normal 0 1 0
    outer loop
      vertex -0.684417 10.8785 0
      vertex -0.684417 10.8785 15
      vertex 0.684417 10.8785 0
    endloop
  endfacet
  facet normal 0 1 0
    outer loop
      vertex 0.684417 10.8785 0
      vertex -0.684417 10.8785 15
      vertex 0.684417 10.8785 15
    endloop
  endfacet
  facet normal -0.125333 0.992115 0
    outer loop
      vertex -2.04246 10.7069 0
      vertex -2.04246 10.7069 15
      vertex -0.684417 10.8785 0
    endloop
  endfacet
  facet normal -0.125333 0.992115 0
    outer loop
      vertex -0.684417 10.8785 0
      vertex -2.04246 10.7069 15
      vertex -1.36285 10.7928 15
    endloop
  endfacet
  facet normal -0.125333 0.992115 0
    outer loop
      vertex -0.684417 10.8785 0
      vertex -1.36285 10.7928 15
      vertex -0.986817 10.8403 15
    endloop
  endfacet
  facet normal -0.125333 0.992115 0
    outer loop
      vertex -0.684417 10.8785 0
      vertex -0.986817 10.8403 15
      vertex -0.684417 10.8785 15
    endloop
  endfacet
  facet normal -0.24869 0.968583 0
    outer loop
      vertex -3.36828 10.3665 0
      vertex -3.36828 10.3665 15
      vertex -2.04246 10.7069 0
    endloop
  endfacet
  facet normal -0.24869 0.968583 0
    outer loop
      vertex -2.04246 10.7069 0
      vertex -3.36828 10.3665 15
      vertex -2.04246 10.7069 15
    endloop
  endfacet
  facet normal -0.368124 0.929777 0
    outer loop
      vertex -4.64099 9.86261 0
      vertex -4.64099 9.86261 15
      vertex -3.36828 10.3665 0
    endloop
  endfacet
  facet normal -0.368124 0.929777 0
    outer loop
      vertex -3.36828 10.3665 0
      vertex -4.64099 9.86261 15
      vertex -3.36828 10.3665 15
    endloop
  endfacet
  facet normal -0.481754 0.876307 0
    outer loop
      vertex -5.84051 9.20317 0
      vertex -5.84051 9.20317 15
      vertex -4.64099 9.86261 0
    endloop
  endfacet
  facet normal -0.481754 0.876307 0
    outer loop
      vertex -4.64099 9.86261 0
      vertex -5.84051 9.20317 15
      vertex -5.57341 9.35002 15
    endloop
  endfacet
  facet normal -0.481754 0.876307 0
    outer loop
      vertex -4.64099 9.86261 0
      vertex -5.57341 9.35002 15
      vertex -5.24128 9.53261 15
    endloop
  endfacet
  facet normal -0.481754 0.876307 0
    outer loop
      vertex -4.64099 9.86261 0
      vertex -5.24128 9.53261 15
      vertex -4.64099 9.86261 15
    endloop
  endfacet
  facet normal -0.587785 0.809017 0
    outer loop
      vertex -6.94792 8.39859 0
      vertex -6.94792 8.39859 15
      vertex -5.84051 9.20317 0
    endloop
  endfacet
  facet normal -0.587785 0.809017 0
    outer loop
      vertex -5.84051 9.20317 0
      vertex -6.94792 8.39859 15
      vertex -5.84051 9.20317 15
    endloop
  endfacet
  facet normal -0.684547 0.728969 0
    outer loop
      vertex -7.94576 7.46156 0
      vertex -7.94576 7.46156 15
      vertex -6.94792 8.39859 0
    endloop
  endfacet
  facet normal -0.684547 0.728969 0
    outer loop
      vertex -6.94792 8.39859 0
      vertex -7.94576 7.46156 15
      vertex -7.44641 7.93048 15
    endloop
  endfacet
  facet normal -0.684547 0.728969 0
    outer loop
      vertex -6.94792 8.39859 0
      vertex -7.44641 7.93048 15
      vertex -7.17011 8.18994 15
    endloop
  endfacet
  facet normal -0.684547 0.728969 0
    outer loop
      vertex -6.94792 8.39859 0
      vertex -7.17011 8.18994 15
      vertex -6.94792 8.39859 15
    endloop
  endfacet
  facet normal -0.770513 0.637424 0
    outer loop
      vertex -8.81828 6.40686 0
      vertex -8.81828 6.40686 15
      vertex -7.94576 7.46156 0
    endloop
  endfacet
  facet normal -0.770513 0.637424 0
    outer loop
      vertex -7.94576 7.46156 0
      vertex -8.81828 6.40686 15
      vertex -7.94576 7.46156 15
    endloop
  endfacet
  facet normal -0.844328 0.535827 0
    outer loop
      vertex -9.55174 5.25111 0
      vertex -9.55174 5.25111 15
      vertex -8.81828 6.40686 0
    endloop
  endfacet
  facet normal -0.844328 0.535827 0
    outer loop
      vertex -8.81828 6.40686 0
      vertex -9.55174 5.25111 15
      vertex -8.81828 6.40686 15
    endloop
  endfacet
  facet normal -0.904827 0.425779 0
    outer loop
      vertex -10.1346 4.01256 0
      vertex -10.1346 4.01256 15
      vertex -9.55174 5.25111 0
    endloop
  endfacet
  facet normal -0.904827 0.425779 0
    outer loop
      vertex -9.55174 5.25111 0
      vertex -10.1346 4.01256 15
      vertex -10.0048 4.28836 15
    endloop
  endfacet
  facet normal -0.904827 0.425779 0
    outer loop
      vertex -9.55174 5.25111 0
      vertex -10.0048 4.28836 15
      vertex -9.84341 4.63128 15
    endloop
  endfacet
  facet normal -0.904827 0.425779 0
    outer loop
      vertex -9.55174 5.25111 0
      vertex -9.84341 4.63128 15
      vertex -9.55174 5.25111 15
    endloop
  endfacet
  facet normal -0.951057 0.309016 0
    outer loop
      vertex -10.5576 2.71072 0
      vertex -10.5576 2.71072 15
      vertex -10.1346 4.01256 0
    endloop
  endfacet
  facet normal -0.951057 0.309016 0
    outer loop
      vertex -10.1346 4.01256 0
      vertex -10.5576 2.71072 15
      vertex -10.1346 4.01256 15
    endloop
  endfacet
  facet normal -0.982287 0.187381 0
    outer loop
      vertex -10.814 1.36613 0
      vertex -10.814 1.36613 15
      vertex -10.5576 2.71072 0
    endloop
  endfacet
  facet normal -0.982287 0.187381 0
    outer loop
      vertex -10.5576 2.71072 0
      vertex -10.814 1.36613 15
      vertex -10.6857 2.03901 15
    endloop
  endfacet
  facet normal -0.982287 0.187381 0
    outer loop
      vertex -10.5576 2.71072 0
      vertex -10.6857 2.03901 15
      vertex -10.6147 2.41131 15
    endloop
  endfacet
  facet normal -0.982287 0.187381 0
    outer loop
      vertex -10.5576 2.71072 0
      vertex -10.6147 2.41131 15
      vertex -10.5576 2.71072 15
    endloop
  endfacet
  facet normal 0.976621 -0.21497 0
    outer loop
      vertex -8.52888 2.87371 0
      vertex -8.52888 2.87371 15
      vertex -8.94724 0.973071 15
    endloop
  endfacet
  facet normal 0.976621 -0.21497 0
    outer loop
      vertex -8.94724 0.973071 0
      vertex -8.52888 2.87371 0
      vertex -8.94724 0.973071 15
    endloop
  endfacet
  facet normal 1 0 0
    outer loop
      vertex -8.94724 0.973071 0
      vertex -8.94724 0.973071 15
      vertex -8.94724 -0.973071 15
    endloop
  endfacet
  facet normal 1 0 0
    outer loop
      vertex -8.94724 -0.973071 0
      vertex -8.94724 0.973071 0
      vertex -8.94724 -0.973071 15
    endloop
  endfacet
  facet normal 0.907575 -0.419889 0
    outer loop
      vertex -7.71171 4.63998 0
      vertex -7.71171 4.63998 15
      vertex -8.52888 2.87371 15
    endloop
  endfacet
  facet normal 0.907575 -0.419889 0
    outer loop
      vertex -8.52888 2.87371 0
      vertex -7.71171 4.63998 0
      vertex -8.52888 2.87371 15
    endloop
  endfacet
  facet normal 0.796093 -0.605175 0
    outer loop
      vertex -6.53396 6.18929 0
      vertex -6.53396 6.18929 15
      vertex -7.71171 4.63998 15
    endloop
  endfacet
  facet normal 0.796093 -0.605175 0
    outer loop
      vertex -7.71171 4.63998 0
      vertex -6.53396 6.18929 0
      vertex -7.71171 4.63998 15
    endloop
  endfacet
  facet normal 0.647387 -0.762162 0
    outer loop
      vertex -5.05068 7.4492 0
      vertex -5.05068 7.4492 15
      vertex -6.53396 6.18929 15
    endloop
  endfacet
  facet normal 0.647387 -0.762162 0
    outer loop
      vertex -6.53396 6.18929 0
      vertex -5.05068 7.4492 0
      vertex -6.53396 6.18929 15
    endloop
  endfacet
  facet normal 0.468408 -0.883512 0
    outer loop
      vertex -3.33124 8.36079 0
      vertex -3.33124 8.36079 15
      vertex -5.05068 7.4492 15
    endloop
  endfacet
  facet normal 0.468408 -0.883512 0
    outer loop
      vertex -5.05068 7.4492 0
      vertex -3.33124 8.36079 0
      vertex -5.05068 7.4492 15
    endloop
  endfacet
  facet normal 0.267529 -0.96355 0
    outer loop
      vertex -1.45604 8.88144 0
      vertex -1.45604 8.88144 15
      vertex -3.33124 8.36079 15
    endloop
  endfacet
  facet normal 0.267529 -0.96355 0
    outer loop
      vertex -3.33124 8.36079 0
      vertex -1.45604 8.88144 0
      vertex -3.33124 8.36079 15
    endloop
  endfacet
  facet normal 0.0541389 -0.998533 0
    outer loop
      vertex 0.48725 8.9868 0
      vertex 0.48725 8.9868 15
      vertex -1.45604 8.88144 15
    endloop
  endfacet
  facet normal 0.0541389 -0.998533 0
    outer loop
      vertex -1.45604 8.88144 0
      vertex 0.48725 8.9868 0
      vertex -1.45604 8.88144 15
    endloop
  endfacet
  facet normal -0.161782 -0.986827 0
    outer loop
      vertex 2.40775 8.67195 0
      vertex 2.40775 8.67195 15
      vertex 0.48725 8.9868 15
    endloop
  endfacet
  facet normal -0.161782 -0.986827 0
    outer loop
      vertex 0.48725 8.9868 0
      vertex 2.40775 8.67195 0
      vertex 0.48725 8.9868 15
    endloop
  endfacet
  facet normal -0.370138 -0.928977 0
    outer loop
      vertex 4.21568 7.95161 0
      vertex 4.21568 7.95161 15
      vertex 2.40775 8.67195 15
    endloop
  endfacet
  facet normal -0.370138 -0.928977 0
    outer loop
      vertex 2.40775 8.67195 0
      vertex 4.21568 7.95161 0
      vertex 2.40775 8.67195 15
    endloop
  endfacet
  facet normal -0.561187 -0.827689 0
    outer loop
      vertex 5.82648 6.85946 0
      vertex 5.82648 6.85946 15
      vertex 4.21568 7.95161 15
    endloop
  endfacet
  facet normal -0.561187 -0.827689 0
    outer loop
      vertex 4.21568 7.95161 0
      vertex 5.82648 6.85946 0
      vertex 4.21568 7.95161 15
    endloop
  endfacet
  facet normal -0.725995 -0.6877 0
    outer loop
      vertex 7.16484 5.44657 15
      vertex 5.82648 6.85946 15
      vertex 7.16484 5.44657 0
    endloop
  endfacet
  facet normal -0.725995 -0.6877 0
    outer loop
      vertex 7.16484 5.44657 0
      vertex 5.82648 6.85946 15
      vertex 5.82648 6.85946 0
    endloop
  endfacet
  facet normal -0.856857 -0.515554 0
    outer loop
      vertex 8.16818 3.779 15
      vertex 7.16484 5.44657 15
      vertex 8.16818 3.779 0
    endloop
  endfacet
  facet normal -0.856857 -0.515554 0
    outer loop
      vertex 8.16818 3.779 0
      vertex 7.16484 5.44657 15
      vertex 7.16484 5.44657 0
    endloop
  endfacet
  facet normal -0.947653 -0.319301 0
    outer loop
      vertex 8.78958 1.93473 15
      vertex 8.16818 3.779 15
      vertex 8.78958 1.93473 0
    endloop
  endfacet
  facet normal -0.947653 -0.319301 0
    outer loop
      vertex 8.78958 1.93473 0
      vertex 8.16818 3.779 15
      vertex 8.16818 3.779 0
    endloop
  endfacet
  facet normal -0.994138 -0.108119 0
    outer loop
      vertex 9 0 15
      vertex 8.78958 1.93473 15
      vertex 9 0 0
    endloop
  endfacet
  facet normal -0.994138 -0.108119 0
    outer loop
      vertex 9 0 0
      vertex 8.78958 1.93473 15
      vertex 8.78958 1.93473 0
    endloop
  endfacet
  facet normal -0.994138 0.108119 0
    outer loop
      vertex 9 0 15
      vertex 9 0 0
      vertex 8.78958 -1.93473 15
    endloop
  endfacet
  facet normal -0.994138 0.108119 0
    outer loop
      vertex 8.78958 -1.93473 15
      vertex 9 0 0
      vertex 8.78958 -1.93473 0
    endloop
  endfacet
  facet normal -0.947653 0.319301 0
    outer loop
      vertex 8.78958 -1.93473 15
      vertex 8.78958 -1.93473 0
      vertex 8.16818 -3.779 15
    endloop
  endfacet
  facet normal -0.947653 0.319301 0
    outer loop
      vertex 8.16818 -3.779 15
      vertex 8.78958 -1.93473 0
      vertex 8.16818 -3.779 0
    endloop
  endfacet
  facet normal -0.856857 0.515554 0
    outer loop
      vertex 8.16818 -3.779 15
      vertex 8.16818 -3.779 0
      vertex 7.16484 -5.44657 15
    endloop
  endfacet
  facet normal -0.856857 0.515554 0
    outer loop
      vertex 7.16484 -5.44657 15
      vertex 8.16818 -3.779 0
      vertex 7.16484 -5.44657 0
    endloop
  endfacet
  facet normal -0.725995 0.6877 0
    outer loop
      vertex 7.16484 -5.44657 15
      vertex 7.16484 -5.44657 0
      vertex 5.82648 -6.85946 15
    endloop
  endfacet
  facet normal -0.725995 0.6877 0
    outer loop
      vertex 5.82648 -6.85946 15
      vertex 7.16484 -5.44657 0
      vertex 5.82648 -6.85946 0
    endloop
  endfacet
  facet normal -0.561187 0.827689 0
    outer loop
      vertex 5.82648 -6.85946 15
      vertex 5.82648 -6.85946 0
      vertex 4.21568 -7.95161 15
    endloop
  endfacet
  facet normal -0.561187 0.827689 0
    outer loop
      vertex 4.21568 -7.95161 15
      vertex 5.82648 -6.85946 0
      vertex 4.21568 -7.95161 0
    endloop
  endfacet
  facet normal -0.370138 0.928977 0
    outer loop
      vertex 4.21568 -7.95161 15
      vertex 4.21568 -7.95161 0
      vertex 2.40775 -8.67195 15
    endloop
  endfacet
  facet normal -0.370138 0.928977 0
    outer loop
      vertex 2.40775 -8.67195 15
      vertex 4.21568 -7.95161 0
      vertex 2.40775 -8.67195 0
    endloop
  endfacet
  facet normal -0.161782 0.986827 0
    outer loop
      vertex 2.40775 -8.67195 15
      vertex 2.40775 -8.67195 0
      vertex 0.48725 -8.9868 15
    endloop
  endfacet
  facet normal -0.161782 0.986827 0
    outer loop
      vertex 0.48725 -8.9868 15
      vertex 2.40775 -8.67195 0
      vertex 0.48725 -8.9868 0
    endloop
  endfacet
  facet normal 0.0541389 0.998533 0
    outer loop
      vertex 0.48725 -8.9868 15
      vertex 0.48725 -8.9868 0
      vertex -1.45604 -8.88144 15
    endloop
  endfacet
  facet normal 0.0541389 0.998533 0
    outer loop
      vertex -1.45604 -8.88144 15
      vertex 0.48725 -8.9868 0
      vertex -1.45604 -8.88144 0
    endloop
  endfacet
  facet normal 0.267529 0.96355 0
    outer loop
      vertex -1.45604 -8.88144 15
      vertex -1.45604 -8.88144 0
      vertex -3.33124 -8.36079 15
    endloop
  endfacet
  facet normal 0.267529 0.96355 0
    outer loop
      vertex -3.33124 -8.36079 15
      vertex -1.45604 -8.88144 0
      vertex -3.33124 -8.36079 0
    endloop
  endfacet
  facet normal 0.468408 0.883512 0
    outer loop
      vertex -3.33124 -8.36079 15
      vertex -3.33124 -8.36079 0
      vertex -5.05068 -7.4492 15
    endloop
  endfacet
  facet normal 0.468408 0.883512 0
    outer loop
      vertex -5.05068 -7.4492 15
      vertex -3.33124 -8.36079 0
      vertex -5.05068 -7.4492 0
    endloop
  endfacet
  facet normal 0.647387 0.762162 0
    outer loop
      vertex -5.05068 -7.4492 15
      vertex -5.05068 -7.4492 0
      vertex -6.53396 -6.18929 15
    endloop
  endfacet
  facet normal 0.647387 0.762162 0
    outer loop
      vertex -6.53396 -6.18929 15
      vertex -5.05068 -7.4492 0
      vertex -6.53396 -6.18929 0
    endloop
  endfacet
  facet normal 0.796093 0.605175 0
    outer loop
      vertex -7.71171 -4.63998 15
      vertex -6.53396 -6.18929 15
      vertex -6.53396 -6.18929 0
    endloop
  endfacet
  facet normal 0.796093 0.605175 0
    outer loop
      vertex -7.71171 -4.63998 0
      vertex -7.71171 -4.63998 15
      vertex -6.53396 -6.18929 0
    endloop
  endfacet
  facet normal 0.907575 0.419889 0
    outer loop
      vertex -8.52888 -2.87371 15
      vertex -7.71171 -4.63998 15
      vertex -7.71171 -4.63998 0
    endloop
  endfacet
  facet normal 0.907575 0.419889 0
    outer loop
      vertex -8.52888 -2.87371 0
      vertex -8.52888 -2.87371 15
      vertex -7.71171 -4.63998 0
    endloop
  endfacet
  facet normal 0.976621 0.21497 0
    outer loop
      vertex -8.94724 -0.973071 15
      vertex -8.52888 -2.87371 15
      vertex -8.52888 -2.87371 0
    endloop
  endfacet
  facet normal 0.976621 0.21497 0
    outer loop
      vertex -8.94724 -0.973071 0
      vertex -8.94724 -0.973071 15
      vertex -8.52888 -2.87371 0
    endloop
  endfacet
  facet normal 0 0 1
    outer loop
      vertex -10.814 1.36613 15
      vertex -10.9 0 15
      vertex -10.6857 2.03901 15
    endloop
  endfacet
  facet normal -0.806061 0.0847204 0.585738
    outer loop
      vertex -10.9 0 15
      vertex 0 0 30
      vertex -10.6857 2.03901 15
    endloop
  endfacet
  facet normal -0.806061 0.0847204 0.585738
    outer loop
      vertex -10.6857 2.03901 15
      vertex 0 0 30
      vertex -10.6618 2.26624 15
    endloop
  endfacet
  facet normal -0.806061 -0.0847204 0.585738
    outer loop
      vertex -10.9 0 15
      vertex -10.6857 -2.03901 15
      vertex 0 0 30
    endloop
  endfacet
  facet normal -0.806061 -0.0847204 0.585738
    outer loop
      vertex 0 0 30
      vertex -10.6857 -2.03901 15
      vertex -10.6618 -2.26624 15
    endloop
  endfacet
  facet normal 0 0 1
    outer loop
      vertex -10.6857 -2.03901 15
      vertex -10.9 0 15
      vertex -10.814 -1.36613 15
    endloop
  endfacet
  facet normal 0 0 -1
    outer loop
      vertex -10.6147 -2.41131 15
      vertex -10.6618 -2.26624 15
      vertex -10.6857 -2.03901 15
    endloop
  endfacet
  facet normal -0.770832 -0.250459 0.585738
    outer loop
      vertex -10.6618 -2.26624 15
      vertex -10.6147 -2.41131 15
      vertex 0 0 30
    endloop
  endfacet
  facet normal -0.770832 -0.250459 0.585738
    outer loop
      vertex 0 0 30
      vertex -10.6147 -2.41131 15
      vertex -10.0048 -4.28836 15
    endloop
  endfacet
  facet normal -0.770832 -0.250459 0.585738
    outer loop
      vertex 0 0 30
      vertex -10.0048 -4.28836 15
      vertex -9.95764 -4.43343 15
    endloop
  endfacet
  facet normal 0 0 1
    outer loop
      vertex -10.0048 -4.28836 15
      vertex -10.6147 -2.41131 15
      vertex -10.5576 -2.71072 15
    endloop
  endfacet
  facet normal 0 0 1
    outer loop
      vertex -10.1346 -4.01256 15
      vertex -10.0048 -4.28836 15
      vertex -10.5576 -2.71072 15
    endloop
  endfacet
  facet normal 0 0 -1
    outer loop
      vertex -9.84341 -4.63128 15
      vertex -9.95764 -4.43343 15
      vertex -10.0048 -4.28836 15
    endloop
  endfacet
  facet normal -0.701914 -0.40525 0.585737
    outer loop
      vertex -9.95764 -4.43343 15
      vertex -9.84341 -4.63128 15
      vertex 0 0 30
    endloop
  endfacet
  facet normal -0.701914 -0.40525 0.585737
    outer loop
      vertex 0 0 30
      vertex -9.84341 -4.63128 15
      vertex -8.81828 -6.40686 15
    endloop
  endfacet
  facet normal 0 0 1
    outer loop
      vertex -8.81828 -6.40686 15
      vertex -9.84341 -4.63128 15
      vertex -9.55174 -5.25111 15
    endloop
  endfacet
  facet normal -0.60232 -0.542331 0.585738
    outer loop
      vertex -8.81828 -6.40686 15
      vertex -7.44641 -7.93048 15
      vertex 0 0 30
    endloop
  endfacet
  facet normal -0.60232 -0.542331 0.585738
    outer loop
      vertex 0 0 30
      vertex -7.44641 -7.93048 15
      vertex -7.29352 -8.10028 15
    endloop
  endfacet
  facet normal 0 0 1
    outer loop
      vertex -7.44641 -7.93048 15
      vertex -8.81828 -6.40686 15
      vertex -7.94576 -7.46156 15
    endloop
  endfacet
  facet normal 0 0 -1
    outer loop
      vertex -7.17011 -8.18994 15
      vertex -7.29352 -8.10028 15
      vertex -7.44641 -7.93048 15
    endloop
  endfacet
  facet normal -0.4764 -0.655709 0.585738
    outer loop
      vertex 0 0 30
      vertex -7.29352 -8.10028 15
      vertex -7.17011 -8.18994 15
    endloop
  endfacet
  facet normal -0.4764 -0.655709 0.585738
    outer loop
      vertex -5.45 -9.43968 15
      vertex 0 0 30
      vertex -5.57341 -9.35002 15
    endloop
  endfacet
  facet normal -0.4764 -0.655709 0.585738
    outer loop
      vertex -5.57341 -9.35002 15
      vertex 0 0 30
      vertex -7.17011 -8.18994 15
    endloop
  endfacet
  facet normal 0 0 1
    outer loop
      vertex -5.57341 -9.35002 15
      vertex -7.17011 -8.18994 15
      vertex -6.94792 -8.39859 15
    endloop
  endfacet
  facet normal 0 0 1
    outer loop
      vertex -5.84051 -9.20317 15
      vertex -5.57341 -9.35002 15
      vertex -6.94792 -8.39859 15
    endloop
  endfacet
  facet normal 0 0 -1
    outer loop
      vertex -5.24128 -9.53261 15
      vertex -5.45 -9.43968 15
      vertex -5.57341 -9.35002 15
    endloop
  endfacet
  facet normal -0.32966 -0.740429 0.585738
    outer loop
      vertex 0 0 30
      vertex -5.45 -9.43968 15
      vertex -5.24128 -9.53261 15
    endloop
  endfacet
  facet normal -0.32966 -0.740429 0.585738
    outer loop
      vertex -3.36828 -10.3665 15
      vertex 0 0 30
      vertex -5.24128 -9.53261 15
    endloop
  endfacet
  facet normal 0 0 1
    outer loop
      vertex -3.36828 -10.3665 15
      vertex -5.24128 -9.53261 15
      vertex -4.64099 -9.86261 15
    endloop
  endfacet
  facet normal -0.168513 -0.792789 0.585738
    outer loop
      vertex 0 0 30
      vertex -3.36828 -10.3665 15
      vertex -1.36285 -10.7928 15
    endloop
  endfacet
  facet normal -0.168513 -0.792789 0.585738
    outer loop
      vertex -1.13936 -10.8403 15
      vertex 0 0 30
      vertex -1.36285 -10.7928 15
    endloop
  endfacet
  facet normal 0 0 1
    outer loop
      vertex -1.36285 -10.7928 15
      vertex -3.36828 -10.3665 15
      vertex -2.04246 -10.7069 15
    endloop
  endfacet
  facet normal 0 0 -1
    outer loop
      vertex -0.986817 -10.8403 15
      vertex -1.13936 -10.8403 15
      vertex -1.36285 -10.7928 15
    endloop
  endfacet
  facet normal 0 -0.810501 0.585738
    outer loop
      vertex 0 0 30
      vertex -1.13936 -10.8403 15
      vertex -0.986817 -10.8403 15
    endloop
  endfacet
  facet normal 0 -0.810501 0.585738
    outer loop
      vertex 1.13936 -10.8403 15
      vertex 0 0 30
      vertex 0.986817 -10.8403 15
    endloop
  endfacet
  facet normal 0 -0.810501 0.585738
    outer loop
      vertex 0.986817 -10.8403 15
      vertex 0 0 30
      vertex -0.986817 -10.8403 15
    endloop
  endfacet
  facet normal 0 0 1
    outer loop
      vertex 0.986817 -10.8403 15
      vertex -0.986817 -10.8403 15
      vertex -0.684417 -10.8785 15
    endloop
  endfacet
  facet normal 0 0 1
    outer loop
      vertex 0.684417 -10.8785 15
      vertex 0.986817 -10.8403 15
      vertex -0.684417 -10.8785 15
    endloop
  endfacet
  facet normal 0 0 -1
    outer loop
      vertex 1.36285 -10.7928 15
      vertex 1.13936 -10.8403 15
      vertex 0.986817 -10.8403 15
    endloop
  endfacet
  facet normal 0.168513 -0.792789 0.585738
    outer loop
      vertex 1.36285 -10.7928 15
      vertex 0 0 30
      vertex 1.13936 -10.8403 15
    endloop
  endfacet
  facet normal 0.168513 -0.792789 0.585738
    outer loop
      vertex 3.36828 -10.3665 15
      vertex 0 0 30
      vertex 1.36285 -10.7928 15
    endloop
  endfacet
  facet normal 0 0 1
    outer loop
      vertex 3.36828 -10.3665 15
      vertex 1.36285 -10.7928 15
      vertex 2.04246 -10.7069 15
    endloop
  endfacet
  facet normal 0.32966 -0.740429 0.585738
    outer loop
      vertex 5.24128 -9.53261 15
      vertex 0 0 30
      vertex 3.36828 -10.3665 15
    endloop
  endfacet
  facet normal 0.32966 -0.740429 0.585738
    outer loop
      vertex 5.45 -9.43968 15
      vertex 0 0 30
      vertex 5.24128 -9.53261 15
    endloop
  endfacet
  facet normal 0 0 1
    outer loop
      vertex 5.24128 -9.53261 15
      vertex 3.36828 -10.3665 15
      vertex 4.64099 -9.86261 15
    endloop
  endfacet
  facet normal 0 0 -1
    outer loop
      vertex 5.57341 -9.35002 15
      vertex 5.45 -9.43968 15
      vertex 5.24128 -9.53261 15
    endloop
  endfacet
  facet normal 0.4764 -0.655709 0.585738
    outer loop
      vertex 5.57341 -9.35002 15
      vertex 0 0 30
      vertex 5.45 -9.43968 15
    endloop
  endfacet
  facet normal 0.4764 -0.655709 0.585738
    outer loop
      vertex 7.17011 -8.18994 15
      vertex 0 0 30
      vertex 5.57341 -9.35002 15
    endloop
  endfacet
  facet normal 0.4764 -0.655709 0.585738
    outer loop
      vertex 7.29352 -8.10028 15
      vertex 0 0 30
      vertex 7.17011 -8.18994 15
    endloop
  endfacet
  facet normal 0 0 1
    outer loop
      vertex 7.17011 -8.18994 15
      vertex 5.57341 -9.35002 15
      vertex 5.84051 -9.20317 15
    endloop
  endfacet
  facet normal 0 0 1
    outer loop
      vertex 6.94792 -8.39859 15
      vertex 7.17011 -8.18994 15
      vertex 5.84051 -9.20317 15
    endloop
  endfacet
  facet normal 0 0 -1
    outer loop
      vertex 7.44641 -7.93048 15
      vertex 7.29352 -8.10028 15
      vertex 7.17011 -8.18994 15
    endloop
  endfacet
  facet normal 0.60232 -0.542331 0.585738
    outer loop
      vertex 7.44641 -7.93048 15
      vertex 0 0 30
      vertex 7.29352 -8.10028 15
    endloop
  endfacet
  facet normal 0.60232 -0.542331 0.585738
    outer loop
      vertex 8.81828 -6.40686 15
      vertex 0 0 30
      vertex 7.44641 -7.93048 15
    endloop
  endfacet
  facet normal 0 0 1
    outer loop
      vertex 8.81828 -6.40686 15
      vertex 7.44641 -7.93048 15
      vertex 7.94576 -7.46156 15
    endloop
  endfacet
  facet normal 0.701914 -0.40525 0.585737
    outer loop
      vertex 9.84341 -4.63128 15
      vertex 0 0 30
      vertex 8.81828 -6.40686 15
    endloop
  endfacet
  facet normal 0.701914 -0.40525 0.585737
    outer loop
      vertex 9.95764 -4.43343 15
      vertex 0 0 30
      vertex 9.84341 -4.63128 15
    endloop
  endfacet
  facet normal 0 0 1
    outer loop
      vertex 9.84341 -4.63128 15
      vertex 8.81828 -6.40686 15
      vertex 9.55174 -5.25111 15
    endloop
  endfacet
  facet normal 0 0 -1
    outer loop
      vertex 10.0048 -4.28836 15
      vertex 9.95764 -4.43343 15
      vertex 9.84341 -4.63128 15
    endloop
  endfacet
  facet normal 0.770832 -0.250459 0.585738
    outer loop
      vertex 10.0048 -4.28836 15
      vertex 0 0 30
      vertex 9.95764 -4.43343 15
    endloop
  endfacet
  facet normal 0.770832 -0.250459 0.585738
    outer loop
      vertex 10.6147 -2.41131 15
      vertex 0 0 30
      vertex 10.0048 -4.28836 15
    endloop
  endfacet
  facet normal 0.770832 -0.250459 0.585738
    outer loop
      vertex 10.6618 -2.26624 15
      vertex 0 0 30
      vertex 10.6147 -2.41131 15
    endloop
  endfacet
  facet normal 0 0 1
    outer loop
      vertex 10.6147 -2.41131 15
      vertex 10.0048 -4.28836 15
      vertex 10.1346 -4.01256 15
    endloop
  endfacet
  facet normal 0 0 1
    outer loop
      vertex 10.5576 -2.71072 15
      vertex 10.6147 -2.41131 15
      vertex 10.1346 -4.01256 15
    endloop
  endfacet
  facet normal 0 0 -1
    outer loop
      vertex 10.6857 -2.03901 15
      vertex 10.6618 -2.26624 15
      vertex 10.6147 -2.41131 15
    endloop
  endfacet
  facet normal 0.806061 -0.0847204 0.585738
    outer loop
      vertex 10.6857 -2.03901 15
      vertex 0 0 30
      vertex 10.6618 -2.26624 15
    endloop
  endfacet
  facet normal 0.806061 -0.0847204 0.585738
    outer loop
      vertex 10.9 0 15
      vertex 0 0 30
      vertex 10.6857 -2.03901 15
    endloop
  endfacet
  facet normal 0 0 1
    outer loop
      vertex 10.9 0 15
      vertex 10.6857 -2.03901 15
      vertex 10.814 -1.36613 15
    endloop
  endfacet
  facet normal 0.806061 0.0847204 0.585738
    outer loop
      vertex 10.6857 2.03901 15
      vertex 0 0 30
      vertex 10.9 0 15
    endloop
  endfacet
  facet normal 0.806061 0.0847204 0.585738
    outer loop
      vertex 10.6618 2.26624 15
      vertex 0 0 30
      vertex 10.6857 2.03901 15
    endloop
  endfacet
  facet normal 0 0 1
    outer loop
      vertex 10.814 1.36613 15
      vertex 10.6857 2.03901 15
      vertex 10.9 0 15
    endloop
  endfacet
  facet normal 0 0 -1
    outer loop
      vertex 10.6618 2.26624 15
      vertex 10.6857 2.03901 15
      vertex 10.6147 2.41131 15
    endloop
  endfacet
  facet normal 0 0 1
    outer loop
      vertex 10.1346 4.01256 15
      vertex 10.0048 4.28836 15
      vertex 10.6147 2.41131 15
    endloop
  endfacet
  facet normal 0 0 1
    outer loop
      vertex 10.5576 2.71072 15
      vertex 10.1346 4.01256 15
      vertex 10.6147 2.41131 15
    endloop
  endfacet
  facet normal 0.770832 0.250459 0.585738
    outer loop
      vertex 10.6147 2.41131 15
      vertex 0 0 30
      vertex 10.6618 2.26624 15
    endloop
  endfacet
  facet normal 0.770832 0.250459 0.585738
    outer loop
      vertex 10.0048 4.28836 15
      vertex 0 0 30
      vertex 10.6147 2.41131 15
    endloop
  endfacet
  facet normal 0.770832 0.250459 0.585738
    outer loop
      vertex 9.95764 4.43343 15
      vertex 0 0 30
      vertex 10.0048 4.28836 15
    endloop
  endfacet
  facet normal 0 0 -1
    outer loop
      vertex 9.95764 4.43343 15
      vertex 10.0048 4.28836 15
      vertex 9.84341 4.63128 15
    endloop
  endfacet
  facet normal 0 0 1
    outer loop
      vertex 9.55174 5.25111 15
      vertex 8.81828 6.40686 15
      vertex 9.84341 4.63128 15
    endloop
  endfacet
  facet normal 0.701914 0.40525 0.585737
    outer loop
      vertex 9.84341 4.63128 15
      vertex 0 0 30
      vertex 9.95764 4.43343 15
    endloop
  endfacet
  facet normal 0.701914 0.40525 0.585737
    outer loop
      vertex 8.81828 6.40686 15
      vertex 0 0 30
      vertex 9.84341 4.63128 15
    endloop
  endfacet
  facet normal 0 0 1
    outer loop
      vertex 7.94576 7.46156 15
      vertex 7.44641 7.93048 15
      vertex 8.81828 6.40686 15
    endloop
  endfacet
  facet normal 0.60232 0.542331 0.585738
    outer loop
      vertex 7.44641 7.93048 15
      vertex 0 0 30
      vertex 8.81828 6.40686 15
    endloop
  endfacet
  facet normal 0.60232 0.542331 0.585738
    outer loop
      vertex 7.29352 8.10028 15
      vertex 0 0 30
      vertex 7.44641 7.93048 15
    endloop
  endfacet
  facet normal 0 0 -1
    outer loop
      vertex 7.29352 8.10028 15
      vertex 7.44641 7.93048 15
      vertex 7.17011 8.18994 15
    endloop
  endfacet
  facet normal 0 0 1
    outer loop
      vertex 5.84051 9.20317 15
      vertex 5.57341 9.35002 15
      vertex 7.17011 8.18994 15
    endloop
  endfacet
  facet normal 0 0 1
    outer loop
      vertex 6.94792 8.39859 15
      vertex 5.84051 9.20317 15
      vertex 7.17011 8.18994 15
    endloop
  endfacet
  facet normal 0.4764 0.655709 0.585738
    outer loop
      vertex 0 0 30
      vertex 7.29352 8.10028 15
      vertex 7.17011 8.18994 15
    endloop
  endfacet
  facet normal 0.4764 0.655709 0.585738
    outer loop
      vertex 0 0 30
      vertex 7.17011 8.18994 15
      vertex 5.57341 9.35002 15
    endloop
  endfacet
  facet normal 0.4764 0.655709 0.585738
    outer loop
      vertex 0 0 30
      vertex 5.57341 9.35002 15
      vertex 5.45 9.43968 15
    endloop
  endfacet
  facet normal 0 0 -1
    outer loop
      vertex 5.45 9.43968 15
      vertex 5.57341 9.35002 15
      vertex 5.24128 9.53261 15
    endloop
  endfacet
  facet normal 0 0 1
    outer loop
      vertex 4.64099 9.86261 15
      vertex 3.36828 10.3665 15
      vertex 5.24128 9.53261 15
    endloop
  endfacet
  facet normal 0.32966 0.740429 0.585738
    outer loop
      vertex 0 0 30
      vertex 5.24128 9.53261 15
      vertex 3.36828 10.3665 15
    endloop
  endfacet
  facet normal 0.32966 0.740429 0.585738
    outer loop
      vertex 0 0 30
      vertex 5.45 9.43968 15
      vertex 5.24128 9.53261 15
    endloop
  endfacet
  facet normal 0 0 1
    outer loop
      vertex 2.04246 10.7069 15
      vertex 1.36285 10.7928 15
      vertex 3.36828 10.3665 15
    endloop
  endfacet
  facet normal 0.168513 0.792789 0.585738
    outer loop
      vertex 0 0 30
      vertex 1.36285 10.7928 15
      vertex 1.13936 10.8403 15
    endloop
  endfacet
  facet normal 0.168513 0.792789 0.585738
    outer loop
      vertex 0 0 30
      vertex 3.36828 10.3665 15
      vertex 1.36285 10.7928 15
    endloop
  endfacet
  facet normal 0 0 -1
    outer loop
      vertex 1.13936 10.8403 15
      vertex 1.36285 10.7928 15
      vertex 0.986817 10.8403 15
    endloop
  endfacet
  facet normal 0 0 1
    outer loop
      vertex -0.684417 10.8785 15
      vertex -0.986817 10.8403 15
      vertex 0.986817 10.8403 15
    endloop
  endfacet
  facet normal 0 0 1
    outer loop
      vertex 0.684417 10.8785 15
      vertex -0.684417 10.8785 15
      vertex 0.986817 10.8403 15
    endloop
  endfacet
  facet normal 0 0.810501 0.585738
    outer loop
      vertex -1.13936 10.8403 15
      vertex 0 0 30
      vertex -0.986817 10.8403 15
    endloop
  endfacet
  facet normal 0 0.810501 0.585738
    outer loop
      vertex 0.986817 10.8403 15
      vertex 0 0 30
      vertex 1.13936 10.8403 15
    endloop
  endfacet
  facet normal 0 0.810501 0.585738
    outer loop
      vertex -0.986817 10.8403 15
      vertex 0 0 30
      vertex 0.986817 10.8403 15
    endloop
  endfacet
  facet normal 0 0 -1
    outer loop
      vertex -1.13936 10.8403 15
      vertex -0.986817 10.8403 15
      vertex -1.36285 10.7928 15
    endloop
  endfacet
  facet normal 0 0 1
    outer loop
      vertex -2.04246 10.7069 15
      vertex -3.36828 10.3665 15
      vertex -1.36285 10.7928 15
    endloop
  endfacet
  facet normal -0.168513 0.792789 0.585738
    outer loop
      vertex -3.36828 10.3665 15
      vertex 0 0 30
      vertex -1.36285 10.7928 15
    endloop
  endfacet
  facet normal -0.168513 0.792789 0.585738
    outer loop
      vertex -1.36285 10.7928 15
      vertex 0 0 30
      vertex -1.13936 10.8403 15
    endloop
  endfacet
  facet normal 0 0 1
    outer loop
      vertex -4.64099 9.86261 15
      vertex -5.24128 9.53261 15
      vertex -3.36828 10.3665 15
    endloop
  endfacet
  facet normal -0.32966 0.740429 0.585738
    outer loop
      vertex -5.45 9.43968 15
      vertex 0 0 30
      vertex -5.24128 9.53261 15
    endloop
  endfacet
  facet normal -0.32966 0.740429 0.585738
    outer loop
      vertex -5.24128 9.53261 15
      vertex 0 0 30
      vertex -3.36828 10.3665 15
    endloop
  endfacet
  facet normal 0 0 -1
    outer loop
      vertex -5.45 9.43968 15
      vertex -5.24128 9.53261 15
      vertex -5.57341 9.35002 15
    endloop
  endfacet
  facet normal 0 0 1
    outer loop
      vertex -6.94792 8.39859 15
      vertex -7.17011 8.18994 15
      vertex -5.57341 9.35002 15
    endloop
  endfacet
  facet normal 0 0 1
    outer loop
      vertex -5.84051 9.20317 15
      vertex -6.94792 8.39859 15
      vertex -5.57341 9.35002 15
    endloop
  endfacet
  facet normal -0.4764 0.655709 0.585738
    outer loop
      vertex -7.29352 8.10028 15
      vertex 0 0 30
      vertex -7.17011 8.18994 15
    endloop
  endfacet
  facet normal -0.4764 0.655709 0.585738
    outer loop
      vertex -5.57341 9.35002 15
      vertex 0 0 30
      vertex -5.45 9.43968 15
    endloop
  endfacet
  facet normal -0.4764 0.655709 0.585738
    outer loop
      vertex -7.17011 8.18994 15
      vertex 0 0 30
      vertex -5.57341 9.35002 15
    endloop
  endfacet
  facet normal 0 0 -1
    outer loop
      vertex -7.29352 8.10028 15
      vertex -7.17011 8.18994 15
      vertex -7.44641 7.93048 15
    endloop
  endfacet
  facet normal 0 0 1
    outer loop
      vertex -7.94576 7.46156 15
      vertex -8.81828 6.40686 15
      vertex -7.44641 7.93048 15
    endloop
  endfacet
  facet normal -0.60232 0.542331 0.585738
    outer loop
      vertex -8.81828 6.40686 15
      vertex 0 0 30
      vertex -7.44641 7.93048 15
    endloop
  endfacet
  facet normal -0.60232 0.542331 0.585738
    outer loop
      vertex -7.44641 7.93048 15
      vertex 0 0 30
      vertex -7.29352 8.10028 15
    endloop
  endfacet
  facet normal 0 0 1
    outer loop
      vertex -9.55174 5.25111 15
      vertex -9.84341 4.63128 15
      vertex -8.81828 6.40686 15
    endloop
  endfacet
  facet normal -0.701914 0.40525 0.585737
    outer loop
      vertex -9.95764 4.43343 15
      vertex 0 0 30
      vertex -9.84341 4.63128 15
    endloop
  endfacet
  facet normal -0.701914 0.40525 0.585737
    outer loop
      vertex -9.84341 4.63128 15
      vertex 0 0 30
      vertex -8.81828 6.40686 15
    endloop
  endfacet
  facet normal 0 0 -1
    outer loop
      vertex -9.95764 4.43343 15
      vertex -9.84341 4.63128 15
      vertex -10.0048 4.28836 15
    endloop
  endfacet
  facet normal 0 0 1
    outer loop
      vertex -10.5576 2.71072 15
      vertex -10.6147 2.41131 15
      vertex -10.0048 4.28836 15
    endloop
  endfacet
  facet normal 0 0 1
    outer loop
      vertex -10.1346 4.01256 15
      vertex -10.5576 2.71072 15
      vertex -10.0048 4.28836 15
    endloop
  endfacet
  facet normal -0.770832 0.250459 0.585738
    outer loop
      vertex -10.6618 2.26624 15
      vertex 0 0 30
      vertex -10.6147 2.41131 15
    endloop
  endfacet
  facet normal -0.770832 0.250459 0.585738
    outer loop
      vertex -10.0048 4.28836 15
      vertex 0 0 30
      vertex -9.95764 4.43343 15
    endloop
  endfacet
  facet normal -0.770832 0.250459 0.585738
    outer loop
      vertex -10.6147 2.41131 15
      vertex 0 0 30
      vertex -10.0048 4.28836 15
    endloop
  endfacet
  facet normal 0 0 -1
    outer loop
      vertex -10.6618 2.26624 15
      vertex -10.6147 2.41131 15
      vertex -10.6857 2.03901 15
    endloop
  endfacet
  facet normal 0.775778 0 -0.631006
    outer loop
      vertex -8.94724 0.973071 15
      vertex 0 0 26
      vertex -8.94724 -0.973071 15
    endloop
  endfacet
  facet normal 0.75764 -0.166769 -0.631006
    outer loop
      vertex -8.52888 2.87371 15
      vertex 0 0 26
      vertex -8.94724 0.973071 15
    endloop
  endfacet
  facet normal 0.704077 -0.325741 -0.631006
    outer loop
      vertex -7.71171 4.63998 15
      vertex 0 0 26
      vertex -8.52888 2.87371 15
    endloop
  endfacet
  facet normal 0.75764 0.166769 -0.631006
    outer loop
      vertex 0 0 26
      vertex -8.52888 -2.87371 15
      vertex -8.94724 -0.973071 15
    endloop
  endfacet
  facet normal 0.617591 -0.469481 -0.631006
    outer loop
      vertex -6.53396 6.18929 15
      vertex 0 0 26
      vertex -7.71171 4.63998 15
    endloop
  endfacet
  facet normal 0.502228 -0.591268 -0.631006
    outer loop
      vertex -5.05068 7.4492 15
      vertex 0 0 26
      vertex -6.53396 6.18929 15
    endloop
  endfacet
  facet normal 0.363381 -0.685409 -0.631006
    outer loop
      vertex -3.33124 8.36079 15
      vertex 0 0 26
      vertex -5.05068 7.4492 15
    endloop
  endfacet
  facet normal 0.207543 -0.7475 -0.631006
    outer loop
      vertex -1.45604 8.88144 15
      vertex 0 0 26
      vertex -3.33124 8.36079 15
    endloop
  endfacet
  facet normal 0.0419997 -0.77464 -0.631006
    outer loop
      vertex 0.48725 8.9868 15
      vertex 0 0 26
      vertex -1.45604 8.88144 15
    endloop
  endfacet
  facet normal -0.125507 -0.765558 -0.631006
    outer loop
      vertex 0.48725 8.9868 15
      vertex 2.40775 8.67195 15
      vertex 0 0 26
    endloop
  endfacet
  facet normal -0.287145 -0.720679 -0.631006
    outer loop
      vertex 2.40775 8.67195 15
      vertex 4.21568 7.95161 15
      vertex 0 0 26
    endloop
  endfacet
  facet normal -0.435356 -0.642103 -0.631006
    outer loop
      vertex 4.21568 7.95161 15
      vertex 5.82648 6.85946 15
      vertex 0 0 26
    endloop
  endfacet
  facet normal -0.563211 -0.533502 -0.631006
    outer loop
      vertex 5.82648 6.85946 15
      vertex 7.16484 5.44657 15
      vertex 0 0 26
    endloop
  endfacet
  facet normal -0.664731 -0.399955 -0.631006
    outer loop
      vertex 7.16484 5.44657 15
      vertex 8.16818 3.779 15
      vertex 0 0 26
    endloop
  endfacet
  facet normal -0.735168 -0.247707 -0.631006
    outer loop
      vertex 8.16818 3.779 15
      vertex 8.78958 1.93473 15
      vertex 0 0 26
    endloop
  endfacet
  facet normal -0.77123 -0.0838763 -0.631006
    outer loop
      vertex 8.78958 1.93473 15
      vertex 9 0 15
      vertex 0 0 26
    endloop
  endfacet
  facet normal -0.77123 0.0838763 -0.631006
    outer loop
      vertex 9 0 15
      vertex 8.78958 -1.93473 15
      vertex 0 0 26
    endloop
  endfacet
  facet normal -0.735168 0.247707 -0.631006
    outer loop
      vertex 8.78958 -1.93473 15
      vertex 8.16818 -3.779 15
      vertex 0 0 26
    endloop
  endfacet
  facet normal -0.664731 0.399955 -0.631006
    outer loop
      vertex 8.16818 -3.779 15
      vertex 7.16484 -5.44657 15
      vertex 0 0 26
    endloop
  endfacet
  facet normal -0.563211 0.533502 -0.631006
    outer loop
      vertex 7.16484 -5.44657 15
      vertex 5.82648 -6.85946 15
      vertex 0 0 26
    endloop
  endfacet
  facet normal -0.435356 0.642103 -0.631006
    outer loop
      vertex 5.82648 -6.85946 15
      vertex 4.21568 -7.95161 15
      vertex 0 0 26
    endloop
  endfacet
  facet normal -0.287145 0.720679 -0.631006
    outer loop
      vertex 4.21568 -7.95161 15
      vertex 2.40775 -8.67195 15
      vertex 0 0 26
    endloop
  endfacet
  facet normal -0.125507 0.765558 -0.631006
    outer loop
      vertex 2.40775 -8.67195 15
      vertex 0.48725 -8.9868 15
      vertex 0 0 26
    endloop
  endfacet
  facet normal 0.0419997 0.77464 -0.631006
    outer loop
      vertex 0 0 26
      vertex 0.48725 -8.9868 15
      vertex -1.45604 -8.88144 15
    endloop
  endfacet
  facet normal 0.207543 0.7475 -0.631006
    outer loop
      vertex 0 0 26
      vertex -1.45604 -8.88144 15
      vertex -3.33124 -8.36079 15
    endloop
  endfacet
  facet normal 0.363381 0.685409 -0.631006
    outer loop
      vertex 0 0 26
      vertex -3.33124 -8.36079 15
      vertex -5.05068 -7.4492 15
    endloop
  endfacet
  facet normal 0.502228 0.591268 -0.631006
    outer loop
      vertex 0 0 26
      vertex -5.05068 -7.4492 15
      vertex -6.53396 -6.18929 15
    endloop
  endfacet
  facet normal 0.617591 0.469481 -0.631006
    outer loop
      vertex 0 0 26
      vertex -6.53396 -6.18929 15
      vertex -7.71171 -4.63998 15
    endloop
  endfacet
  facet normal 0.704077 0.325741 -0.631006
    outer loop
      vertex 0 0 26
      vertex -7.71171 -4.63998 15
      vertex -8.52888 -2.87371 15
    endloop
  endfacet
endsolid OpenSCAD_Model
